<svg height="512" viewBox="0 0 512 512" width="512" xmlns="http://www.w3.org/2000/svg"><g id="BULINE"><circle cx="256" cy="256" fill="#fc4581" r="256"/></g><g id="Icons"><path d="m392.54 39.43h-273.08q7.31-4.62 14.94-8.75a254.37 254.37 0 0 1 117.19-30.63h8.82c4.9.07 9.76.3 14.59.65a254.4 254.4 0 0 1 117.54 38.73z" fill="#db1b1b"/><path d="m440.76 78.81h-369.52c.24-.26.49-.51.74-.77q7-7.2 14.45-13.83 7.17-6.33 14.81-12.15c5.88-4.46 12-8.69 18.22-12.63h273.08a256 256 0 0 1 48.22 39.38z" fill="#fff"/><path d="m471.77 118.18h-431.54c3.65-5.69 7.52-11.25 11.6-16.62a256.85 256.85 0 0 1 19.41-22.75h369.52a257.87 257.87 0 0 1 31.01 39.37z" fill="#db1b1b"/><path d="m492.38 157.56h-472.76c1.24-3 2.54-5.94 3.91-8.88a256 256 0 0 1 14.73-27.37c.65-1 1.31-2.08 2-3.13h431.51a255.36 255.36 0 0 1 20.61 39.38z" fill="#fff"/><path d="m505.14 196.93h-498.28q2.14-9.15 5-18 3.43-10.92 7.8-21.36h472.72a253.16 253.16 0 0 1 12.76 39.36z" fill="#db1b1b"/><path d="m511.25 236.31h-510.5a254 254 0 0 1 6.11-39.38h498.28a254 254 0 0 1 6.11 39.38z" fill="#fff"/><path d="m512 256q0 9.93-.75 19.69h-510.5q-.75-9.75-.75-19.69v-12.75a1.79 1.79 0 0 0 .27.94c0-.69.06-1.38.1-2.06.1-1.95.23-3.88.38-5.82h510.5q.75 9.75.75 19.69z" fill="#db1b1b"/><path d="m511.25 275.69a253.79 253.79 0 0 1 -6.11 39.38h-498.28a253.79 253.79 0 0 1 -6.11-39.38z" fill="#fff"/><path d="m505.14 315.07a251.76 251.76 0 0 1 -12.76 39.37h-472.76a251.76 251.76 0 0 1 -12.76-39.37z" fill="#db1b1b"/><path d="m492.38 354.44a254 254 0 0 1 -20.61 39.38h-431.54a254 254 0 0 1 -20.61-39.38z" fill="#fff"/><path d="m471.77 393.82a257.46 257.46 0 0 1 -31 39.38h-369.53a257.46 257.46 0 0 1 -31-39.38z" fill="#db1b1b"/><path d="m440.76 433.2a257.16 257.16 0 0 1 -48.22 39.38h-273.08a257.16 257.16 0 0 1 -48.22-39.38z" fill="#fff"/><path d="m392.54 472.58a254.44 254.44 0 0 1 -131.54 39.42h-10a254.44 254.44 0 0 1 -131.58-39.37z" fill="#db1b1b"/><path d="m275 .7v275h-274.25q-.75-9.76-.75-19.7v-12.75a1.79 1.79 0 0 0 .27.94c0-.69.06-1.38.1-2.06.1-1.95.23-3.88.38-5.82a254 254 0 0 1 6.11-39.38q2.14-9.15 5-18 3.43-10.92 7.8-21.36c1.24-3 2.54-5.94 3.91-8.88a256 256 0 0 1 14.73-27.37c.65-1 1.31-2.08 2-3.13 3.65-5.69 7.52-11.25 11.6-16.62a256.85 256.85 0 0 1 19.34-22.76c.24-.26.49-.51.74-.77q7-7.2 14.45-13.83 7.17-6.33 14.81-12.15c5.88-4.46 12-8.69 18.22-12.63q7.31-4.62 14.94-8.75a254.37 254.37 0 0 1 117.19-30.63h8.82c4.9.07 9.76.3 14.59.65z" fill="#3e436d"/><g fill="#fff"><path d="m245.4 16.4 3.5 10.77a1.82 1.82 0 0 0 1.73 1.26h11.37a1.82 1.82 0 0 1 1 3.29l-9.17 6.66a1.8 1.8 0 0 0 -.66 2l3.5 10.78a1.82 1.82 0 0 1 -2.8 2l-9.16-6.66a1.83 1.83 0 0 0 -2.14 0l-9.17 6.66a1.82 1.82 0 0 1 -2.8-2l3.51-10.78a1.83 1.83 0 0 0 -.66-2l-9.17-6.66a1.82 1.82 0 0 1 1.07-3.29h11.33a1.83 1.83 0 0 0 1.73-1.26l3.5-10.77a1.82 1.82 0 0 1 3.49 0z"/><path d="m123.82 39.43a1.86 1.86 0 0 0 0 1l3.51 10.76a1.82 1.82 0 0 1 -2.8 2l-9.17-6.65a1.82 1.82 0 0 0 -2.13 0l-9.17 6.65a1.81 1.81 0 0 1 -2.86-1.15c5.88-4.46 12-8.69 18.22-12.63q7.31-4.62 14.94-8.75a1.83 1.83 0 0 1 -.71 1l-9.17 6.66a1.85 1.85 0 0 0 -.66 1.11z"/><path d="m245.4 100.22 3.5 10.78a1.81 1.81 0 0 0 1.73 1.25h11.37a1.82 1.82 0 0 1 1.07 3.29l-9.17 6.66a1.8 1.8 0 0 0 -.66 2l3.46 10.8a1.82 1.82 0 0 1 -2.8 2l-9.16-6.66a1.83 1.83 0 0 0 -2.14 0l-9.17 6.66a1.82 1.82 0 0 1 -2.8-2l3.51-10.78a1.83 1.83 0 0 0 -.66-2l-9.17-6.66a1.82 1.82 0 0 1 1.07-3.29h11.33a1.82 1.82 0 0 0 1.73-1.25l3.5-10.78a1.82 1.82 0 0 1 3.46-.02z"/><path d="m180.73 100.22 3.5 10.78a1.81 1.81 0 0 0 1.73 1.25h11.33a1.82 1.82 0 0 1 1.07 3.29l-9.17 6.66a1.81 1.81 0 0 0 -.66 2l3.47 10.8a1.81 1.81 0 0 1 -2.79 2l-9.17-6.66a1.83 1.83 0 0 0 -2.14 0l-9.14 6.66a1.81 1.81 0 0 1 -2.79-2l3.5-10.78a1.81 1.81 0 0 0 -.66-2l-9.17-6.66a1.82 1.82 0 0 1 1.07-3.29h11.29a1.81 1.81 0 0 0 1.73-1.25l3.5-10.78a1.82 1.82 0 0 1 3.5-.02z"/><path d="m69 115.55-3.63 2.63-5.54 4a1.82 1.82 0 0 0 -.66 2l3.53 10.82a1.83 1.83 0 0 1 -2.8 2l-9.16-6.67a1.83 1.83 0 0 0 -2.14 0l-9.17 6.67a1.83 1.83 0 0 1 -2.8-2l3.51-10.77a1.85 1.85 0 0 0 -.66-2l-1.22-.89c.65-1 1.31-2.08 2-3.13 3.65-5.69 7.52-11.25 11.6-16.62l3.04 9.41a1.82 1.82 0 0 0 1.73 1.26h11.37a1.83 1.83 0 0 1 1 3.29z"/><path d="m245.4 185.61 3.5 10.78a1.82 1.82 0 0 0 1.73 1.25h11.37a1.82 1.82 0 0 1 1.07 3.29l-9.17 6.66a1.8 1.8 0 0 0 -.66 2l3.5 10.78a1.82 1.82 0 0 1 -2.8 2l-9.16-6.66a1.83 1.83 0 0 0 -2.14 0l-9.17 6.66a1.82 1.82 0 0 1 -2.8-2l3.51-10.78a1.83 1.83 0 0 0 -.66-2l-9.17-6.66a1.82 1.82 0 0 1 1.07-3.29h11.33a1.83 1.83 0 0 0 1.73-1.25l3.5-10.78a1.82 1.82 0 0 1 3.42 0z"/><path d="m180.73 185.61 3.5 10.78a1.82 1.82 0 0 0 1.73 1.25h11.33a1.82 1.82 0 0 1 1.07 3.29l-9.17 6.66a1.81 1.81 0 0 0 -.66 2l3.47 10.81a1.81 1.81 0 0 1 -2.79 2l-9.17-6.66a1.83 1.83 0 0 0 -2.14 0l-9.17 6.66a1.81 1.81 0 0 1 -2.79-2l3.5-10.78a1.81 1.81 0 0 0 -.66-2l-9.17-6.66a1.82 1.82 0 0 1 1.07-3.29h11.32a1.82 1.82 0 0 0 1.73-1.25l3.5-10.78a1.82 1.82 0 0 1 3.5-.03z"/><path d="m116.06 185.61 3.5 10.78a1.83 1.83 0 0 0 1.73 1.25h11.33a1.82 1.82 0 0 1 1.07 3.29l-9.17 6.66a1.83 1.83 0 0 0 -.66 2l3.51 10.78a1.82 1.82 0 0 1 -2.8 2l-9.17-6.66a1.82 1.82 0 0 0 -2.13 0l-9.17 6.66a1.82 1.82 0 0 1 -2.8-2l3.5-10.78a1.8 1.8 0 0 0 -.66-2l-9.14-6.66a1.82 1.82 0 0 1 1-3.29h11.33a1.82 1.82 0 0 0 1.73-1.25l3.5-10.78a1.82 1.82 0 0 1 3.5 0z"/><path d="m51.4 185.61 3.5 10.78a1.82 1.82 0 0 0 1.73 1.25h11.37a1.82 1.82 0 0 1 1 3.29l-9.17 6.66a1.8 1.8 0 0 0 -.66 2l3.5 10.78a1.82 1.82 0 0 1 -2.8 2l-9.16-6.66a1.83 1.83 0 0 0 -2.14 0l-9.17 6.66a1.82 1.82 0 0 1 -2.8-2l3.51-10.78a1.83 1.83 0 0 0 -.66-2l-9.17-6.66a1.82 1.82 0 0 1 1.07-3.29h11.36a1.83 1.83 0 0 0 1.73-1.25l3.5-10.78a1.82 1.82 0 0 1 3.46 0z"/><path d="m213.06 55.91 3.5 10.78a1.82 1.82 0 0 0 1.73 1.25h11.33a1.82 1.82 0 0 1 1.07 3.29l-9.17 6.66a1.83 1.83 0 0 0 -.66 2l3.51 10.78a1.82 1.82 0 0 1 -2.8 2l-9.17-6.66a1.82 1.82 0 0 0 -2.13 0l-9.17 6.66a1.82 1.82 0 0 1 -2.8-2l3.5-10.78a1.8 1.8 0 0 0 -.66-2l-9.14-6.66a1.82 1.82 0 0 1 1-3.29h11.33a1.81 1.81 0 0 0 1.73-1.25l3.5-10.78a1.82 1.82 0 0 1 3.5 0z"/><path d="m91.53 78.81a1.86 1.86 0 0 0 0 1.12l3.47 10.77a1.82 1.82 0 0 1 -2.79 2l-9.17-6.67a1.83 1.83 0 0 0 -2.14 0l-9.17 6.67a1.82 1.82 0 0 1 -2.79-2l3.5-10.77a1.86 1.86 0 0 0 0-1.12 1.65 1.65 0 0 0 -.44-.81q7-7.2 14.45-13.83l.8 2.47a1.82 1.82 0 0 0 1.75 1.3h11.33a1.83 1.83 0 0 1 1.07 3.3l-9.17 6.65a1.8 1.8 0 0 0 -.7.92z"/><path d="m40.21 157.56a1.73 1.73 0 0 1 -.74 1.25l-9.17 6.67a1.83 1.83 0 0 0 -.66 2l3.5 10.78a1.81 1.81 0 0 1 -2.79 2l-9.17-6.65a1.77 1.77 0 0 0 -2.14 0l-7.22 5.25q3.43-10.92 7.8-21.36c1.24-3 2.54-5.94 3.91-8.88l1.81 5.59a1.83 1.83 0 0 0 1.73 1.27h11.33a1.82 1.82 0 0 1 1.81 2.08z"/><path d="m213.06 143.5 3.5 10.78a1.83 1.83 0 0 0 1.73 1.25h11.33a1.82 1.82 0 0 1 1.07 3.29l-9.17 6.66a1.83 1.83 0 0 0 -.66 2l3.51 10.78a1.82 1.82 0 0 1 -2.8 2l-9.17-6.66a1.82 1.82 0 0 0 -2.13 0l-9.17 6.66a1.82 1.82 0 0 1 -2.8-2l3.5-10.78a1.8 1.8 0 0 0 -.66-2l-9.14-6.66a1.82 1.82 0 0 1 1.07-3.29h11.33a1.82 1.82 0 0 0 1.73-1.25l3.5-10.78a1.82 1.82 0 0 1 3.43 0z"/><path d="m148.4 143.5 3.5 10.78a1.82 1.82 0 0 0 1.73 1.25h11.37a1.82 1.82 0 0 1 1.07 3.29l-9.17 6.66a1.8 1.8 0 0 0 -.66 2l3.5 10.78a1.82 1.82 0 0 1 -2.8 2l-9.16-6.66a1.83 1.83 0 0 0 -2.14 0l-9.17 6.66a1.82 1.82 0 0 1 -2.8-2l3.51-10.78a1.83 1.83 0 0 0 -.66-2l-9.17-6.66a1.82 1.82 0 0 1 1.07-3.29h11.33a1.83 1.83 0 0 0 1.73-1.25l3.5-10.78a1.82 1.82 0 0 1 3.42 0z"/><path d="m30.3 251.37a1.81 1.81 0 0 0 -.66 2l3.5 10.79a1.81 1.81 0 0 1 -2.79 2l-9.17-6.65a1.8 1.8 0 0 0 -2.14 0l-9.16 6.69a1.81 1.81 0 0 1 -2.8-2l3.5-10.79a1.79 1.79 0 0 0 -.66-2l-9.17-6.71a1.78 1.78 0 0 1 -.48-.51c0-.69.06-1.38.1-2.06a1.74 1.74 0 0 1 1.45-.71h11.33a1.83 1.83 0 0 0 1.73-1.27l1.25-3.84 2.25-6.93a1.82 1.82 0 0 1 3.46 0l2.25 6.93 1.25 3.84a1.83 1.83 0 0 0 1.73 1.27h11.33a1.81 1.81 0 0 1 1.07 3.28z"/><path d="m213.06 229.38 3.5 10.78a1.82 1.82 0 0 0 1.73 1.25h11.33a1.82 1.82 0 0 1 1.07 3.29l-9.17 6.66a1.85 1.85 0 0 0 -.66 2l3.51 10.77a1.82 1.82 0 0 1 -2.8 2l-9.17-6.66a1.82 1.82 0 0 0 -2.13 0l-9.17 6.66a1.82 1.82 0 0 1 -2.8-2l3.5-10.77a1.82 1.82 0 0 0 -.66-2l-9.14-6.66a1.82 1.82 0 0 1 1.07-3.29h11.33a1.81 1.81 0 0 0 1.73-1.25l3.5-10.78a1.82 1.82 0 0 1 3.43 0z"/><path d="m148.4 229.38 3.5 10.78a1.81 1.81 0 0 0 1.73 1.25h11.37a1.82 1.82 0 0 1 1 3.29l-9.17 6.66a1.82 1.82 0 0 0 -.66 2l3.5 10.77a1.82 1.82 0 0 1 -2.8 2l-9.16-6.66a1.83 1.83 0 0 0 -2.14 0l-9.17 6.66a1.82 1.82 0 0 1 -2.8-2l3.51-10.77a1.85 1.85 0 0 0 -.66-2l-9.17-6.66a1.82 1.82 0 0 1 1.07-3.29h11.33a1.82 1.82 0 0 0 1.73-1.25l3.5-10.78a1.82 1.82 0 0 1 3.49 0z"/><path d="m83.73 229.38 3.5 10.78a1.81 1.81 0 0 0 1.77 1.25h11.33a1.82 1.82 0 0 1 1.07 3.29l-9.17 6.66a1.83 1.83 0 0 0 -.66 2l3.43 10.81a1.81 1.81 0 0 1 -2.79 2l-9.17-6.66a1.83 1.83 0 0 0 -2.14 0l-9.17 6.66a1.81 1.81 0 0 1 -2.79-2l3.5-10.77a1.83 1.83 0 0 0 -.66-2l-9.17-6.66a1.82 1.82 0 0 1 1.07-3.29h11.32a1.81 1.81 0 0 0 1.73-1.25l3.5-10.78a1.82 1.82 0 0 1 3.5-.04z"/></g><path d="m287 1.86c-4 .47-8 1.06-12 1.72a253.72 253.72 0 0 0 -76.15 25.74c-.86.44-1.71.91-2.56 1.36q-7.64 4.13-14.94 8.75h-61.89q7.31-4.62 14.94-8.75a254.37 254.37 0 0 1 117.19-30.63h8.82c4.9.07 9.76.3 14.59.65q6 .44 12 1.16z" fill="#db1b1b"/><path d="m181.35 39.43q-7.62 4.78-14.85 10.12c-1.13.82-2.25 1.66-3.37 2.51-4.33 3.3-8.54 6.71-12.64 10.27-.73.61-1.45 1.24-2.17 1.88-4.58 4.05-9 8.28-13.28 12.64l1.44 1a1.8 1.8 0 0 1 .66.92h-65.9c.24-.26.49-.51.74-.77q7-7.2 14.45-13.83 7.17-6.33 14.81-12.15c5.88-4.46 12-8.69 18.22-12.63z" fill="#fff"/><path d="m133.13 78.81a257.94 257.94 0 0 0 -17.7 20.51l-1.71 2.24c-.93 1.23-1.85 2.46-2.76 3.71l-1.86 5.73a1.82 1.82 0 0 1 -1.73 1.26h-1.37c-1.34 2-2.64 3.94-3.92 5.93h-61.85c3.65-5.69 7.52-11.25 11.6-16.62a256.85 256.85 0 0 1 19.41-22.76z" fill="#db1b1b"/><path d="m102.12 118.18-1.1 1.75-.87 1.38a256 256 0 0 0 -14.73 27.37c-1.37 2.93-2.67 5.87-3.91 8.87h-61.89c1.24-3 2.54-5.94 3.91-8.88a256 256 0 0 1 14.73-27.37c.65-1 1.31-2.08 2-3.13z" fill="#fff"/><path d="m81.51 157.56q-4.37 10.44-7.8 21.34-2.8 8.87-5 18h-61.85q2.14-9.15 5-18 3.43-10.92 7.8-21.36z" fill="#db1b1b"/><path d="m69 200.93-1.41 1a253.88 253.88 0 0 0 -5 34.36h-61.84a254 254 0 0 1 6.11-39.38h61.89c-.06.27-.13.55-.19.81a1.82 1.82 0 0 1 .44 3.21z" fill="#fff"/><path d="m61.89 256q0 9.93.75 19.69h-61.89q-.75-9.75-.75-19.69v-12.75a1.79 1.79 0 0 0 .27.94c0-.69.06-1.38.1-2.06.1-1.95.23-3.88.38-5.82h61.89c-.15 1.94-.28 3.87-.38 5.82 0 .68-.07 1.37-.1 2.06a1.51 1.51 0 0 1 -.2-.45c0-.09 0-.17-.05-.25a1.79 1.79 0 0 1 0-.24z" fill="#db1b1b"/><path d="m68.75 315.07h-61.89a253.79 253.79 0 0 1 -6.11-39.38h61.89a253.79 253.79 0 0 0 6.11 39.38z" fill="#dbdbdb"/><path d="m81.51 354.44h-61.89a251.76 251.76 0 0 1 -12.76-39.37h61.89a251.76 251.76 0 0 0 12.76 39.37z" fill="#c11a1a"/><path d="m102.12 393.82h-61.89a254 254 0 0 1 -20.61-39.38h61.89a254 254 0 0 0 20.61 39.38z" fill="#dbdbdb"/><path d="m133.13 433.2h-61.89a257.46 257.46 0 0 1 -31-39.38h61.89a257.46 257.46 0 0 0 31 39.38z" fill="#c11a1a"/><path d="m181.35 472.58h-61.89a257.16 257.16 0 0 1 -48.22-39.38h61.89a257.16 257.16 0 0 0 48.22 39.38z" fill="#dbdbdb"/><path d="m287 510.14a253.08 253.08 0 0 1 -26 1.86h-10a254.44 254.44 0 0 1 -131.58-39.37h61.89a254.13 254.13 0 0 0 105.69 37.51z" fill="#c11a1a"/><path d="m275 .7v2.88a253.72 253.72 0 0 0 -76.15 25.74c-.86.44-1.71.91-2.56 1.36q-7.64 4.13-14.94 8.75-7.62 4.78-14.85 10.12c-1.13.82-2.25 1.66-3.37 2.51-4.33 3.3-8.54 6.71-12.64 10.27-.73.61-1.45 1.24-2.17 1.88-4.58 4.05-9 8.28-13.28 12.64l1.44 1a1.8 1.8 0 0 1 .66.92h-4a257.94 257.94 0 0 0 -17.7 20.51l-1.71 2.24c-.93 1.23-1.85 2.46-2.76 3.71l-1.87 5.77a1.82 1.82 0 0 1 -1.73 1.26h-1.37c-1.34 2-2.64 3.94-3.92 5.93l-1.1 1.75-.87 1.38a256 256 0 0 0 -14.73 27.37c-1.37 2.93-2.67 5.87-3.91 8.87q-4.33 10.44-7.76 21.34-2.8 8.87-5 18c-.06.27-.13.55-.19.81a1.82 1.82 0 0 1 .47 3.19l-1.41 1a253.88 253.88 0 0 0 -5 34.36c-.15 1.94-.28 3.87-.38 5.82 0 .68-.07 1.37-.1 2.06a1.51 1.51 0 0 1 -.2-.45c0-.09 0-.17-.05-.25a1.79 1.79 0 0 1 0-.24v12.8q0 9.93.75 19.69h-61.85q-.75-9.75-.75-19.69v-12.75a1.79 1.79 0 0 0 .27.94c0-.69.06-1.38.1-2.06.1-1.95.23-3.88.38-5.82a254 254 0 0 1 6.11-39.38q2.14-9.15 5-18 3.43-10.92 7.8-21.36c1.24-3 2.54-5.94 3.91-8.88a256 256 0 0 1 14.73-27.37c.65-1 1.31-2.08 2-3.13 3.65-5.69 7.52-11.25 11.6-16.62a256.85 256.85 0 0 1 19.34-22.76c.24-.26.49-.51.74-.77q7-7.2 14.45-13.83 7.17-6.33 14.81-12.15c5.88-4.46 12-8.69 18.22-12.63q7.31-4.62 14.94-8.75a254.37 254.37 0 0 1 117.19-30.63h8.82c4.9.07 9.76.3 14.59.65z" fill="#32314b"/><path d="m123.82 39.43a1.86 1.86 0 0 0 0 1l3.51 10.76a1.82 1.82 0 0 1 -2.8 2l-9.17-6.65a1.82 1.82 0 0 0 -2.13 0l-9.17 6.65a1.81 1.81 0 0 1 -2.86-1.15c5.88-4.46 12-8.69 18.22-12.63q7.31-4.62 14.94-8.75a1.83 1.83 0 0 1 -.71 1l-9.17 6.66a1.85 1.85 0 0 0 -.66 1.11z" fill="#dbdbdb"/><path d="m115.43 99.32-1.71 2.24c-.93 1.23-1.85 2.46-2.76 3.71l1.64-5a1.82 1.82 0 0 1 2.83-.95z" fill="#dbdbdb"/><path d="m69 115.55-3.63 2.63-5.54 4a1.82 1.82 0 0 0 -.66 2l3.53 10.82a1.83 1.83 0 0 1 -2.8 2l-9.16-6.67a1.83 1.83 0 0 0 -2.14 0l-9.17 6.67a1.83 1.83 0 0 1 -2.8-2l3.51-10.77a1.85 1.85 0 0 0 -.66-2l-1.22-.89c.65-1 1.31-2.08 2-3.13 3.65-5.69 7.52-11.25 11.6-16.62l3.04 9.41a1.82 1.82 0 0 0 1.73 1.26h11.37a1.83 1.83 0 0 1 1 3.29z" fill="#dbdbdb"/><path d="m69 200.93-1.41 1-7.76 5.65a1.78 1.78 0 0 0 -.66 2l3.5 10.77a1.82 1.82 0 0 1 -2.8 2l-9.16-6.66a1.83 1.83 0 0 0 -2.14 0l-9.17 6.66a1.82 1.82 0 0 1 -2.8-2l3.51-10.77a1.81 1.81 0 0 0 -.66-2l-9.17-6.67a1.82 1.82 0 0 1 1.07-3.29h11.36a1.82 1.82 0 0 0 1.44-.71 2.06 2.06 0 0 0 .29-.55l3.5-10.77a1.82 1.82 0 0 1 3.46 0l3.5 10.77a2.06 2.06 0 0 0 .29.55 1.82 1.82 0 0 0 1.44.71h11.37a1.89 1.89 0 0 1 .6.1 1.82 1.82 0 0 1 .4 3.21z" fill="#dbdbdb"/><path d="m91.53 78.81a1.86 1.86 0 0 0 0 1.12l3.47 10.77a1.82 1.82 0 0 1 -2.79 2l-9.17-6.67a1.83 1.83 0 0 0 -2.14 0l-9.17 6.67a1.82 1.82 0 0 1 -2.79-2l3.5-10.77a1.86 1.86 0 0 0 0-1.12 1.65 1.65 0 0 0 -.44-.81q7-7.2 14.45-13.83l.8 2.47a1.82 1.82 0 0 0 1.75 1.3h11.33a1.83 1.83 0 0 1 1.07 3.3l-9.17 6.65a1.8 1.8 0 0 0 -.7.92z" fill="#dbdbdb"/><path d="m40.21 157.56a1.73 1.73 0 0 1 -.74 1.25l-9.17 6.67a1.83 1.83 0 0 0 -.66 2l3.5 10.78a1.81 1.81 0 0 1 -2.79 2l-9.17-6.65a1.77 1.77 0 0 0 -2.14 0l-7.22 5.25q3.43-10.92 7.8-21.36c1.24-3 2.54-5.94 3.91-8.88l1.81 5.59a1.83 1.83 0 0 0 1.73 1.27h11.33a1.82 1.82 0 0 1 1.81 2.08z" fill="#dbdbdb"/><path d="m30.3 251.37a1.81 1.81 0 0 0 -.66 2l3.5 10.79a1.81 1.81 0 0 1 -2.79 2l-9.17-6.65a1.8 1.8 0 0 0 -2.14 0l-9.16 6.69a1.81 1.81 0 0 1 -2.8-2l3.5-10.79a1.79 1.79 0 0 0 -.66-2l-9.17-6.71a1.78 1.78 0 0 1 -.48-.51c0-.69.06-1.38.1-2.06a1.74 1.74 0 0 1 1.45-.71h11.33a1.83 1.83 0 0 0 1.73-1.27l1.25-3.84 2.25-6.93a1.82 1.82 0 0 1 3.46 0l2.25 6.93 1.25 3.84a1.83 1.83 0 0 0 1.73 1.27h11.33a1.81 1.81 0 0 1 1.07 3.28z" fill="#dbdbdb"/><path d="m61.89 243.25a1.9 1.9 0 0 1 .37-1.12c0 .68-.07 1.37-.1 2.06a1.51 1.51 0 0 1 -.2-.45c0-.09 0-.17-.05-.25a1.79 1.79 0 0 1 -.02-.24z" fill="#fff"/><path d="m83.73 143.5 3.5 10.78a1.82 1.82 0 0 0 1.77 1.25h11.33a1.82 1.82 0 0 1 1.07 3.29l-9.17 6.66a1.81 1.81 0 0 0 -.66 2l3.43 10.81a1.81 1.81 0 0 1 -2.79 2l-9.17-6.66a1.83 1.83 0 0 0 -2.14 0l-9.17 6.66a1.81 1.81 0 0 1 -2.79-2l3.5-10.78a1.81 1.81 0 0 0 -.66-2l-9.17-6.66a1.82 1.82 0 0 1 1.07-3.29h11.32a1.82 1.82 0 0 0 1.73-1.25l3.5-10.78a1.82 1.82 0 0 1 3.5-.03z" fill="#fff"/><path d="m85.42 148.68c-1.37 2.93-2.67 5.87-3.91 8.87q-4.37 10.45-7.8 21.35l-1.95 1.4a1.81 1.81 0 0 1 -2.79-2l3.5-10.78a1.81 1.81 0 0 0 -.66-2l-9.17-6.67a1.73 1.73 0 0 1 -.74-1.25 1.82 1.82 0 0 1 1.81-2h11.29a1.83 1.83 0 0 0 1.73-1.27l3.5-10.78a1.82 1.82 0 0 1 3.46 0z" fill="#dbdbdb"/><path d="m116.06 100.22 3.5 10.78a1.82 1.82 0 0 0 1.73 1.25h11.33a1.82 1.82 0 0 1 1.07 3.29l-9.17 6.66a1.83 1.83 0 0 0 -.66 2l3.51 10.8a1.82 1.82 0 0 1 -2.8 2l-9.17-6.66a1.82 1.82 0 0 0 -2.13 0l-9.17 6.66a1.82 1.82 0 0 1 -2.8-2l3.5-10.78a1.8 1.8 0 0 0 -.66-2l-9.14-6.68a1.82 1.82 0 0 1 1-3.29h11.33a1.81 1.81 0 0 0 1.77-1.25l3.5-10.78a1.82 1.82 0 0 1 3.46 0z" fill="#fff"/><path d="m96 112.25h10c-1.34 2-2.64 3.94-3.92 5.93l-1.1 1.75-2.42-1.75-3.56-2.63a1.83 1.83 0 0 1 1-3.3z" fill="#dbdbdb"/><path d="m148.4 55.91 3.5 10.78a1.81 1.81 0 0 0 1.73 1.25h11.37a1.82 1.82 0 0 1 1 3.29l-9.17 6.66a1.8 1.8 0 0 0 -.66 2l3.5 10.78a1.82 1.82 0 0 1 -2.8 2l-9.16-6.66a1.83 1.83 0 0 0 -2.14 0l-9.17 6.66a1.82 1.82 0 0 1 -2.8-2l3.51-10.78a1.83 1.83 0 0 0 -.66-2l-9.17-6.66a1.82 1.82 0 0 1 1.07-3.29h11.33a1.82 1.82 0 0 0 1.73-1.25l3.5-10.78a1.82 1.82 0 0 1 3.49 0z" fill="#fff"/><path d="m150.49 62.33c-.73.61-1.45 1.24-2.17 1.88-4.58 4.05-9 8.28-13.28 12.64l-7.73-5.61a1.82 1.82 0 0 1 1.07-3.3h11.33a1.83 1.83 0 0 0 1.73-1.26l3.5-10.76a1.82 1.82 0 0 1 3.46 0z" fill="#dbdbdb"/><path d="m180.73 16.4 3.5 10.77a1.82 1.82 0 0 0 1.77 1.26h11.33a1.82 1.82 0 0 1 1.07 3.29l-9.17 6.66a1.81 1.81 0 0 0 -.66 2l3.43 10.81a1.81 1.81 0 0 1 -2.79 2l-9.17-6.66a1.83 1.83 0 0 0 -2.14 0l-9.17 6.66a1.81 1.81 0 0 1 -2.79-2l3.5-10.78a1.81 1.81 0 0 0 -.66-2l-9.17-6.66a1.82 1.82 0 0 1 1.07-3.29h11.32a1.82 1.82 0 0 0 1.73-1.26l3.5-10.77a1.82 1.82 0 0 1 3.5-.03z" fill="#fff"/><path d="m198.85 29.32c-.86.44-1.71.91-2.56 1.36q-7.64 4.13-14.94 8.75-7.62 4.78-14.85 10.12l3-9.13a1.86 1.86 0 0 0 0-1 1.82 1.82 0 0 0 -.7-1.06l-9.17-6.66a1.81 1.81 0 0 1 1.07-3.28h11.3a1.81 1.81 0 0 0 1.73-1.25l3.5-10.79a1.82 1.82 0 0 1 3.46 0l3.5 10.79a1.81 1.81 0 0 0 1.81 1.26h11.33a1.77 1.77 0 0 1 1.52.89z" fill="#dbdbdb"/><circle cx="481.31" cy="255.91" fill="#e54141" r="16.28"/><circle cx="447.4" cy="255.91" fill="#e54141" r="11.53"/></g></svg>