<svg height="512" viewBox="0 0 512 512" width="512" xmlns="http://www.w3.org/2000/svg"><g id="BULINE"><circle cx="256" cy="256" fill="#fcc8bc" r="256"/></g><g id="Icons"><path d="m483.68 373.14a256.09 256.09 0 0 1 -455.36 0z" fill="#db1b1b"/><path d="m483.68 138.87h-455.36a256.08 256.08 0 0 1 455.36 0z" fill="#db1b1b"/><path d="m512 256a254.86 254.86 0 0 1 -28.32 117.14h-455.36a256.4 256.4 0 0 1 0-234.27h455.36a254.82 254.82 0 0 1 28.32 117.13z" fill="#f7bb38"/><path d="m294 509.2a258.79 258.79 0 0 1 -38 2.8 256 256 0 0 1 -227.68-138.86h76a256.24 256.24 0 0 0 189.68 136.06z" fill="#c11a1a"/><path d="m294 2.8a256.25 256.25 0 0 0 -189.68 136.07h-76a256 256 0 0 1 227.68-138.87 258.79 258.79 0 0 1 38 2.8z" fill="#c11a1a"/><path d="m76 256a254.86 254.86 0 0 0 28.32 117.14h-76a256.4 256.4 0 0 1 0-234.27h76a254.82 254.82 0 0 0 -28.32 117.13z" fill="#e0a327"/><g fill="#f6d372"><circle cx="467.4" cy="267.05" r="16.28"/><circle cx="467.4" cy="233.14" r="11.53"/></g></g></svg>