<svg width="80" height="80" viewBox="0 0 80 80" fill="none" xmlns="http://www.w3.org/2000/svg">
<path d="M79.5 40C79.5 61.8153 61.8153 79.5 40 79.5C18.1848 79.5 0.5 61.8153 0.5 40C0.5 18.1848 18.1848 0.5 40 0.5C61.8153 0.5 79.5 18.1848 79.5 40Z" stroke="#5166D5"/>
<path d="M52.3745 27.6364C50.7524 25.9982 48.8226 24.6967 46.696 23.8066C44.5694 22.9166 42.2879 22.4554 39.9825 22.4498C37.6771 22.4441 35.3933 22.894 33.2623 23.7736C31.1314 24.6532 29.1952 25.9452 27.565 27.5753C25.9349 29.2055 24.6429 31.1417 23.7633 33.2727C22.8837 35.4036 22.4338 37.6874 22.4395 39.9928C22.4451 42.2982 22.9063 44.5797 23.7964 46.7063C24.6864 48.8329 25.9879 50.7627 27.6261 52.3848C29.2482 54.023 31.178 55.3245 33.3046 56.2146C35.4313 57.1047 37.7128 57.5658 40.0182 57.5715C42.3235 57.5772 44.6073 57.1273 46.7383 56.2477C48.8693 55.3681 50.8054 54.0761 52.4356 52.4459C54.0657 50.8158 55.3577 48.8796 56.2373 46.7486C57.117 44.6176 57.5669 42.3338 57.5612 40.0285C57.5555 37.7231 57.0944 35.4416 56.2043 33.3149C55.3142 31.1883 54.0127 29.2585 52.3745 27.6364ZM25.0003 40.0106C24.9998 38.6831 25.1758 37.3613 25.5238 36.0802C26.0972 37.3145 26.93 38.3809 27.4964 39.6473C28.2284 41.2755 30.1941 40.8239 31.062 42.2505C31.8324 43.5169 31.0097 45.1184 31.5863 46.4434C32.005 47.4052 32.9925 47.6153 33.6738 48.3184C34.3699 49.0278 34.355 49.9997 34.4613 50.9247C34.5812 52.0115 34.7756 53.0888 35.0433 54.1489C35.0433 54.1567 35.0433 54.1653 35.0495 54.1731C29.2034 52.12 25.0003 46.5473 25.0003 40.0106ZM40.0003 55.0106C39.1626 55.0104 38.3264 54.9403 37.5003 54.8013C37.5089 54.5895 37.5128 54.3919 37.5339 54.2544C37.7238 53.0122 38.3456 51.7973 39.1847 50.8677C40.0136 49.9505 41.1495 49.3302 41.8495 48.2895C42.5355 47.2739 42.7409 45.9067 42.4581 44.72C42.0417 42.9669 39.6597 42.3817 38.3753 41.4309C37.637 40.8841 36.98 40.0387 36.0105 39.97C35.5636 39.9387 35.1894 40.0348 34.7464 39.9208C34.3402 39.8153 34.0214 39.5966 33.5886 39.6536C32.78 39.7598 32.2699 40.6239 31.4011 40.5067C30.5769 40.3966 29.7277 39.4317 29.5402 38.6466C29.2995 37.6372 30.098 37.3098 30.9534 37.22C31.3105 37.1825 31.7113 37.1419 32.0542 37.2731C32.5058 37.4403 32.7191 37.8825 33.1245 38.1059C33.8847 38.5231 34.0386 37.8567 33.9222 37.1817C33.748 36.1708 33.5449 35.7591 34.4464 35.063C35.0714 34.5833 35.6058 34.2364 35.5058 33.3747C35.4464 32.8684 35.1691 32.6395 35.4277 32.1356C35.6238 31.752 36.162 31.4059 36.5128 31.177C37.4183 30.5864 40.3917 30.6302 39.1769 28.977C38.8199 28.4919 38.1613 27.6247 37.5363 27.5059C36.755 27.3583 36.4081 28.2302 35.8636 28.6145C35.3011 29.0122 34.2058 29.4637 33.6425 28.8489C32.8847 28.0216 34.1449 27.7505 34.4238 27.1723C34.5527 26.9028 34.4238 26.5286 34.2066 26.1762C34.4883 26.0575 34.7748 25.9473 35.0659 25.8458C35.2484 25.9805 35.4649 26.0617 35.6909 26.0802C36.2136 26.1145 36.7066 25.8317 37.1628 26.188C37.6691 26.5786 38.0339 27.0723 38.7058 27.1942C39.3558 27.3122 40.0441 26.9333 40.205 26.2677C40.3027 25.863 40.205 25.4356 40.1113 25.0177C43.0331 25.0345 45.8857 25.9095 48.3144 27.5341C48.1581 27.4747 47.9714 27.4817 47.7409 27.5887C47.2667 27.8091 46.5949 28.37 46.5394 28.9262C46.4761 29.5575 47.4073 29.6466 47.8495 29.6466C48.5136 29.6466 49.1863 29.3497 48.9722 28.5825C48.8792 28.2497 48.7527 27.9036 48.5488 27.6942C49.0389 28.0343 49.5085 28.4032 49.955 28.7989C49.948 28.8059 49.9409 28.8122 49.9339 28.82C49.4839 29.2887 48.9613 29.6598 48.6534 30.2302C48.4363 30.6317 48.1917 30.8223 47.7519 30.9262C47.5097 30.9833 47.2331 31.0044 47.03 31.1669C46.4644 31.6122 46.7863 32.6825 47.3222 33.0036C47.9995 33.4091 49.0042 33.2184 49.5152 32.6395C49.9144 32.1864 50.1495 31.3997 50.8675 31.4005C51.1836 31.3998 51.4872 31.5236 51.7128 31.745C52.0097 32.0528 51.9511 32.3403 52.0144 32.7247C52.1261 33.4075 52.7284 33.0372 53.0948 32.6927C53.3619 33.168 53.6029 33.6575 53.8167 34.1591C53.4136 34.7395 53.0933 35.3723 52.1238 34.6958C51.5433 34.2903 51.1863 33.702 50.4573 33.5192C49.8206 33.363 49.1683 33.5255 48.5394 33.6341C47.8245 33.7583 46.9769 33.813 46.4347 34.3544C45.9105 34.8762 45.6331 35.5747 45.0753 36.0989C43.9964 37.1145 43.5409 38.2231 44.2394 39.6591C44.9113 41.0395 46.3167 41.7887 47.8331 41.6903C49.323 41.5911 50.8706 40.727 50.8277 42.8919C50.812 43.6583 50.9722 44.1888 51.2073 44.9005C51.4253 45.5567 51.4105 46.1927 51.4605 46.87C51.508 47.6632 51.632 48.4499 51.8308 49.2192C50.4305 51.0222 48.6366 52.4812 46.5862 53.485C44.5359 54.4887 42.2832 55.0105 40.0003 55.0106Z" fill="url(#paint0_linear)"/>
<defs>
<linearGradient id="paint0_linear" x1="40.0004" y1="22.4497" x2="40.0004" y2="57.5715" gradientUnits="userSpaceOnUse">
<stop stop-color="#3D4DA1"/>
<stop offset="0.994792" stop-color="#5166D5"/>
</linearGradient>
</defs>
</svg>
