<svg width="80" height="80" viewBox="0 0 80 80" fill="none" xmlns="http://www.w3.org/2000/svg">
<path d="M79.5 40C79.5 61.8153 61.8153 79.5 40 79.5C18.1848 79.5 0.5 61.8153 0.5 40C0.5 18.1848 18.1848 0.5 40 0.5C61.8153 0.5 79.5 18.1848 79.5 40Z" stroke="#5166D5"/>
<path d="M45.9876 25.0453C44.4673 23.4039 42.3439 22.5 40.0001 22.5C37.6439 22.5 35.5134 23.3984 34.0001 25.0297C32.4704 26.6789 31.7251 28.9203 31.9001 31.3406C32.247 36.1156 35.8806 40 40.0001 40C44.1196 40 47.747 36.1164 48.0993 31.3422C48.2767 28.9437 47.5267 26.707 45.9876 25.0453Z" fill="url(#paint0_linear)"/>
<path d="M53.7505 57.5H26.2505C25.8905 57.5047 25.5341 57.4291 25.207 57.2786C24.88 57.1282 24.5906 56.9068 24.3599 56.6305C23.8521 56.0234 23.6474 55.1945 23.7989 54.3562C24.4583 50.6984 26.5161 47.6258 29.7505 45.4687C32.6239 43.5539 36.2638 42.5 40.0005 42.5C43.7372 42.5 47.3771 43.5547 50.2505 45.4687C53.4849 47.625 55.5426 50.6977 56.202 54.3555C56.3535 55.1937 56.1489 56.0227 55.6411 56.6297C55.4105 56.9062 55.1211 57.1277 54.7941 57.2783C54.467 57.4288 54.1105 57.5046 53.7505 57.5Z" fill="url(#paint1_linear)"/>
<defs>
<linearGradient id="paint0_linear" x1="39.9999" y1="22.5" x2="39.9999" y2="40" gradientUnits="userSpaceOnUse">
<stop stop-color="#3D4DA1"/>
<stop offset="1" stop-color="#5166D5"/>
</linearGradient>
<linearGradient id="paint1_linear" x1="40.0005" y1="42.5" x2="40.0005" y2="57.5002" gradientUnits="userSpaceOnUse">
<stop stop-color="#3D4DA1"/>
<stop offset="1" stop-color="#5166D5"/>
</linearGradient>
</defs>
</svg>
