<svg width="50" height="50" viewBox="0 0 50 50" fill="none" xmlns="http://www.w3.org/2000/svg">
<g clip-path="url(#clip0)">
<path d="M25.4921 49.9999C25.3265 49.9999 25.161 49.9999 24.9943 49.9991C21.0751 50.0087 17.4538 49.9091 13.932 49.6947C10.7033 49.4983 7.75604 48.3825 5.40848 46.4682C3.14331 44.6212 1.59645 42.1237 0.811005 39.046C0.127411 36.3665 0.0911713 33.7363 0.0564575 31.1923C0.0312805 29.3669 0.00534058 27.204 0 25.0045C0.00534058 22.7957 0.0312805 20.6328 0.0564575 18.8075C0.0911713 16.2638 0.127411 13.6336 0.811005 10.9538C1.59645 7.87607 3.14331 5.37859 5.40848 3.53151C7.75604 1.61729 10.7033 0.501493 13.9324 0.305036C17.4541 0.0910311 21.0762 -0.00891409 25.0038 0.000622668C28.9242 -0.00776967 32.5443 0.0910311 36.0661 0.305036C39.2948 0.501493 42.2421 1.61729 44.5896 3.53151C46.8552 5.37859 48.4016 7.87607 49.1871 10.9538C49.8707 13.6332 49.9069 16.2638 49.9416 18.8075C49.9668 20.6328 49.9931 22.7957 49.9981 24.9953V25.0045C49.9931 27.204 49.9668 29.3669 49.9416 31.1923C49.9069 33.7359 49.8711 36.3662 49.1871 39.046C48.4016 42.1237 46.8552 44.6212 44.5896 46.4682C42.2421 48.3825 39.2948 49.4983 36.0661 49.6947C32.6935 49.8999 29.229 49.9999 25.4921 49.9999ZM24.9943 46.0929C28.8498 46.102 32.3898 46.0048 35.8288 45.7957C38.2702 45.6473 40.387 44.855 42.1211 43.4409C43.7241 42.1336 44.828 40.33 45.4021 38.0801C45.9713 35.8496 46.0041 33.4548 46.0358 31.1389C46.0606 29.3257 46.0865 27.1781 46.0918 24.9999C46.0865 22.8213 46.0606 20.674 46.0358 18.8609C46.0041 16.545 45.9713 14.1501 45.4021 11.9193C44.828 9.66936 43.7241 7.86577 42.1211 6.55847C40.387 5.14475 38.2702 4.35243 35.8288 4.20404C32.3898 3.99461 28.8498 3.8981 25.0034 3.90649C21.1487 3.89734 17.6083 3.99461 14.1693 4.20404C11.7279 4.35243 9.61113 5.14475 7.87697 6.55847C6.27403 7.86577 5.17006 9.66936 4.59595 11.9193C4.02679 14.1501 3.99399 16.5446 3.96233 18.8609C3.93753 20.6755 3.91159 22.8244 3.90625 25.0045C3.91159 27.175 3.93753 29.3242 3.96233 31.1389C3.99399 33.4548 4.02679 35.8496 4.59595 38.0801C5.17006 40.33 6.27403 42.1336 7.87697 43.4409C9.61113 44.8546 11.7279 45.6469 14.1693 45.7953C17.6083 46.0048 21.1494 46.1024 24.9943 46.0929ZM24.9012 37.2069C18.1705 37.2069 12.6942 31.7309 12.6942 24.9999C12.6942 18.2688 18.1705 12.7928 24.9012 12.7928C31.6322 12.7928 37.1082 18.2688 37.1082 24.9999C37.1082 31.7309 31.6322 37.2069 24.9012 37.2069ZM24.9012 16.6991C20.3243 16.6991 16.6004 20.423 16.6004 24.9999C16.6004 29.5768 20.3243 33.3007 24.9012 33.3007C29.4785 33.3007 33.202 29.5768 33.202 24.9999C33.202 20.423 29.4785 16.6991 24.9012 16.6991ZM38.4754 8.88658C36.8576 8.88658 35.5457 10.1981 35.5457 11.8163C35.5457 13.4345 36.8576 14.746 38.4754 14.746C40.0936 14.746 41.4051 13.4345 41.4051 11.8163C41.4051 10.1981 40.0936 8.88658 38.4754 8.88658Z" fill="white"/>
</g>
<defs>
<clipPath id="clip0">
<rect width="50" height="50" fill="white"/>
</clipPath>
</defs>
</svg>
