<svg width="50" height="50" viewBox="0 0 50 50" fill="none" xmlns="http://www.w3.org/2000/svg">
<g clip-path="url(#clip0)">
<path d="M15.6258 41.3086H8.78983V19.2383H15.6258V41.3086ZM16.3078 12.2066C16.3078 9.9968 14.5149 8.20312 12.3062 8.20312C10.0891 8.20312 8.30078 9.9968 8.30078 12.2066C8.30078 14.4173 10.0891 16.2109 12.3062 16.2109C14.5149 16.2109 16.3078 14.4173 16.3078 12.2066ZM41.2109 29.1664C41.2109 23.2418 39.9593 18.8477 33.0383 18.8477C29.7127 18.8477 27.4803 20.5109 26.569 22.2404H26.5625V19.2383H19.9219V41.3086H26.5625V30.3505C26.5625 27.4807 27.293 24.7005 30.8502 24.7005C34.359 24.7005 34.4727 27.9823 34.4727 30.5328V41.3086H41.2109V29.1664ZM50 44.1406V5.85938C50 2.62833 47.3717 0 44.1406 0H5.85938C2.62833 0 0 2.62833 0 5.85938V44.1406C0 47.3717 2.62833 50 5.85938 50H44.1406C47.3717 50 50 47.3717 50 44.1406ZM44.1406 3.90625C45.2175 3.90625 46.0938 4.78249 46.0938 5.85938V44.1406C46.0938 45.2175 45.2175 46.0938 44.1406 46.0938H5.85938C4.78249 46.0938 3.90625 45.2175 3.90625 44.1406V5.85938C3.90625 4.78249 4.78249 3.90625 5.85938 3.90625H44.1406Z" fill="white"/>
</g>
<defs>
<clipPath id="clip0">
<rect width="50" height="50" fill="white"/>
</clipPath>
</defs>
</svg>
