<svg width="303" height="106" viewBox="0 0 303 106" fill="none" xmlns="http://www.w3.org/2000/svg">
<path d="M9.86499 25.3936L42.0079 3.06122L73.3854 25.3936V64.6677L42.0079 87L9.86499 64.6677V25.3936Z" stroke="white" stroke-width="2"/>
<path d="M63.9474 65.2146L42.0845 78.7565V51.0674L63.9474 65.2146Z" fill="white"/>
<path d="M42 45.6459L74 65.2495L73.4179 25L42 45.6459Z" fill="white"/>
<path d="M42 45.6459L10 65.2495L10.5821 25L42 45.6459Z" fill="white"/>
<path d="M100.681 31.3837H87.2449V24.1133H123.306V31.3837H109.754V65.8163H100.681V31.3837ZM127.56 24.0551H140.472L151.116 56.1031L161.76 24.0551H174.614V65.8163H166.006L166.704 33.3031L156.002 65.8163H146.696L135.645 32.9541L136.517 65.8163H127.56V24.0551ZM199.802 65.8163C197.164 65.8163 194.683 65.6224 192.357 65.2347C190.068 64.8081 187.955 63.5674 186.017 61.5123C184.348 59.7674 183.302 57.8092 182.876 55.6378C182.449 53.4663 182.236 51.2368 182.236 48.949V24.0551H191.019V46.9714C190.979 50.8489 191.406 53.8153 192.298 55.8704C193.189 57.9256 195.943 58.9531 200.558 58.9531L210.911 58.8949V65.8163H199.802ZM223.105 38.6541C222.833 39.701 222.64 40.7674 222.523 41.8531C222.407 42.9 222.349 43.9469 222.349 44.9939C222.349 46.0795 222.407 47.1654 222.523 48.251C222.678 49.298 222.872 50.3255 223.105 51.3337C223.531 53.1173 224.229 54.6684 225.199 55.9867C226.206 57.3051 227.602 58.2746 229.387 58.8949C230.045 59.1276 230.743 59.302 231.481 59.4184C232.217 59.5347 232.953 59.5929 233.691 59.5929C234.427 59.5929 235.163 59.5347 235.901 59.4184C236.637 59.302 237.335 59.1276 237.995 58.8949C239.778 58.2746 241.174 57.3051 242.183 55.9867C243.19 54.6684 243.888 53.1173 244.277 51.3337C244.509 50.3255 244.684 49.298 244.8 48.251C244.955 47.1654 245.033 46.0795 245.033 44.9939C245.033 43.9469 244.955 42.9 244.8 41.8531C244.684 40.7674 244.509 39.7205 244.277 38.7123C243.888 36.9286 243.19 35.3775 242.183 34.0592C241.174 32.702 239.778 31.7327 237.995 31.151C237.335 30.9184 236.637 30.7439 235.901 30.6276C235.163 30.5112 234.427 30.4531 233.691 30.4531C232.953 30.4531 232.217 30.5112 231.481 30.6276C230.743 30.7439 230.045 30.9184 229.387 31.151C227.602 31.7714 226.226 32.7409 225.257 34.0592C224.287 35.3775 223.57 36.9286 223.105 38.7123V38.6541ZM214.032 35.6878C215.039 32.6245 216.513 30.1428 218.452 28.2429C220.43 26.304 223.007 24.9276 226.188 24.1133C227.351 23.8419 228.553 23.6285 229.794 23.4735C231.034 23.3184 232.275 23.2408 233.516 23.2408C234.834 23.2021 236.172 23.2603 237.53 23.4153C238.886 23.5704 240.185 23.8225 241.427 24.1714C244.528 24.947 247.068 26.304 249.046 28.2429C251.023 30.1817 252.478 32.6827 253.408 35.7459C253.795 37.1418 254.086 38.6154 254.281 40.1663C254.513 41.7173 254.63 43.2684 254.63 44.8194C254.63 46.4867 254.532 48.1153 254.339 49.7051C254.144 51.295 253.834 52.8072 253.408 54.2418C252.478 57.3827 251.004 59.9224 248.988 61.8612C246.97 63.7612 244.373 65.0797 241.194 65.8163C239.953 66.1266 238.673 66.3398 237.355 66.4561C236.036 66.6112 234.698 66.6888 233.342 66.6888C232.139 66.6888 230.937 66.6112 229.736 66.4561C228.533 66.3011 227.351 66.0877 226.188 65.8163C223.047 65.0797 220.468 63.7612 218.452 61.8612C216.435 59.9224 214.962 57.3827 214.032 54.2418C213.643 52.8847 213.334 51.4113 213.101 49.8214C212.907 48.2316 212.81 46.6225 212.81 44.9939C212.81 43.3653 212.907 41.7562 213.101 40.1663C213.294 38.5378 213.605 37.0642 214.032 35.7459V35.6878ZM275.709 48.4255V41.0388H296.473V65.8163H277.57C275.167 65.8163 272.841 65.6224 270.591 65.2347C268.342 64.8081 266.249 63.8001 264.309 62.2102C261.983 60.3103 260.354 58.003 259.423 55.2888C258.493 52.5357 257.989 49.7245 257.911 46.8551C257.873 46.2348 257.853 45.6337 257.853 45.052C257.893 44.4704 257.931 43.8888 257.969 43.3072C258.396 36.7153 260.18 31.8684 263.32 28.7663C266.501 25.6642 271.251 24.1133 277.57 24.1133L296.473 24.0551V31.2674H277.57C273.422 31.3061 270.727 32.7796 269.486 35.6878C268.284 38.5572 267.683 41.7173 267.683 45.1684C267.683 45.2071 267.683 45.246 267.683 45.2847C267.683 45.2847 267.683 45.3041 267.683 45.3429C267.683 48.8714 268.284 51.9153 269.486 54.4745C270.727 57.0337 273.422 58.3133 277.57 58.3133L287.458 58.2551V48.4255H275.709Z" fill="white"/>
<mask id="mask0_2_14" style="mask-type:alpha" maskUnits="userSpaceOnUse" x="119" y="74" width="149" height="18">
<path d="M267.965 74.7653H119.965V91.7653H267.965V74.7653Z" fill="white"/>
<path d="M121.884 87.2449H120.965V76.3632H121.884V87.2449ZM125.486 79.1584L125.516 80.541C125.82 80.0427 126.199 79.6641 126.652 79.4049C127.106 79.1409 127.606 79.0088 128.154 79.0088C129.021 79.0088 129.667 79.253 130.09 79.7414C130.514 80.2296 130.728 80.962 130.733 81.9386V87.2449H129.844V81.9311C129.838 81.2086 129.684 80.6706 129.38 80.3167C129.081 79.963 128.6 79.7862 127.938 79.7862C127.385 79.7862 126.894 79.9606 126.465 80.3094C126.042 80.6532 125.728 81.1189 125.524 81.7068V87.2449H124.634V79.1584H125.486ZM134.44 77.0882V79.1584H136.114V79.8908H134.44V85.2793C134.44 85.7278 134.52 86.0616 134.679 86.2808C134.843 86.4999 135.115 86.6097 135.494 86.6097C135.643 86.6097 135.885 86.5847 136.219 86.5348L136.256 87.2672C136.022 87.352 135.703 87.3944 135.299 87.3944C134.686 87.3944 134.241 87.2175 133.961 86.8638C133.682 86.505 133.543 85.9794 133.543 85.2868V79.8908H132.056V79.1584H133.543V77.0882H134.44ZM141.099 87.3944C140.411 87.3944 139.789 87.225 139.23 86.8861C138.677 86.5474 138.246 86.0766 137.937 85.4737C137.629 84.8657 137.474 84.1857 137.474 83.4334V83.1119C137.474 82.3347 137.624 81.6346 137.923 81.0118C138.226 80.389 138.647 79.9007 139.186 79.547C139.724 79.1882 140.307 79.0088 140.934 79.0088C141.916 79.0088 142.693 79.3453 143.266 80.0178C143.844 80.6855 144.133 81.5997 144.133 82.7607V83.2615H138.364V83.4334C138.364 84.35 138.625 85.1149 139.148 85.7278C139.676 86.3356 140.339 86.6395 141.136 86.6395C141.615 86.6395 142.035 86.5523 142.399 86.378C142.768 86.2036 143.102 85.9246 143.401 85.5409L143.961 85.9668C143.304 86.9186 142.349 87.3944 141.099 87.3944ZM140.934 79.7712C140.262 79.7712 139.694 80.0178 139.23 80.5111C138.772 81.0044 138.493 81.667 138.393 82.4991H143.244V82.4019C143.219 81.6246 142.997 80.9919 142.579 80.5036C142.16 80.0154 141.612 79.7712 140.934 79.7712ZM149.611 79.9206C149.422 79.8859 149.22 79.8684 149.006 79.8684C148.448 79.8684 147.975 80.0253 147.586 80.3392C147.202 80.6481 146.928 81.099 146.764 81.692V87.2449H145.875V79.1584H146.749L146.764 80.4438C147.237 79.4871 147.997 79.0088 149.043 79.0088C149.293 79.0088 149.489 79.0413 149.634 79.106L149.611 79.9206ZM151.883 79.1584L151.913 80.541C152.217 80.0427 152.596 79.6641 153.049 79.4049C153.502 79.1409 154.004 79.0088 154.552 79.0088C155.418 79.0088 156.064 79.253 156.487 79.7414C156.911 80.2296 157.125 80.962 157.13 81.9386V87.2449H156.24V81.9311C156.236 81.2086 156.081 80.6706 155.777 80.3167C155.478 79.963 154.997 79.7862 154.335 79.7862C153.782 79.7862 153.291 79.9606 152.862 80.3094C152.439 80.6532 152.125 81.1189 151.921 81.7068V87.2449H151.031V79.1584H151.883ZM164.552 87.2449C164.461 86.9908 164.405 86.6146 164.38 86.1164C164.065 86.5249 163.664 86.8413 163.176 87.0655C162.693 87.2847 162.179 87.3944 161.637 87.3944C160.86 87.3944 160.229 87.1777 159.745 86.7442C159.268 86.3106 159.028 85.7626 159.028 85.0999C159.028 84.3127 159.355 83.6899 160.007 83.2315C160.665 82.7732 161.579 82.5439 162.75 82.5439H164.372V81.6246C164.372 81.0467 164.192 80.5933 163.834 80.2645C163.48 79.9307 162.961 79.7637 162.279 79.7637C161.657 79.7637 161.141 79.9232 160.733 80.242C160.324 80.5609 160.119 80.9446 160.119 81.3931L159.222 81.3856C159.222 80.7429 159.522 80.1872 160.119 79.7189C160.717 79.2456 161.452 79.0088 162.324 79.0088C163.226 79.0088 163.936 79.2357 164.454 79.689C164.977 80.1373 165.246 80.7652 165.262 81.5723V85.3988C165.262 86.1811 165.343 86.7666 165.508 87.1552V87.2449H164.552ZM161.741 86.6022C162.34 86.6022 162.872 86.4577 163.341 86.1687C163.814 85.8797 164.158 85.4936 164.372 85.0102V83.2315H162.773C161.881 83.2414 161.183 83.406 160.681 83.7248C160.177 84.0387 159.924 84.4722 159.924 85.0252C159.924 85.4786 160.091 85.8548 160.427 86.1537C160.765 86.4527 161.203 86.6022 161.741 86.6022ZM169.042 77.0882V79.1584H170.717V79.8908H169.042V85.2793C169.042 85.7278 169.122 86.0616 169.283 86.2808C169.446 86.4999 169.717 86.6097 170.097 86.6097C170.247 86.6097 170.487 86.5847 170.822 86.5348L170.859 87.2672C170.625 87.352 170.307 87.3944 169.903 87.3944C169.29 87.3944 168.843 87.2175 168.565 86.8638C168.286 86.505 168.145 85.9794 168.145 85.2868V79.8908H166.659V79.1584H168.145V77.0882H169.042ZM173.571 87.2449H172.674V79.1584H173.571V87.2449ZM172.518 76.8191C172.518 76.6497 172.573 76.5076 172.682 76.3932C172.792 76.2735 172.942 76.2138 173.131 76.2138C173.32 76.2138 173.47 76.2735 173.579 76.3932C173.694 76.5076 173.752 76.6497 173.752 76.8191C173.752 76.9886 173.694 77.1305 173.579 77.2451C173.47 77.3597 173.32 77.417 173.131 77.417C172.942 77.417 172.792 77.3597 172.682 77.2451C172.573 77.1305 172.518 76.9886 172.518 76.8191ZM175.515 83.0821C175.515 82.3048 175.665 81.6047 175.964 80.9819C176.267 80.3591 176.694 79.8758 177.242 79.532C177.794 79.1833 178.42 79.0088 179.117 79.0088C180.194 79.0088 181.065 79.3875 181.733 80.1448C182.402 80.8973 182.735 81.8962 182.735 83.1418V83.3287C182.735 84.111 182.582 84.816 182.279 85.4437C181.981 86.0665 181.557 86.5474 181.009 86.8861C180.461 87.225 179.835 87.3944 179.132 87.3944C178.061 87.3944 177.19 87.0182 176.516 86.2659C175.849 85.5086 175.515 84.5071 175.515 83.2615V83.0821ZM176.412 83.3287C176.412 84.2952 176.662 85.0899 177.159 85.7128C177.663 86.3307 178.321 86.6395 179.132 86.6395C179.94 86.6395 180.592 86.3307 181.09 85.7128C181.593 85.0899 181.846 84.2703 181.846 83.254V83.0821C181.846 82.4642 181.731 81.8988 181.502 81.3856C181.272 80.8723 180.951 80.4762 180.537 80.1972C180.124 79.9133 179.651 79.7712 179.117 79.7712C178.321 79.7712 177.67 80.0851 177.167 80.7129C176.663 81.3357 176.412 82.1529 176.412 83.1643V83.3287ZM185.44 79.1584L185.47 80.541C185.773 80.0427 186.153 79.6641 186.606 79.4049C187.059 79.1409 187.56 79.0088 188.108 79.0088C188.976 79.0088 189.62 79.253 190.044 79.7414C190.468 80.2296 190.682 80.962 190.687 81.9386V87.2449H189.797V81.9311C189.793 81.2086 189.638 80.6706 189.334 80.3167C189.035 79.963 188.555 79.7862 187.892 79.7862C187.339 79.7862 186.848 79.9606 186.419 80.3094C185.995 80.6532 185.682 81.1189 185.478 81.7068V87.2449H184.589V79.1584H185.44ZM198.109 87.2449C198.018 86.9908 197.962 86.6146 197.936 86.1164C197.622 86.5249 197.221 86.8413 196.733 87.0655C196.249 87.2847 195.736 87.3944 195.193 87.3944C194.417 87.3944 193.786 87.1777 193.303 86.7442C192.825 86.3106 192.585 85.7626 192.585 85.0999C192.585 84.3127 192.911 83.6899 193.564 83.2315C194.222 82.7732 195.136 82.5439 196.307 82.5439H197.928V81.6246C197.928 81.0467 197.749 80.5933 197.391 80.2645C197.037 79.9307 196.518 79.7637 195.836 79.7637C195.213 79.7637 194.697 79.9232 194.29 80.242C193.881 80.5609 193.676 80.9446 193.676 81.3931L192.779 81.3856C192.779 80.7429 193.079 80.1872 193.676 79.7189C194.275 79.2456 195.009 79.0088 195.882 79.0088C196.783 79.0088 197.493 79.2357 198.011 79.689C198.534 80.1373 198.804 80.7652 198.819 81.5723V85.3988C198.819 86.1811 198.9 86.7666 199.065 87.1552V87.2449H198.109ZM195.298 86.6022C195.895 86.6022 196.43 86.4577 196.898 86.1687C197.371 85.8797 197.715 85.4936 197.928 85.0102V83.2315H196.33C195.438 83.2414 194.74 83.406 194.236 83.7248C193.734 84.0387 193.482 84.4722 193.482 85.0252C193.482 85.4786 193.648 85.8548 193.982 86.1537C194.322 86.4527 194.76 86.6022 195.298 86.6022ZM202.211 87.2449H201.314V75.7653H202.211V87.2449ZM209.506 86.4676H214.88V87.2449H208.578V76.3632H209.506V86.4676ZM215.948 83.0821C215.948 82.3048 216.098 81.6047 216.396 80.9819C216.699 80.3591 217.127 79.8758 217.675 79.532C218.227 79.1833 218.853 79.0088 219.549 79.0088C220.627 79.0088 221.498 79.3875 222.165 80.1448C222.834 80.8973 223.168 81.8962 223.168 83.1418V83.3287C223.168 84.111 223.015 84.816 222.712 85.4437C222.413 86.0665 221.989 86.5474 221.441 86.8861C220.893 87.225 220.267 87.3944 219.565 87.3944C218.493 87.3944 217.622 87.0182 216.949 86.2659C216.282 85.5086 215.948 84.5071 215.948 83.2615V83.0821ZM216.845 83.3287C216.845 84.2952 217.094 85.0899 217.592 85.7128C218.095 86.3307 218.754 86.6395 219.565 86.6395C220.373 86.6395 221.025 86.3307 221.524 85.7128C222.026 85.0899 222.279 84.2703 222.279 83.254V83.0821C222.279 82.4642 222.164 81.8988 221.934 81.3856C221.705 80.8723 221.383 80.4762 220.97 80.1972C220.557 79.9133 220.084 79.7712 219.549 79.7712C218.754 79.7712 218.103 80.0851 217.599 80.7129C217.096 81.3357 216.845 82.1529 216.845 83.1643V83.3287ZM224.662 83.1269C224.662 81.8613 224.942 80.8599 225.499 80.1225C226.062 79.3801 226.825 79.0088 227.786 79.0088C228.888 79.0088 229.725 79.4473 230.297 80.3242L230.342 79.1584H231.179V87.0805C231.179 88.1218 230.888 88.9465 230.305 89.5543C229.722 90.1621 228.932 90.4661 227.936 90.4661C227.372 90.4661 226.835 90.339 226.321 90.0849C225.813 89.8358 225.412 89.5019 225.118 89.0835L225.618 88.5453C226.252 89.3225 227.004 89.7112 227.876 89.7112C228.623 89.7112 229.206 89.4895 229.624 89.0461C230.043 88.6076 230.261 87.9972 230.275 87.215V86.1986C229.702 86.9957 228.868 87.3944 227.772 87.3944C226.835 87.3944 226.082 87.0207 225.514 86.2733C224.946 85.526 224.662 84.517 224.662 83.2465V83.1269ZM225.566 83.2838C225.566 84.3152 225.773 85.1299 226.186 85.7278C226.601 86.3207 227.183 86.617 227.936 86.617C229.036 86.617 229.817 86.1239 230.275 85.1372V81.3781C230.066 80.8599 229.765 80.4663 229.37 80.1972C228.977 79.9232 228.504 79.7862 227.951 79.7862C227.198 79.7862 226.613 80.0825 226.194 80.6755C225.776 81.2634 225.566 82.133 225.566 83.2838ZM234.513 87.2449H233.616V79.1584H234.513V87.2449ZM233.458 76.8191C233.458 76.6497 233.513 76.5076 233.623 76.3932C233.732 76.2735 233.882 76.2138 234.072 76.2138C234.26 76.2138 234.41 76.2735 234.52 76.3932C234.635 76.5076 234.692 76.6497 234.692 76.8191C234.692 76.9886 234.635 77.1305 234.52 77.2451C234.41 77.3597 234.26 77.417 234.072 77.417C233.882 77.417 233.732 77.3597 233.623 77.2451C233.513 77.1305 233.458 76.9886 233.458 76.8191ZM241.792 85.1896C241.792 84.7462 241.613 84.39 241.254 84.1209C240.9 83.8518 240.364 83.6426 239.646 83.4931C238.93 83.3386 238.371 83.1643 237.973 82.9699C237.579 82.7706 237.285 82.5289 237.09 82.245C236.902 81.9611 236.807 81.6171 236.807 81.2137C236.807 80.5759 237.073 80.0503 237.606 79.6367C238.14 79.2182 238.823 79.0088 239.654 79.0088C240.556 79.0088 241.278 79.2331 241.821 79.6815C242.369 80.1249 242.643 80.7054 242.643 81.4229H241.746C241.746 80.9495 241.547 80.556 241.149 80.242C240.756 79.9281 240.257 79.7712 239.654 79.7712C239.066 79.7712 238.593 79.9033 238.234 80.1673C237.88 80.4263 237.704 80.7652 237.704 81.1837C237.704 81.5873 237.851 81.9012 238.145 82.1255C238.443 82.3446 238.984 82.5464 239.766 82.7308C240.554 82.9151 241.142 83.1119 241.531 83.3212C241.924 83.5304 242.215 83.782 242.405 84.0761C242.594 84.3699 242.689 84.7263 242.689 85.1447C242.689 85.8274 242.412 86.3729 241.86 86.7816C241.312 87.1901 240.594 87.3944 239.706 87.3944C238.765 87.3944 237.999 87.1676 237.412 86.7142C236.83 86.2558 236.538 85.6779 236.538 84.9804H237.435C237.47 85.5035 237.689 85.912 238.093 86.2061C238.502 86.495 239.039 86.6395 239.706 86.6395C240.329 86.6395 240.833 86.5025 241.217 86.2284C241.6 85.9544 241.792 85.6082 241.792 85.1896ZM246.096 77.0882V79.1584H247.771V79.8908H246.096V85.2793C246.096 85.7278 246.176 86.0616 246.335 86.2808C246.501 86.4999 246.771 86.6097 247.151 86.6097C247.3 86.6097 247.541 86.5847 247.875 86.5348L247.913 87.2672C247.679 87.352 247.359 87.3944 246.957 87.3944C246.343 87.3944 245.897 87.2175 245.619 86.8638C245.339 86.505 245.2 85.9794 245.2 85.2868V79.8908H243.713V79.1584H245.2V77.0882H246.096ZM250.626 87.2449H249.729V79.1584H250.626V87.2449ZM249.572 76.8191C249.572 76.6497 249.628 76.5076 249.736 76.3932C249.846 76.2735 249.995 76.2138 250.185 76.2138C250.374 76.2138 250.523 76.2735 250.633 76.3932C250.748 76.5076 250.805 76.6497 250.805 76.8191C250.805 76.9886 250.748 77.1305 250.633 77.2451C250.523 77.3597 250.374 77.417 250.185 77.417C249.995 77.417 249.846 77.3597 249.736 77.2451C249.628 77.1305 249.572 76.9886 249.572 76.8191ZM256.052 86.6395C256.675 86.6395 257.195 86.4652 257.614 86.1164C258.037 85.7626 258.266 85.3067 258.302 84.7486H259.16C259.136 85.2419 258.981 85.6929 258.698 86.1014C258.413 86.505 258.035 86.8214 257.561 87.0505C257.092 87.2798 256.59 87.3944 256.052 87.3944C254.991 87.3944 254.149 87.0257 253.526 86.2883C252.908 85.5508 252.598 84.5593 252.598 83.3137V83.0447C252.598 82.2474 252.738 81.5424 253.018 80.9296C253.296 80.3167 253.694 79.8435 254.213 79.5096C254.737 79.1758 255.346 79.0088 256.044 79.0088C256.932 79.0088 257.662 79.273 258.234 79.8011C258.811 80.3293 259.12 81.0243 259.16 81.8862H258.302C258.262 81.2535 258.032 80.7429 257.614 80.3541C257.2 79.9655 256.678 79.7712 256.044 79.7712C255.237 79.7712 254.61 80.0626 254.161 80.6457C253.717 81.2285 253.495 82.0457 253.495 83.0969V83.3585C253.495 84.39 253.717 85.1946 254.161 85.7726C254.61 86.3506 255.24 86.6395 256.052 86.6395ZM265.797 85.1896C265.797 84.7462 265.618 84.39 265.26 84.1209C264.906 83.8518 264.37 83.6426 263.653 83.4931C262.935 83.3386 262.378 83.1643 261.978 82.9699C261.585 82.7706 261.291 82.5289 261.096 82.245C260.907 81.9611 260.812 81.6171 260.812 81.2137C260.812 80.5759 261.08 80.0503 261.612 79.6367C262.145 79.2182 262.828 79.0088 263.66 79.0088C264.562 79.0088 265.284 79.2331 265.828 79.6815C266.376 80.1249 266.65 80.7054 266.65 81.4229H265.753C265.753 80.9495 265.554 80.556 265.154 80.242C264.761 79.9281 264.263 79.7712 263.66 79.7712C263.072 79.7712 262.598 79.9033 262.24 80.1673C261.886 80.4263 261.709 80.7652 261.709 81.1837C261.709 81.5873 261.856 81.9012 262.15 82.1255C262.45 82.3446 262.99 82.5464 263.772 82.7308C264.559 82.9151 265.146 83.1119 265.535 83.3212C265.93 83.5304 266.221 83.782 266.411 84.0761C266.599 84.3699 266.694 84.7263 266.694 85.1447C266.694 85.8274 266.418 86.3729 265.864 86.7816C265.316 87.1901 264.598 87.3944 263.712 87.3944C262.771 87.3944 262.006 87.1676 261.418 86.7142C260.835 86.2558 260.544 85.6779 260.544 84.9804H261.441C261.475 85.5035 261.695 85.912 262.097 86.2061C262.506 86.495 263.045 86.6395 263.712 86.6395C264.335 86.6395 264.839 86.5025 265.221 86.2284C265.606 85.9544 265.797 85.6082 265.797 85.1896Z" fill="black"/>
</mask>
<g mask="url(#mask0_2_14)">
<path d="M121.884 87.2449H120.965V76.3632H121.884V87.2449ZM125.486 79.1584L125.516 80.541C125.82 80.0427 126.199 79.6641 126.652 79.4049C127.106 79.1409 127.606 79.0088 128.154 79.0088C129.021 79.0088 129.667 79.253 130.09 79.7414C130.514 80.2296 130.728 80.962 130.733 81.9386V87.2449H129.844V81.9311C129.838 81.2086 129.684 80.6706 129.38 80.3167C129.081 79.963 128.6 79.7862 127.938 79.7862C127.385 79.7862 126.894 79.9606 126.465 80.3094C126.042 80.6532 125.728 81.1189 125.524 81.7068V87.2449H124.634V79.1584H125.486ZM134.44 77.0882V79.1584H136.114V79.8908H134.44V85.2793C134.44 85.7278 134.52 86.0616 134.679 86.2808C134.843 86.4999 135.115 86.6097 135.494 86.6097C135.643 86.6097 135.885 86.5847 136.219 86.5348L136.256 87.2672C136.022 87.352 135.703 87.3944 135.299 87.3944C134.686 87.3944 134.241 87.2175 133.961 86.8638C133.682 86.505 133.543 85.9794 133.543 85.2868V79.8908H132.056V79.1584H133.543V77.0882H134.44ZM141.099 87.3944C140.411 87.3944 139.789 87.225 139.23 86.8861C138.677 86.5474 138.246 86.0766 137.937 85.4737C137.629 84.8657 137.474 84.1857 137.474 83.4334V83.1119C137.474 82.3347 137.624 81.6346 137.923 81.0118C138.226 80.389 138.647 79.9007 139.186 79.547C139.724 79.1882 140.307 79.0088 140.934 79.0088C141.916 79.0088 142.693 79.3453 143.266 80.0178C143.844 80.6855 144.133 81.5997 144.133 82.7607V83.2615H138.364V83.4334C138.364 84.35 138.625 85.1149 139.148 85.7278C139.676 86.3356 140.339 86.6395 141.136 86.6395C141.615 86.6395 142.035 86.5523 142.399 86.378C142.768 86.2036 143.102 85.9246 143.401 85.5409L143.961 85.9668C143.304 86.9186 142.349 87.3944 141.099 87.3944ZM140.934 79.7712C140.262 79.7712 139.694 80.0178 139.23 80.5111C138.772 81.0044 138.493 81.667 138.393 82.4991H143.244V82.4019C143.219 81.6246 142.997 80.9919 142.579 80.5036C142.16 80.0154 141.612 79.7712 140.934 79.7712ZM149.611 79.9206C149.422 79.8859 149.22 79.8684 149.006 79.8684C148.448 79.8684 147.975 80.0253 147.586 80.3392C147.202 80.6481 146.928 81.099 146.764 81.692V87.2449H145.875V79.1584H146.749L146.764 80.4438C147.237 79.4871 147.997 79.0088 149.043 79.0088C149.293 79.0088 149.489 79.0413 149.634 79.106L149.611 79.9206ZM151.883 79.1584L151.913 80.541C152.217 80.0427 152.596 79.6641 153.049 79.4049C153.502 79.1409 154.004 79.0088 154.552 79.0088C155.418 79.0088 156.064 79.253 156.487 79.7414C156.911 80.2296 157.125 80.962 157.13 81.9386V87.2449H156.24V81.9311C156.236 81.2086 156.081 80.6706 155.777 80.3167C155.478 79.963 154.997 79.7862 154.335 79.7862C153.782 79.7862 153.291 79.9606 152.862 80.3094C152.439 80.6532 152.125 81.1189 151.921 81.7068V87.2449H151.031V79.1584H151.883ZM164.552 87.2449C164.461 86.9908 164.405 86.6146 164.38 86.1164C164.065 86.5249 163.664 86.8413 163.176 87.0655C162.693 87.2847 162.179 87.3944 161.637 87.3944C160.86 87.3944 160.229 87.1777 159.745 86.7442C159.268 86.3106 159.028 85.7626 159.028 85.0999C159.028 84.3127 159.355 83.6899 160.007 83.2315C160.665 82.7732 161.579 82.5439 162.75 82.5439H164.372V81.6246C164.372 81.0467 164.192 80.5933 163.834 80.2645C163.48 79.9307 162.961 79.7637 162.279 79.7637C161.657 79.7637 161.141 79.9232 160.733 80.242C160.324 80.5609 160.119 80.9446 160.119 81.3931L159.222 81.3856C159.222 80.7429 159.522 80.1872 160.119 79.7189C160.717 79.2456 161.452 79.0088 162.324 79.0088C163.226 79.0088 163.936 79.2357 164.454 79.689C164.977 80.1373 165.246 80.7652 165.262 81.5723V85.3988C165.262 86.1811 165.343 86.7666 165.508 87.1552V87.2449H164.552ZM161.741 86.6022C162.34 86.6022 162.872 86.4577 163.341 86.1687C163.814 85.8797 164.158 85.4936 164.372 85.0102V83.2315H162.773C161.881 83.2414 161.183 83.406 160.681 83.7248C160.177 84.0387 159.924 84.4722 159.924 85.0252C159.924 85.4786 160.091 85.8548 160.427 86.1537C160.765 86.4527 161.203 86.6022 161.741 86.6022ZM169.042 77.0882V79.1584H170.717V79.8908H169.042V85.2793C169.042 85.7278 169.122 86.0616 169.283 86.2808C169.446 86.4999 169.717 86.6097 170.097 86.6097C170.247 86.6097 170.487 86.5847 170.822 86.5348L170.859 87.2672C170.625 87.352 170.307 87.3944 169.903 87.3944C169.29 87.3944 168.843 87.2175 168.565 86.8638C168.286 86.505 168.145 85.9794 168.145 85.2868V79.8908H166.659V79.1584H168.145V77.0882H169.042ZM173.571 87.2449H172.674V79.1584H173.571V87.2449ZM172.518 76.8191C172.518 76.6497 172.573 76.5076 172.682 76.3932C172.792 76.2735 172.942 76.2138 173.131 76.2138C173.32 76.2138 173.47 76.2735 173.579 76.3932C173.694 76.5076 173.752 76.6497 173.752 76.8191C173.752 76.9886 173.694 77.1305 173.579 77.2451C173.47 77.3597 173.32 77.417 173.131 77.417C172.942 77.417 172.792 77.3597 172.682 77.2451C172.573 77.1305 172.518 76.9886 172.518 76.8191ZM175.515 83.0821C175.515 82.3048 175.665 81.6047 175.964 80.9819C176.267 80.3591 176.694 79.8758 177.242 79.532C177.794 79.1833 178.42 79.0088 179.117 79.0088C180.194 79.0088 181.065 79.3875 181.733 80.1448C182.402 80.8973 182.735 81.8962 182.735 83.1418V83.3287C182.735 84.111 182.582 84.816 182.279 85.4437C181.981 86.0665 181.557 86.5474 181.009 86.8861C180.461 87.225 179.835 87.3944 179.132 87.3944C178.061 87.3944 177.19 87.0182 176.516 86.2659C175.849 85.5086 175.515 84.5071 175.515 83.2615V83.0821ZM176.412 83.3287C176.412 84.2952 176.662 85.0899 177.159 85.7128C177.663 86.3307 178.321 86.6395 179.132 86.6395C179.94 86.6395 180.592 86.3307 181.09 85.7128C181.593 85.0899 181.846 84.2703 181.846 83.254V83.0821C181.846 82.4642 181.731 81.8988 181.502 81.3856C181.272 80.8723 180.951 80.4762 180.537 80.1972C180.124 79.9133 179.651 79.7712 179.117 79.7712C178.321 79.7712 177.67 80.0851 177.167 80.7129C176.663 81.3357 176.412 82.1529 176.412 83.1643V83.3287ZM185.44 79.1584L185.47 80.541C185.773 80.0427 186.153 79.6641 186.606 79.4049C187.059 79.1409 187.56 79.0088 188.108 79.0088C188.976 79.0088 189.62 79.253 190.044 79.7414C190.468 80.2296 190.682 80.962 190.687 81.9386V87.2449H189.797V81.9311C189.793 81.2086 189.638 80.6706 189.334 80.3167C189.035 79.963 188.555 79.7862 187.892 79.7862C187.339 79.7862 186.848 79.9606 186.419 80.3094C185.995 80.6532 185.682 81.1189 185.478 81.7068V87.2449H184.589V79.1584H185.44ZM198.109 87.2449C198.018 86.9908 197.962 86.6146 197.936 86.1164C197.622 86.5249 197.221 86.8413 196.733 87.0655C196.249 87.2847 195.736 87.3944 195.193 87.3944C194.417 87.3944 193.786 87.1777 193.303 86.7442C192.825 86.3106 192.585 85.7626 192.585 85.0999C192.585 84.3127 192.911 83.6899 193.564 83.2315C194.222 82.7732 195.136 82.5439 196.307 82.5439H197.928V81.6246C197.928 81.0467 197.749 80.5933 197.391 80.2645C197.037 79.9307 196.518 79.7637 195.836 79.7637C195.213 79.7637 194.697 79.9232 194.29 80.242C193.881 80.5609 193.676 80.9446 193.676 81.3931L192.779 81.3856C192.779 80.7429 193.079 80.1872 193.676 79.7189C194.275 79.2456 195.009 79.0088 195.882 79.0088C196.783 79.0088 197.493 79.2357 198.011 79.689C198.534 80.1373 198.804 80.7652 198.819 81.5723V85.3988C198.819 86.1811 198.9 86.7666 199.065 87.1552V87.2449H198.109ZM195.298 86.6022C195.895 86.6022 196.43 86.4577 196.898 86.1687C197.371 85.8797 197.715 85.4936 197.928 85.0102V83.2315H196.33C195.438 83.2414 194.74 83.406 194.236 83.7248C193.734 84.0387 193.482 84.4722 193.482 85.0252C193.482 85.4786 193.648 85.8548 193.982 86.1537C194.322 86.4527 194.76 86.6022 195.298 86.6022ZM202.211 87.2449H201.314V75.7653H202.211V87.2449ZM209.506 86.4676H214.88V87.2449H208.578V76.3632H209.506V86.4676ZM215.948 83.0821C215.948 82.3048 216.098 81.6047 216.396 80.9819C216.699 80.3591 217.127 79.8758 217.675 79.532C218.227 79.1833 218.853 79.0088 219.549 79.0088C220.627 79.0088 221.498 79.3875 222.165 80.1448C222.834 80.8973 223.168 81.8962 223.168 83.1418V83.3287C223.168 84.111 223.015 84.816 222.712 85.4437C222.413 86.0665 221.989 86.5474 221.441 86.8861C220.893 87.225 220.267 87.3944 219.565 87.3944C218.493 87.3944 217.622 87.0182 216.949 86.2659C216.282 85.5086 215.948 84.5071 215.948 83.2615V83.0821ZM216.845 83.3287C216.845 84.2952 217.094 85.0899 217.592 85.7128C218.095 86.3307 218.754 86.6395 219.565 86.6395C220.373 86.6395 221.025 86.3307 221.524 85.7128C222.026 85.0899 222.279 84.2703 222.279 83.254V83.0821C222.279 82.4642 222.164 81.8988 221.934 81.3856C221.705 80.8723 221.383 80.4762 220.97 80.1972C220.557 79.9133 220.084 79.7712 219.549 79.7712C218.754 79.7712 218.103 80.0851 217.599 80.7129C217.096 81.3357 216.845 82.1529 216.845 83.1643V83.3287ZM224.662 83.1269C224.662 81.8613 224.942 80.8599 225.499 80.1225C226.062 79.3801 226.825 79.0088 227.786 79.0088C228.888 79.0088 229.725 79.4473 230.297 80.3242L230.342 79.1584H231.179V87.0805C231.179 88.1218 230.888 88.9465 230.305 89.5543C229.722 90.1621 228.932 90.4661 227.936 90.4661C227.372 90.4661 226.835 90.339 226.321 90.0849C225.813 89.8358 225.412 89.5019 225.118 89.0835L225.618 88.5453C226.252 89.3225 227.004 89.7112 227.876 89.7112C228.623 89.7112 229.206 89.4895 229.624 89.0461C230.043 88.6076 230.261 87.9972 230.275 87.215V86.1986C229.702 86.9957 228.868 87.3944 227.772 87.3944C226.835 87.3944 226.082 87.0207 225.514 86.2733C224.946 85.526 224.662 84.517 224.662 83.2465V83.1269ZM225.566 83.2838C225.566 84.3152 225.773 85.1299 226.186 85.7278C226.601 86.3207 227.183 86.617 227.936 86.617C229.036 86.617 229.817 86.1239 230.275 85.1372V81.3781C230.066 80.8599 229.765 80.4663 229.37 80.1972C228.977 79.9232 228.504 79.7862 227.951 79.7862C227.198 79.7862 226.613 80.0825 226.194 80.6755C225.776 81.2634 225.566 82.133 225.566 83.2838ZM234.513 87.2449H233.616V79.1584H234.513V87.2449ZM233.458 76.8191C233.458 76.6497 233.513 76.5076 233.623 76.3932C233.732 76.2735 233.882 76.2138 234.072 76.2138C234.26 76.2138 234.41 76.2735 234.52 76.3932C234.635 76.5076 234.692 76.6497 234.692 76.8191C234.692 76.9886 234.635 77.1305 234.52 77.2451C234.41 77.3597 234.26 77.417 234.072 77.417C233.882 77.417 233.732 77.3597 233.623 77.2451C233.513 77.1305 233.458 76.9886 233.458 76.8191ZM241.792 85.1896C241.792 84.7462 241.613 84.39 241.254 84.1209C240.9 83.8518 240.364 83.6426 239.646 83.4931C238.93 83.3386 238.371 83.1643 237.973 82.9699C237.579 82.7706 237.285 82.5289 237.09 82.245C236.902 81.9611 236.807 81.6171 236.807 81.2137C236.807 80.5759 237.073 80.0503 237.606 79.6367C238.14 79.2182 238.823 79.0088 239.654 79.0088C240.556 79.0088 241.278 79.2331 241.821 79.6815C242.369 80.1249 242.643 80.7054 242.643 81.4229H241.746C241.746 80.9495 241.547 80.556 241.149 80.242C240.756 79.9281 240.257 79.7712 239.654 79.7712C239.066 79.7712 238.593 79.9033 238.234 80.1673C237.88 80.4263 237.704 80.7652 237.704 81.1837C237.704 81.5873 237.851 81.9012 238.145 82.1255C238.443 82.3446 238.984 82.5464 239.766 82.7308C240.554 82.9151 241.142 83.1119 241.531 83.3212C241.924 83.5304 242.215 83.782 242.405 84.0761C242.594 84.3699 242.689 84.7263 242.689 85.1447C242.689 85.8274 242.412 86.3729 241.86 86.7816C241.312 87.1901 240.594 87.3944 239.706 87.3944C238.765 87.3944 237.999 87.1676 237.412 86.7142C236.83 86.2558 236.538 85.6779 236.538 84.9804H237.435C237.47 85.5035 237.689 85.912 238.093 86.2061C238.502 86.495 239.039 86.6395 239.706 86.6395C240.329 86.6395 240.833 86.5025 241.217 86.2284C241.6 85.9544 241.792 85.6082 241.792 85.1896ZM246.096 77.0882V79.1584H247.771V79.8908H246.096V85.2793C246.096 85.7278 246.176 86.0616 246.335 86.2808C246.501 86.4999 246.771 86.6097 247.151 86.6097C247.3 86.6097 247.541 86.5847 247.875 86.5348L247.913 87.2672C247.679 87.352 247.359 87.3944 246.957 87.3944C246.343 87.3944 245.897 87.2175 245.619 86.8638C245.339 86.505 245.2 85.9794 245.2 85.2868V79.8908H243.713V79.1584H245.2V77.0882H246.096ZM250.626 87.2449H249.729V79.1584H250.626V87.2449ZM249.572 76.8191C249.572 76.6497 249.628 76.5076 249.736 76.3932C249.846 76.2735 249.995 76.2138 250.185 76.2138C250.374 76.2138 250.523 76.2735 250.633 76.3932C250.748 76.5076 250.805 76.6497 250.805 76.8191C250.805 76.9886 250.748 77.1305 250.633 77.2451C250.523 77.3597 250.374 77.417 250.185 77.417C249.995 77.417 249.846 77.3597 249.736 77.2451C249.628 77.1305 249.572 76.9886 249.572 76.8191ZM256.052 86.6395C256.675 86.6395 257.195 86.4652 257.614 86.1164C258.037 85.7626 258.266 85.3067 258.302 84.7486H259.16C259.136 85.2419 258.981 85.6929 258.698 86.1014C258.413 86.505 258.035 86.8214 257.561 87.0505C257.092 87.2798 256.59 87.3944 256.052 87.3944C254.991 87.3944 254.149 87.0257 253.526 86.2883C252.908 85.5508 252.598 84.5593 252.598 83.3137V83.0447C252.598 82.2474 252.738 81.5424 253.018 80.9296C253.296 80.3167 253.694 79.8435 254.213 79.5096C254.737 79.1758 255.346 79.0088 256.044 79.0088C256.932 79.0088 257.662 79.273 258.234 79.8011C258.811 80.3293 259.12 81.0243 259.16 81.8862H258.302C258.262 81.2535 258.032 80.7429 257.614 80.3541C257.2 79.9655 256.678 79.7712 256.044 79.7712C255.237 79.7712 254.61 80.0626 254.161 80.6457C253.717 81.2285 253.495 82.0457 253.495 83.0969V83.3585C253.495 84.39 253.717 85.1946 254.161 85.7726C254.61 86.3506 255.24 86.6395 256.052 86.6395ZM265.797 85.1896C265.797 84.7462 265.618 84.39 265.26 84.1209C264.906 83.8518 264.37 83.6426 263.653 83.4931C262.935 83.3386 262.378 83.1643 261.978 82.9699C261.585 82.7706 261.291 82.5289 261.096 82.245C260.907 81.9611 260.812 81.6171 260.812 81.2137C260.812 80.5759 261.08 80.0503 261.612 79.6367C262.145 79.2182 262.828 79.0088 263.66 79.0088C264.562 79.0088 265.284 79.2331 265.828 79.6815C266.376 80.1249 266.65 80.7054 266.65 81.4229H265.753C265.753 80.9495 265.554 80.556 265.154 80.242C264.761 79.9281 264.263 79.7712 263.66 79.7712C263.072 79.7712 262.598 79.9033 262.24 80.1673C261.886 80.4263 261.709 80.7652 261.709 81.1837C261.709 81.5873 261.856 81.9012 262.15 82.1255C262.45 82.3446 262.99 82.5464 263.772 82.7308C264.559 82.9151 265.146 83.1119 265.535 83.3212C265.93 83.5304 266.221 83.782 266.411 84.0761C266.599 84.3699 266.694 84.7263 266.694 85.1447C266.694 85.8274 266.418 86.3729 265.864 86.7816C265.316 87.1901 264.598 87.3944 263.712 87.3944C262.771 87.3944 262.006 87.1676 261.418 86.7142C260.835 86.2558 260.544 85.6779 260.544 84.9804H261.441C261.475 85.5035 261.695 85.912 262.097 86.2061C262.506 86.495 263.045 86.6395 263.712 86.6395C264.335 86.6395 264.839 86.5025 265.221 86.2284C265.606 85.9544 265.797 85.6082 265.797 85.1896Z" fill="white"/>
<path d="M121.884 87.2449H120.965V76.3632H121.884V87.2449ZM125.486 79.1584L125.516 80.541C125.82 80.0427 126.199 79.6641 126.652 79.4049C127.106 79.1409 127.606 79.0088 128.154 79.0088C129.021 79.0088 129.667 79.253 130.09 79.7414C130.514 80.2296 130.728 80.962 130.733 81.9386V87.2449H129.844V81.9311C129.838 81.2086 129.684 80.6706 129.38 80.3167C129.081 79.963 128.6 79.7862 127.938 79.7862C127.385 79.7862 126.894 79.9606 126.465 80.3094C126.042 80.6532 125.728 81.1189 125.524 81.7068V87.2449H124.634V79.1584H125.486ZM134.44 77.0882V79.1584H136.114V79.8908H134.44V85.2793C134.44 85.7278 134.52 86.0616 134.679 86.2808C134.843 86.4999 135.115 86.6097 135.494 86.6097C135.643 86.6097 135.885 86.5847 136.219 86.5348L136.256 87.2672C136.022 87.352 135.703 87.3944 135.299 87.3944C134.686 87.3944 134.241 87.2175 133.961 86.8638C133.682 86.505 133.543 85.9794 133.543 85.2868V79.8908H132.056V79.1584H133.543V77.0882H134.44ZM141.099 87.3944C140.411 87.3944 139.789 87.225 139.23 86.8861C138.677 86.5474 138.246 86.0766 137.937 85.4737C137.629 84.8657 137.474 84.1857 137.474 83.4334V83.1119C137.474 82.3347 137.624 81.6346 137.923 81.0118C138.226 80.389 138.647 79.9007 139.186 79.547C139.724 79.1882 140.307 79.0088 140.934 79.0088C141.916 79.0088 142.693 79.3453 143.266 80.0178C143.844 80.6855 144.133 81.5997 144.133 82.7607V83.2615H138.364V83.4334C138.364 84.35 138.625 85.1149 139.148 85.7278C139.676 86.3356 140.339 86.6395 141.136 86.6395C141.615 86.6395 142.035 86.5523 142.399 86.378C142.768 86.2036 143.102 85.9246 143.401 85.5409L143.961 85.9668C143.304 86.9186 142.349 87.3944 141.099 87.3944ZM140.934 79.7712C140.262 79.7712 139.694 80.0178 139.23 80.5111C138.772 81.0044 138.493 81.667 138.393 82.4991H143.244V82.4019C143.219 81.6246 142.997 80.9919 142.579 80.5036C142.16 80.0154 141.612 79.7712 140.934 79.7712ZM149.611 79.9206C149.422 79.8859 149.22 79.8684 149.006 79.8684C148.448 79.8684 147.975 80.0253 147.586 80.3392C147.202 80.6481 146.928 81.099 146.764 81.692V87.2449H145.875V79.1584H146.749L146.764 80.4438C147.237 79.4871 147.997 79.0088 149.043 79.0088C149.293 79.0088 149.489 79.0413 149.634 79.106L149.611 79.9206ZM151.883 79.1584L151.913 80.541C152.217 80.0427 152.596 79.6641 153.049 79.4049C153.502 79.1409 154.004 79.0088 154.552 79.0088C155.418 79.0088 156.064 79.253 156.487 79.7414C156.911 80.2296 157.125 80.962 157.13 81.9386V87.2449H156.24V81.9311C156.236 81.2086 156.081 80.6706 155.777 80.3167C155.478 79.963 154.997 79.7862 154.335 79.7862C153.782 79.7862 153.291 79.9606 152.862 80.3094C152.439 80.6532 152.125 81.1189 151.921 81.7068V87.2449H151.031V79.1584H151.883ZM164.552 87.2449C164.461 86.9908 164.405 86.6146 164.38 86.1164C164.065 86.5249 163.664 86.8413 163.176 87.0655C162.693 87.2847 162.179 87.3944 161.637 87.3944C160.86 87.3944 160.229 87.1777 159.745 86.7442C159.268 86.3106 159.028 85.7626 159.028 85.0999C159.028 84.3127 159.355 83.6899 160.007 83.2315C160.665 82.7732 161.579 82.5439 162.75 82.5439H164.372V81.6246C164.372 81.0467 164.192 80.5933 163.834 80.2645C163.48 79.9307 162.961 79.7637 162.279 79.7637C161.657 79.7637 161.141 79.9232 160.733 80.242C160.324 80.5609 160.119 80.9446 160.119 81.3931L159.222 81.3856C159.222 80.7429 159.522 80.1872 160.119 79.7189C160.717 79.2456 161.452 79.0088 162.324 79.0088C163.226 79.0088 163.936 79.2357 164.454 79.689C164.977 80.1373 165.246 80.7652 165.262 81.5723V85.3988C165.262 86.1811 165.343 86.7666 165.508 87.1552V87.2449H164.552ZM161.741 86.6022C162.34 86.6022 162.872 86.4577 163.341 86.1687C163.814 85.8797 164.158 85.4936 164.372 85.0102V83.2315H162.773C161.881 83.2414 161.183 83.406 160.681 83.7248C160.177 84.0387 159.924 84.4722 159.924 85.0252C159.924 85.4786 160.091 85.8548 160.427 86.1537C160.765 86.4527 161.203 86.6022 161.741 86.6022ZM169.042 77.0882V79.1584H170.717V79.8908H169.042V85.2793C169.042 85.7278 169.122 86.0616 169.283 86.2808C169.446 86.4999 169.717 86.6097 170.097 86.6097C170.247 86.6097 170.487 86.5847 170.822 86.5348L170.859 87.2672C170.625 87.352 170.307 87.3944 169.903 87.3944C169.29 87.3944 168.843 87.2175 168.565 86.8638C168.286 86.505 168.145 85.9794 168.145 85.2868V79.8908H166.659V79.1584H168.145V77.0882H169.042ZM173.571 87.2449H172.674V79.1584H173.571V87.2449ZM172.518 76.8191C172.518 76.6497 172.573 76.5076 172.682 76.3932C172.792 76.2735 172.942 76.2138 173.131 76.2138C173.32 76.2138 173.47 76.2735 173.579 76.3932C173.694 76.5076 173.752 76.6497 173.752 76.8191C173.752 76.9886 173.694 77.1305 173.579 77.2451C173.47 77.3597 173.32 77.417 173.131 77.417C172.942 77.417 172.792 77.3597 172.682 77.2451C172.573 77.1305 172.518 76.9886 172.518 76.8191ZM175.515 83.0821C175.515 82.3048 175.665 81.6047 175.964 80.9819C176.267 80.3591 176.694 79.8758 177.242 79.532C177.794 79.1833 178.42 79.0088 179.117 79.0088C180.194 79.0088 181.065 79.3875 181.733 80.1448C182.402 80.8973 182.735 81.8962 182.735 83.1418V83.3287C182.735 84.111 182.582 84.816 182.279 85.4437C181.981 86.0665 181.557 86.5474 181.009 86.8861C180.461 87.225 179.835 87.3944 179.132 87.3944C178.061 87.3944 177.19 87.0182 176.516 86.2659C175.849 85.5086 175.515 84.5071 175.515 83.2615V83.0821ZM176.412 83.3287C176.412 84.2952 176.662 85.0899 177.159 85.7128C177.663 86.3307 178.321 86.6395 179.132 86.6395C179.94 86.6395 180.592 86.3307 181.09 85.7128C181.593 85.0899 181.846 84.2703 181.846 83.254V83.0821C181.846 82.4642 181.731 81.8988 181.502 81.3856C181.272 80.8723 180.951 80.4762 180.537 80.1972C180.124 79.9133 179.651 79.7712 179.117 79.7712C178.321 79.7712 177.67 80.0851 177.167 80.7129C176.663 81.3357 176.412 82.1529 176.412 83.1643V83.3287ZM185.44 79.1584L185.47 80.541C185.773 80.0427 186.153 79.6641 186.606 79.4049C187.059 79.1409 187.56 79.0088 188.108 79.0088C188.976 79.0088 189.62 79.253 190.044 79.7414C190.468 80.2296 190.682 80.962 190.687 81.9386V87.2449H189.797V81.9311C189.793 81.2086 189.638 80.6706 189.334 80.3167C189.035 79.963 188.555 79.7862 187.892 79.7862C187.339 79.7862 186.848 79.9606 186.419 80.3094C185.995 80.6532 185.682 81.1189 185.478 81.7068V87.2449H184.589V79.1584H185.44ZM198.109 87.2449C198.018 86.9908 197.962 86.6146 197.936 86.1164C197.622 86.5249 197.221 86.8413 196.733 87.0655C196.249 87.2847 195.736 87.3944 195.193 87.3944C194.417 87.3944 193.786 87.1777 193.303 86.7442C192.825 86.3106 192.585 85.7626 192.585 85.0999C192.585 84.3127 192.911 83.6899 193.564 83.2315C194.222 82.7732 195.136 82.5439 196.307 82.5439H197.928V81.6246C197.928 81.0467 197.749 80.5933 197.391 80.2645C197.037 79.9307 196.518 79.7637 195.836 79.7637C195.213 79.7637 194.697 79.9232 194.29 80.242C193.881 80.5609 193.676 80.9446 193.676 81.3931L192.779 81.3856C192.779 80.7429 193.079 80.1872 193.676 79.7189C194.275 79.2456 195.009 79.0088 195.882 79.0088C196.783 79.0088 197.493 79.2357 198.011 79.689C198.534 80.1373 198.804 80.7652 198.819 81.5723V85.3988C198.819 86.1811 198.9 86.7666 199.065 87.1552V87.2449H198.109ZM195.298 86.6022C195.895 86.6022 196.43 86.4577 196.898 86.1687C197.371 85.8797 197.715 85.4936 197.928 85.0102V83.2315H196.33C195.438 83.2414 194.74 83.406 194.236 83.7248C193.734 84.0387 193.482 84.4722 193.482 85.0252C193.482 85.4786 193.648 85.8548 193.982 86.1537C194.322 86.4527 194.76 86.6022 195.298 86.6022ZM202.211 87.2449H201.314V75.7653H202.211V87.2449ZM209.506 86.4676H214.88V87.2449H208.578V76.3632H209.506V86.4676ZM215.948 83.0821C215.948 82.3048 216.098 81.6047 216.396 80.9819C216.699 80.3591 217.127 79.8758 217.675 79.532C218.227 79.1833 218.853 79.0088 219.549 79.0088C220.627 79.0088 221.498 79.3875 222.165 80.1448C222.834 80.8973 223.168 81.8962 223.168 83.1418V83.3287C223.168 84.111 223.015 84.816 222.712 85.4437C222.413 86.0665 221.989 86.5474 221.441 86.8861C220.893 87.225 220.267 87.3944 219.565 87.3944C218.493 87.3944 217.622 87.0182 216.949 86.2659C216.282 85.5086 215.948 84.5071 215.948 83.2615V83.0821ZM216.845 83.3287C216.845 84.2952 217.094 85.0899 217.592 85.7128C218.095 86.3307 218.754 86.6395 219.565 86.6395C220.373 86.6395 221.025 86.3307 221.524 85.7128C222.026 85.0899 222.279 84.2703 222.279 83.254V83.0821C222.279 82.4642 222.164 81.8988 221.934 81.3856C221.705 80.8723 221.383 80.4762 220.97 80.1972C220.557 79.9133 220.084 79.7712 219.549 79.7712C218.754 79.7712 218.103 80.0851 217.599 80.7129C217.096 81.3357 216.845 82.1529 216.845 83.1643V83.3287ZM224.662 83.1269C224.662 81.8613 224.942 80.8599 225.499 80.1225C226.062 79.3801 226.825 79.0088 227.786 79.0088C228.888 79.0088 229.725 79.4473 230.297 80.3242L230.342 79.1584H231.179V87.0805C231.179 88.1218 230.888 88.9465 230.305 89.5543C229.722 90.1621 228.932 90.4661 227.936 90.4661C227.372 90.4661 226.835 90.339 226.321 90.0849C225.813 89.8358 225.412 89.5019 225.118 89.0835L225.618 88.5453C226.252 89.3225 227.004 89.7112 227.876 89.7112C228.623 89.7112 229.206 89.4895 229.624 89.0461C230.043 88.6076 230.261 87.9972 230.275 87.215V86.1986C229.702 86.9957 228.868 87.3944 227.772 87.3944C226.835 87.3944 226.082 87.0207 225.514 86.2733C224.946 85.526 224.662 84.517 224.662 83.2465V83.1269ZM225.566 83.2838C225.566 84.3152 225.773 85.1299 226.186 85.7278C226.601 86.3207 227.183 86.617 227.936 86.617C229.036 86.617 229.817 86.1239 230.275 85.1372V81.3781C230.066 80.8599 229.765 80.4663 229.37 80.1972C228.977 79.9232 228.504 79.7862 227.951 79.7862C227.198 79.7862 226.613 80.0825 226.194 80.6755C225.776 81.2634 225.566 82.133 225.566 83.2838ZM234.513 87.2449H233.616V79.1584H234.513V87.2449ZM233.458 76.8191C233.458 76.6497 233.513 76.5076 233.623 76.3932C233.732 76.2735 233.882 76.2138 234.072 76.2138C234.26 76.2138 234.41 76.2735 234.52 76.3932C234.635 76.5076 234.692 76.6497 234.692 76.8191C234.692 76.9886 234.635 77.1305 234.52 77.2451C234.41 77.3597 234.26 77.417 234.072 77.417C233.882 77.417 233.732 77.3597 233.623 77.2451C233.513 77.1305 233.458 76.9886 233.458 76.8191ZM241.792 85.1896C241.792 84.7462 241.613 84.39 241.254 84.1209C240.9 83.8518 240.364 83.6426 239.646 83.4931C238.93 83.3386 238.371 83.1643 237.973 82.9699C237.579 82.7706 237.285 82.5289 237.09 82.245C236.902 81.9611 236.807 81.6171 236.807 81.2137C236.807 80.5759 237.073 80.0503 237.606 79.6367C238.14 79.2182 238.823 79.0088 239.654 79.0088C240.556 79.0088 241.278 79.2331 241.821 79.6815C242.369 80.1249 242.643 80.7054 242.643 81.4229H241.746C241.746 80.9495 241.547 80.556 241.149 80.242C240.756 79.9281 240.257 79.7712 239.654 79.7712C239.066 79.7712 238.593 79.9033 238.234 80.1673C237.88 80.4263 237.704 80.7652 237.704 81.1837C237.704 81.5873 237.851 81.9012 238.145 82.1255C238.443 82.3446 238.984 82.5464 239.766 82.7308C240.554 82.9151 241.142 83.1119 241.531 83.3212C241.924 83.5304 242.215 83.782 242.405 84.0761C242.594 84.3699 242.689 84.7263 242.689 85.1447C242.689 85.8274 242.412 86.3729 241.86 86.7816C241.312 87.1901 240.594 87.3944 239.706 87.3944C238.765 87.3944 237.999 87.1676 237.412 86.7142C236.83 86.2558 236.538 85.6779 236.538 84.9804H237.435C237.47 85.5035 237.689 85.912 238.093 86.2061C238.502 86.495 239.039 86.6395 239.706 86.6395C240.329 86.6395 240.833 86.5025 241.217 86.2284C241.6 85.9544 241.792 85.6082 241.792 85.1896ZM246.096 77.0882V79.1584H247.771V79.8908H246.096V85.2793C246.096 85.7278 246.176 86.0616 246.335 86.2808C246.501 86.4999 246.771 86.6097 247.151 86.6097C247.3 86.6097 247.541 86.5847 247.875 86.5348L247.913 87.2672C247.679 87.352 247.359 87.3944 246.957 87.3944C246.343 87.3944 245.897 87.2175 245.619 86.8638C245.339 86.505 245.2 85.9794 245.2 85.2868V79.8908H243.713V79.1584H245.2V77.0882H246.096ZM250.626 87.2449H249.729V79.1584H250.626V87.2449ZM249.572 76.8191C249.572 76.6497 249.628 76.5076 249.736 76.3932C249.846 76.2735 249.995 76.2138 250.185 76.2138C250.374 76.2138 250.523 76.2735 250.633 76.3932C250.748 76.5076 250.805 76.6497 250.805 76.8191C250.805 76.9886 250.748 77.1305 250.633 77.2451C250.523 77.3597 250.374 77.417 250.185 77.417C249.995 77.417 249.846 77.3597 249.736 77.2451C249.628 77.1305 249.572 76.9886 249.572 76.8191ZM256.052 86.6395C256.675 86.6395 257.195 86.4652 257.614 86.1164C258.037 85.7626 258.266 85.3067 258.302 84.7486H259.16C259.136 85.2419 258.981 85.6929 258.698 86.1014C258.413 86.505 258.035 86.8214 257.561 87.0505C257.092 87.2798 256.59 87.3944 256.052 87.3944C254.991 87.3944 254.149 87.0257 253.526 86.2883C252.908 85.5508 252.598 84.5593 252.598 83.3137V83.0447C252.598 82.2474 252.738 81.5424 253.018 80.9296C253.296 80.3167 253.694 79.8435 254.213 79.5096C254.737 79.1758 255.346 79.0088 256.044 79.0088C256.932 79.0088 257.662 79.273 258.234 79.8011C258.811 80.3293 259.12 81.0243 259.16 81.8862H258.302C258.262 81.2535 258.032 80.7429 257.614 80.3541C257.2 79.9655 256.678 79.7712 256.044 79.7712C255.237 79.7712 254.61 80.0626 254.161 80.6457C253.717 81.2285 253.495 82.0457 253.495 83.0969V83.3585C253.495 84.39 253.717 85.1946 254.161 85.7726C254.61 86.3506 255.24 86.6395 256.052 86.6395ZM265.797 85.1896C265.797 84.7462 265.618 84.39 265.26 84.1209C264.906 83.8518 264.37 83.6426 263.653 83.4931C262.935 83.3386 262.378 83.1643 261.978 82.9699C261.585 82.7706 261.291 82.5289 261.096 82.245C260.907 81.9611 260.812 81.6171 260.812 81.2137C260.812 80.5759 261.08 80.0503 261.612 79.6367C262.145 79.2182 262.828 79.0088 263.66 79.0088C264.562 79.0088 265.284 79.2331 265.828 79.6815C266.376 80.1249 266.65 80.7054 266.65 81.4229H265.753C265.753 80.9495 265.554 80.556 265.154 80.242C264.761 79.9281 264.263 79.7712 263.66 79.7712C263.072 79.7712 262.598 79.9033 262.24 80.1673C261.886 80.4263 261.709 80.7652 261.709 81.1837C261.709 81.5873 261.856 81.9012 262.15 82.1255C262.45 82.3446 262.99 82.5464 263.772 82.7308C264.559 82.9151 265.146 83.1119 265.535 83.3212C265.93 83.5304 266.221 83.782 266.411 84.0761C266.599 84.3699 266.694 84.7263 266.694 85.1447C266.694 85.8274 266.418 86.3729 265.864 86.7816C265.316 87.1901 264.598 87.3944 263.712 87.3944C262.771 87.3944 262.006 87.1676 261.418 86.7142C260.835 86.2558 260.544 85.6779 260.544 84.9804H261.441C261.475 85.5035 261.695 85.912 262.097 86.2061C262.506 86.495 263.045 86.6395 263.712 86.6395C264.335 86.6395 264.839 86.5025 265.221 86.2284C265.606 85.9544 265.797 85.6082 265.797 85.1896Z" stroke="white"/>
</g>
<path d="M89.6953 99.3423H87.7134L87.7026 98.5098H89.502C89.7992 98.5098 90.0588 98.4596 90.2808 98.3594C90.5028 98.2591 90.6746 98.1159 90.7964 97.9297C90.9217 97.7399 90.9844 97.5143 90.9844 97.2529C90.9844 96.9665 90.9289 96.7337 90.8179 96.5547C90.7104 96.3721 90.5439 96.2396 90.3184 96.1572C90.0964 96.0713 89.8135 96.0283 89.4697 96.0283H87.9443V103H86.9077V95.1797H89.4697C89.8708 95.1797 90.2288 95.2209 90.5439 95.3032C90.859 95.382 91.1258 95.5073 91.3442 95.6792C91.5662 95.8475 91.7345 96.0623 91.8491 96.3237C91.9637 96.5851 92.021 96.8984 92.021 97.2637C92.021 97.5859 91.9386 97.8778 91.7739 98.1392C91.6092 98.397 91.38 98.6082 91.0864 98.7729C90.7964 98.9377 90.4562 99.0433 90.0659 99.0898L89.6953 99.3423ZM89.647 103H87.3052L87.8906 102.157H89.647C89.9764 102.157 90.2557 102.099 90.4849 101.985C90.7176 101.87 90.8949 101.709 91.0166 101.501C91.1383 101.29 91.1992 101.041 91.1992 100.755C91.1992 100.465 91.1473 100.214 91.0435 100.003C90.9396 99.7917 90.7767 99.6287 90.5547 99.5142C90.3327 99.3996 90.0462 99.3423 89.6953 99.3423H88.2183L88.229 98.5098H90.2485L90.4688 98.8105C90.8447 98.8428 91.1634 98.9502 91.4248 99.1328C91.6862 99.3118 91.8849 99.541 92.021 99.8203C92.1606 100.1 92.2305 100.408 92.2305 100.744C92.2305 101.231 92.123 101.643 91.9082 101.979C91.6969 102.312 91.3979 102.567 91.0112 102.742C90.6245 102.914 90.1698 103 89.647 103ZM96.0225 103.107C95.6178 103.107 95.2508 103.039 94.9214 102.903C94.5955 102.764 94.3145 102.569 94.0781 102.318C93.8454 102.067 93.6663 101.77 93.541 101.426C93.4157 101.083 93.353 100.707 93.353 100.298V100.073C93.353 99.6001 93.4229 99.1794 93.5625 98.8105C93.7021 98.4382 93.8919 98.123 94.1318 97.8652C94.3717 97.6074 94.6439 97.4123 94.9482 97.2798C95.2526 97.1473 95.5677 97.0811 95.8936 97.0811C96.3089 97.0811 96.667 97.1527 96.9678 97.2959C97.2721 97.4391 97.521 97.6396 97.7144 97.8975C97.9077 98.1517 98.0509 98.4525 98.144 98.7998C98.2371 99.1436 98.2837 99.5195 98.2837 99.9277V100.374H93.9438V99.5625H97.29V99.4873C97.2757 99.2295 97.222 98.9788 97.1289 98.7354C97.0394 98.4919 96.8962 98.2913 96.6992 98.1338C96.5023 97.9762 96.2337 97.8975 95.8936 97.8975C95.668 97.8975 95.4603 97.9458 95.2705 98.0425C95.0807 98.1356 94.9178 98.2752 94.7817 98.4614C94.6457 98.6476 94.54 98.875 94.4648 99.1436C94.3896 99.4121 94.3521 99.7218 94.3521 100.073V100.298C94.3521 100.574 94.3896 100.834 94.4648 101.077C94.5436 101.317 94.6564 101.528 94.8032 101.711C94.9536 101.894 95.1344 102.037 95.3457 102.141C95.5605 102.244 95.804 102.296 96.0762 102.296C96.4271 102.296 96.7243 102.225 96.9678 102.082C97.2113 101.938 97.4243 101.747 97.6069 101.507L98.2085 101.985C98.0832 102.175 97.9238 102.355 97.7305 102.527C97.5371 102.699 97.299 102.839 97.0161 102.946C96.7368 103.054 96.4056 103.107 96.0225 103.107ZM105.599 102.006V99.0146C105.599 98.7855 105.553 98.5868 105.459 98.4185C105.37 98.2466 105.234 98.1141 105.051 98.021C104.869 97.9279 104.643 97.8813 104.375 97.8813C104.124 97.8813 103.904 97.9243 103.714 98.0103C103.528 98.0962 103.381 98.209 103.273 98.3486C103.17 98.4883 103.118 98.6387 103.118 98.7998H102.124C102.124 98.5921 102.178 98.3862 102.285 98.1821C102.393 97.978 102.547 97.7936 102.747 97.6289C102.951 97.4606 103.195 97.3281 103.478 97.2314C103.764 97.1312 104.083 97.0811 104.434 97.0811C104.856 97.0811 105.229 97.1527 105.551 97.2959C105.877 97.4391 106.131 97.6558 106.313 97.9458C106.5 98.2323 106.593 98.5921 106.593 99.0254V101.732C106.593 101.926 106.609 102.132 106.641 102.35C106.677 102.569 106.729 102.757 106.797 102.914V103H105.76C105.71 102.885 105.671 102.733 105.642 102.543C105.613 102.35 105.599 102.171 105.599 102.006ZM105.771 99.4766L105.782 100.175H104.777C104.494 100.175 104.242 100.198 104.02 100.245C103.798 100.288 103.612 100.354 103.461 100.443C103.311 100.533 103.196 100.646 103.118 100.782C103.039 100.914 103 101.07 103 101.249C103 101.432 103.041 101.598 103.123 101.749C103.205 101.899 103.329 102.019 103.494 102.108C103.662 102.194 103.868 102.237 104.111 102.237C104.416 102.237 104.684 102.173 104.917 102.044C105.15 101.915 105.334 101.757 105.47 101.571C105.61 101.385 105.685 101.204 105.696 101.029L106.12 101.507C106.095 101.657 106.027 101.824 105.916 102.006C105.805 102.189 105.656 102.364 105.47 102.533C105.288 102.697 105.069 102.835 104.815 102.946C104.564 103.054 104.281 103.107 103.966 103.107C103.572 103.107 103.227 103.03 102.93 102.876C102.636 102.722 102.407 102.517 102.242 102.259C102.081 101.997 102 101.706 102 101.383C102 101.072 102.061 100.798 102.183 100.562C102.305 100.322 102.48 100.123 102.709 99.9653C102.939 99.8042 103.214 99.6825 103.537 99.6001C103.859 99.5177 104.219 99.4766 104.616 99.4766H105.771ZM109.149 98.4292V103H108.156V97.1885H109.096L109.149 98.4292ZM108.913 99.874L108.5 99.8579C108.503 99.4604 108.562 99.0934 108.677 98.7568C108.791 98.4167 108.952 98.1213 109.16 97.8706C109.368 97.62 109.615 97.4266 109.901 97.2905C110.191 97.1509 110.512 97.0811 110.863 97.0811C111.149 97.0811 111.407 97.1204 111.636 97.1992C111.865 97.2744 112.061 97.3962 112.222 97.5645C112.386 97.7327 112.512 97.9512 112.598 98.2197C112.684 98.4847 112.727 98.8088 112.727 99.1919V103H111.728V99.1812C111.728 98.8768 111.683 98.6333 111.593 98.4507C111.504 98.2645 111.373 98.1302 111.201 98.0479C111.029 97.9619 110.818 97.9189 110.567 97.9189C110.32 97.9189 110.095 97.9709 109.891 98.0747C109.69 98.1785 109.516 98.3218 109.37 98.5044C109.226 98.687 109.114 98.8965 109.031 99.1328C108.952 99.3656 108.913 99.6126 108.913 99.874ZM118.044 97.1885V103H117.045V97.1885H118.044ZM116.97 95.647C116.97 95.4858 117.018 95.3498 117.115 95.2388C117.215 95.1278 117.362 95.0723 117.555 95.0723C117.745 95.0723 117.89 95.1278 117.99 95.2388C118.094 95.3498 118.146 95.4858 118.146 95.647C118.146 95.8009 118.094 95.9334 117.99 96.0444C117.89 96.1519 117.745 96.2056 117.555 96.2056C117.362 96.2056 117.215 96.1519 117.115 96.0444C117.018 95.9334 116.97 95.8009 116.97 95.647ZM120.633 98.4292V103H119.639V97.1885H120.579L120.633 98.4292ZM120.396 99.874L119.983 99.8579C119.986 99.4604 120.046 99.0934 120.16 98.7568C120.275 98.4167 120.436 98.1213 120.644 97.8706C120.851 97.62 121.098 97.4266 121.385 97.2905C121.675 97.1509 121.995 97.0811 122.346 97.0811C122.633 97.0811 122.89 97.1204 123.12 97.1992C123.349 97.2744 123.544 97.3962 123.705 97.5645C123.87 97.7327 123.995 97.9512 124.081 98.2197C124.167 98.4847 124.21 98.8088 124.21 99.1919V103H123.211V99.1812C123.211 98.8768 123.166 98.6333 123.077 98.4507C122.987 98.2645 122.856 98.1302 122.685 98.0479C122.513 97.9619 122.301 97.9189 122.051 97.9189C121.804 97.9189 121.578 97.9709 121.374 98.0747C121.174 98.1785 121 98.3218 120.853 98.5044C120.71 98.687 120.597 98.8965 120.515 99.1328C120.436 99.3656 120.396 99.6126 120.396 99.874ZM126.713 98.4292V103H125.719V97.1885H126.659L126.713 98.4292ZM126.477 99.874L126.063 99.8579C126.067 99.4604 126.126 99.0934 126.24 98.7568C126.355 98.4167 126.516 98.1213 126.724 97.8706C126.931 97.62 127.178 97.4266 127.465 97.2905C127.755 97.1509 128.075 97.0811 128.426 97.0811C128.713 97.0811 128.971 97.1204 129.2 97.1992C129.429 97.2744 129.624 97.3962 129.785 97.5645C129.95 97.7327 130.075 97.9512 130.161 98.2197C130.247 98.4847 130.29 98.8088 130.29 99.1919V103H129.291V99.1812C129.291 98.8768 129.246 98.6333 129.157 98.4507C129.067 98.2645 128.937 98.1302 128.765 98.0479C128.593 97.9619 128.382 97.9189 128.131 97.9189C127.884 97.9189 127.658 97.9709 127.454 98.0747C127.254 98.1785 127.08 98.3218 126.933 98.5044C126.79 98.687 126.677 98.8965 126.595 99.1328C126.516 99.3656 126.477 99.6126 126.477 99.874ZM131.536 100.159V100.035C131.536 99.6162 131.597 99.2277 131.719 98.8696C131.84 98.508 132.016 98.1947 132.245 97.9297C132.474 97.6611 132.752 97.4535 133.078 97.3066C133.403 97.1562 133.769 97.0811 134.173 97.0811C134.582 97.0811 134.949 97.1562 135.274 97.3066C135.604 97.4535 135.883 97.6611 136.112 97.9297C136.345 98.1947 136.522 98.508 136.644 98.8696C136.766 99.2277 136.827 99.6162 136.827 100.035V100.159C136.827 100.578 136.766 100.966 136.644 101.324C136.522 101.682 136.345 101.996 136.112 102.264C135.883 102.529 135.606 102.737 135.28 102.887C134.958 103.034 134.592 103.107 134.184 103.107C133.776 103.107 133.409 103.034 133.083 102.887C132.757 102.737 132.478 102.529 132.245 102.264C132.016 101.996 131.84 101.682 131.719 101.324C131.597 100.966 131.536 100.578 131.536 100.159ZM132.53 100.035V100.159C132.53 100.449 132.564 100.723 132.632 100.98C132.7 101.235 132.802 101.46 132.938 101.657C133.078 101.854 133.251 102.01 133.459 102.125C133.667 102.236 133.908 102.291 134.184 102.291C134.456 102.291 134.694 102.236 134.898 102.125C135.106 102.01 135.278 101.854 135.414 101.657C135.55 101.46 135.652 101.235 135.72 100.98C135.792 100.723 135.828 100.449 135.828 100.159V100.035C135.828 99.7487 135.792 99.4784 135.72 99.2241C135.652 98.9663 135.548 98.7389 135.409 98.542C135.273 98.3415 135.101 98.1839 134.893 98.0693C134.689 97.9548 134.449 97.8975 134.173 97.8975C133.901 97.8975 133.661 97.9548 133.454 98.0693C133.25 98.1839 133.078 98.3415 132.938 98.542C132.802 98.7389 132.7 98.9663 132.632 99.2241C132.564 99.4784 132.53 99.7487 132.53 100.035ZM139.754 102.103L141.344 97.1885H142.359L140.27 103H139.604L139.754 102.103ZM138.427 97.1885L140.065 102.13L140.178 103H139.512L137.407 97.1885H138.427ZM146.656 102.006V99.0146C146.656 98.7855 146.609 98.5868 146.516 98.4185C146.427 98.2466 146.291 98.1141 146.108 98.021C145.925 97.9279 145.7 97.8813 145.431 97.8813C145.181 97.8813 144.96 97.9243 144.771 98.0103C144.584 98.0962 144.438 98.209 144.33 98.3486C144.226 98.4883 144.174 98.6387 144.174 98.7998H143.181C143.181 98.5921 143.234 98.3862 143.342 98.1821C143.449 97.978 143.603 97.7936 143.804 97.6289C144.008 97.4606 144.251 97.3281 144.534 97.2314C144.821 97.1312 145.139 97.0811 145.49 97.0811C145.913 97.0811 146.285 97.1527 146.607 97.2959C146.933 97.4391 147.188 97.6558 147.37 97.9458C147.556 98.2323 147.649 98.5921 147.649 99.0254V101.732C147.649 101.926 147.666 102.132 147.698 102.35C147.734 102.569 147.785 102.757 147.854 102.914V103H146.817C146.767 102.885 146.727 102.733 146.699 102.543C146.67 102.35 146.656 102.171 146.656 102.006ZM146.828 99.4766L146.838 100.175H145.834C145.551 100.175 145.299 100.198 145.077 100.245C144.855 100.288 144.668 100.354 144.518 100.443C144.368 100.533 144.253 100.646 144.174 100.782C144.096 100.914 144.056 101.07 144.056 101.249C144.056 101.432 144.097 101.598 144.18 101.749C144.262 101.899 144.386 102.019 144.55 102.108C144.719 102.194 144.924 102.237 145.168 102.237C145.472 102.237 145.741 102.173 145.974 102.044C146.206 101.915 146.391 101.757 146.527 101.571C146.667 101.385 146.742 101.204 146.752 101.029L147.177 101.507C147.152 101.657 147.084 101.824 146.973 102.006C146.862 102.189 146.713 102.364 146.527 102.533C146.344 102.697 146.126 102.835 145.872 102.946C145.621 103.054 145.338 103.107 145.023 103.107C144.629 103.107 144.284 103.03 143.986 102.876C143.693 102.722 143.464 102.517 143.299 102.259C143.138 101.997 143.057 101.706 143.057 101.383C143.057 101.072 143.118 100.798 143.24 100.562C143.361 100.322 143.537 100.123 143.766 99.9653C143.995 99.8042 144.271 99.6825 144.593 99.6001C144.916 99.5177 145.275 99.4766 145.673 99.4766H146.828ZM151.646 97.1885V97.9512H148.503V97.1885H151.646ZM149.567 95.7759H150.561V101.561C150.561 101.757 150.591 101.906 150.652 102.006C150.713 102.107 150.792 102.173 150.888 102.205C150.985 102.237 151.089 102.253 151.2 102.253C151.282 102.253 151.368 102.246 151.458 102.232C151.551 102.214 151.62 102.2 151.667 102.189L151.672 103C151.594 103.025 151.49 103.048 151.361 103.07C151.236 103.095 151.083 103.107 150.904 103.107C150.661 103.107 150.437 103.059 150.233 102.962C150.029 102.866 149.866 102.705 149.744 102.479C149.626 102.25 149.567 101.942 149.567 101.555V95.7759ZM153.891 97.1885V103H152.892V97.1885H153.891ZM152.816 95.647C152.816 95.4858 152.865 95.3498 152.961 95.2388C153.062 95.1278 153.208 95.0723 153.402 95.0723C153.592 95.0723 153.737 95.1278 153.837 95.2388C153.941 95.3498 153.993 95.4858 153.993 95.647C153.993 95.8009 153.941 95.9334 153.837 96.0444C153.737 96.1519 153.592 96.2056 153.402 96.2056C153.208 96.2056 153.062 96.1519 152.961 96.0444C152.865 95.9334 152.816 95.8009 152.816 95.647ZM155.223 100.159V100.035C155.223 99.6162 155.284 99.2277 155.405 98.8696C155.527 98.508 155.702 98.1947 155.932 97.9297C156.161 97.6611 156.438 97.4535 156.764 97.3066C157.09 97.1562 157.455 97.0811 157.86 97.0811C158.268 97.0811 158.635 97.1562 158.961 97.3066C159.29 97.4535 159.57 97.6611 159.799 97.9297C160.032 98.1947 160.209 98.508 160.331 98.8696C160.452 99.2277 160.513 99.6162 160.513 100.035V100.159C160.513 100.578 160.452 100.966 160.331 101.324C160.209 101.682 160.032 101.996 159.799 102.264C159.57 102.529 159.292 102.737 158.966 102.887C158.644 103.034 158.279 103.107 157.871 103.107C157.462 103.107 157.095 103.034 156.77 102.887C156.444 102.737 156.164 102.529 155.932 102.264C155.702 101.996 155.527 101.682 155.405 101.324C155.284 100.966 155.223 100.578 155.223 100.159ZM156.216 100.035V100.159C156.216 100.449 156.25 100.723 156.318 100.98C156.386 101.235 156.488 101.46 156.625 101.657C156.764 101.854 156.938 102.01 157.146 102.125C157.353 102.236 157.595 102.291 157.871 102.291C158.143 102.291 158.381 102.236 158.585 102.125C158.793 102.01 158.965 101.854 159.101 101.657C159.237 101.46 159.339 101.235 159.407 100.98C159.478 100.723 159.514 100.449 159.514 100.159V100.035C159.514 99.7487 159.478 99.4784 159.407 99.2241C159.339 98.9663 159.235 98.7389 159.095 98.542C158.959 98.3415 158.787 98.1839 158.58 98.0693C158.375 97.9548 158.136 97.8975 157.86 97.8975C157.588 97.8975 157.348 97.9548 157.14 98.0693C156.936 98.1839 156.764 98.3415 156.625 98.542C156.488 98.7389 156.386 98.9663 156.318 99.2241C156.25 99.4784 156.216 99.7487 156.216 100.035ZM162.753 98.4292V103H161.759V97.1885H162.699L162.753 98.4292ZM162.517 99.874L162.103 99.8579C162.107 99.4604 162.166 99.0934 162.28 98.7568C162.395 98.4167 162.556 98.1213 162.764 97.8706C162.971 97.62 163.218 97.4266 163.505 97.2905C163.795 97.1509 164.115 97.0811 164.466 97.0811C164.753 97.0811 165.011 97.1204 165.24 97.1992C165.469 97.2744 165.664 97.3962 165.825 97.5645C165.99 97.7327 166.115 97.9512 166.201 98.2197C166.287 98.4847 166.33 98.8088 166.33 99.1919V103H165.331V99.1812C165.331 98.8768 165.286 98.6333 165.197 98.4507C165.107 98.2645 164.977 98.1302 164.805 98.0479C164.633 97.9619 164.422 97.9189 164.171 97.9189C163.924 97.9189 163.698 97.9709 163.494 98.0747C163.294 98.1785 163.12 98.3218 162.973 98.5044C162.83 98.687 162.717 98.8965 162.635 99.1328C162.556 99.3656 162.517 99.6126 162.517 99.874ZM170.305 100.159V100.035C170.305 99.6162 170.366 99.2277 170.487 98.8696C170.609 98.508 170.785 98.1947 171.014 97.9297C171.243 97.6611 171.52 97.4535 171.846 97.3066C172.172 97.1562 172.537 97.0811 172.942 97.0811C173.35 97.0811 173.717 97.1562 174.043 97.3066C174.372 97.4535 174.652 97.6611 174.881 97.9297C175.114 98.1947 175.291 98.508 175.413 98.8696C175.534 99.2277 175.595 99.6162 175.595 100.035V100.159C175.595 100.578 175.534 100.966 175.413 101.324C175.291 101.682 175.114 101.996 174.881 102.264C174.652 102.529 174.374 102.737 174.048 102.887C173.726 103.034 173.361 103.107 172.953 103.107C172.544 103.107 172.177 103.034 171.852 102.887C171.526 102.737 171.246 102.529 171.014 102.264C170.785 101.996 170.609 101.682 170.487 101.324C170.366 100.966 170.305 100.578 170.305 100.159ZM171.298 100.035V100.159C171.298 100.449 171.332 100.723 171.4 100.98C171.468 101.235 171.57 101.46 171.707 101.657C171.846 101.854 172.02 102.01 172.228 102.125C172.435 102.236 172.677 102.291 172.953 102.291C173.225 102.291 173.463 102.236 173.667 102.125C173.875 102.01 174.047 101.854 174.183 101.657C174.319 101.46 174.421 101.235 174.489 100.98C174.56 100.723 174.596 100.449 174.596 100.159V100.035C174.596 99.7487 174.56 99.4784 174.489 99.2241C174.421 98.9663 174.317 98.7389 174.177 98.542C174.041 98.3415 173.869 98.1839 173.662 98.0693C173.458 97.9548 173.218 97.8975 172.942 97.8975C172.67 97.8975 172.43 97.9548 172.222 98.0693C172.018 98.1839 171.846 98.3415 171.707 98.542C171.57 98.7389 171.468 98.9663 171.4 99.2241C171.332 99.4784 171.298 99.7487 171.298 100.035ZM178.324 103H177.33V96.5762C177.33 96.1572 177.405 95.8045 177.556 95.5181C177.71 95.228 177.93 95.0096 178.216 94.8628C178.503 94.7124 178.843 94.6372 179.237 94.6372C179.351 94.6372 179.466 94.6444 179.581 94.6587C179.699 94.673 179.813 94.6945 179.924 94.7231L179.871 95.5342C179.795 95.5163 179.709 95.5037 179.613 95.4966C179.52 95.4894 179.427 95.4858 179.333 95.4858C179.122 95.4858 178.94 95.5288 178.786 95.6147C178.635 95.6971 178.521 95.8188 178.442 95.98C178.363 96.1411 178.324 96.3398 178.324 96.5762V103ZM179.559 97.1885V97.9512H176.412V97.1885H179.559ZM184.388 98.4292V103H183.394V97.1885H184.334L184.388 98.4292ZM184.151 99.874L183.738 99.8579C183.741 99.4604 183.8 99.0934 183.915 98.7568C184.03 98.4167 184.191 98.1213 184.398 97.8706C184.606 97.62 184.853 97.4266 185.14 97.2905C185.43 97.1509 185.75 97.0811 186.101 97.0811C186.388 97.0811 186.645 97.1204 186.875 97.1992C187.104 97.2744 187.299 97.3962 187.46 97.5645C187.625 97.7327 187.75 97.9512 187.836 98.2197C187.922 98.4847 187.965 98.8088 187.965 99.1919V103H186.966V99.1812C186.966 98.8768 186.921 98.6333 186.832 98.4507C186.742 98.2645 186.611 98.1302 186.439 98.0479C186.268 97.9619 186.056 97.9189 185.806 97.9189C185.559 97.9189 185.333 97.9709 185.129 98.0747C184.928 98.1785 184.755 98.3218 184.608 98.5044C184.465 98.687 184.352 98.8965 184.27 99.1328C184.191 99.3656 184.151 99.6126 184.151 99.874ZM191.886 103.107C191.481 103.107 191.114 103.039 190.785 102.903C190.459 102.764 190.178 102.569 189.941 102.318C189.709 102.067 189.53 101.77 189.404 101.426C189.279 101.083 189.216 100.707 189.216 100.298V100.073C189.216 99.6001 189.286 99.1794 189.426 98.8105C189.565 98.4382 189.755 98.123 189.995 97.8652C190.235 97.6074 190.507 97.4123 190.812 97.2798C191.116 97.1473 191.431 97.0811 191.757 97.0811C192.172 97.0811 192.53 97.1527 192.831 97.2959C193.135 97.4391 193.384 97.6396 193.578 97.8975C193.771 98.1517 193.914 98.4525 194.007 98.7998C194.1 99.1436 194.147 99.5195 194.147 99.9277V100.374H189.807V99.5625H193.153V99.4873C193.139 99.2295 193.085 98.9788 192.992 98.7354C192.903 98.4919 192.759 98.2913 192.562 98.1338C192.366 97.9762 192.097 97.8975 191.757 97.8975C191.531 97.8975 191.324 97.9458 191.134 98.0425C190.944 98.1356 190.781 98.2752 190.645 98.4614C190.509 98.6476 190.403 98.875 190.328 99.1436C190.253 99.4121 190.215 99.7218 190.215 100.073V100.298C190.215 100.574 190.253 100.834 190.328 101.077C190.407 101.317 190.52 101.528 190.667 101.711C190.817 101.894 190.998 102.037 191.209 102.141C191.424 102.244 191.667 102.296 191.939 102.296C192.29 102.296 192.588 102.225 192.831 102.082C193.075 101.938 193.288 101.747 193.47 101.507L194.072 101.985C193.946 102.175 193.787 102.355 193.594 102.527C193.4 102.699 193.162 102.839 192.879 102.946C192.6 103.054 192.269 103.107 191.886 103.107ZM196.779 101.969L198.272 97.1885H198.927L198.798 98.1392L197.278 103H196.639L196.779 101.969ZM195.774 97.1885L197.047 102.022L197.139 103H196.467L194.781 97.1885H195.774ZM200.356 101.985L201.57 97.1885H202.558L200.872 103H200.206L200.356 101.985ZM199.072 97.1885L200.533 101.888L200.7 103H200.066L198.503 98.1284L198.374 97.1885H199.072ZM207.387 94.75V103H206.388V94.75H207.387ZM208.719 100.159V100.035C208.719 99.6162 208.78 99.2277 208.901 98.8696C209.023 98.508 209.199 98.1947 209.428 97.9297C209.657 97.6611 209.934 97.4535 210.26 97.3066C210.586 97.1562 210.951 97.0811 211.356 97.0811C211.764 97.0811 212.131 97.1562 212.457 97.3066C212.786 97.4535 213.066 97.6611 213.295 97.9297C213.528 98.1947 213.705 98.508 213.827 98.8696C213.948 99.2277 214.009 99.6162 214.009 100.035V100.159C214.009 100.578 213.948 100.966 213.827 101.324C213.705 101.682 213.528 101.996 213.295 102.264C213.066 102.529 212.788 102.737 212.462 102.887C212.14 103.034 211.775 103.107 211.367 103.107C210.958 103.107 210.591 103.034 210.266 102.887C209.94 102.737 209.66 102.529 209.428 102.264C209.199 101.996 209.023 101.682 208.901 101.324C208.78 100.966 208.719 100.578 208.719 100.159ZM209.712 100.035V100.159C209.712 100.449 209.746 100.723 209.814 100.98C209.882 101.235 209.985 101.46 210.121 101.657C210.26 101.854 210.434 102.01 210.642 102.125C210.849 102.236 211.091 102.291 211.367 102.291C211.639 102.291 211.877 102.236 212.081 102.125C212.289 102.01 212.461 101.854 212.597 101.657C212.733 101.46 212.835 101.235 212.903 100.98C212.974 100.723 213.01 100.449 213.01 100.159V100.035C213.01 99.7487 212.974 99.4784 212.903 99.2241C212.835 98.9663 212.731 98.7389 212.591 98.542C212.455 98.3415 212.283 98.1839 212.076 98.0693C211.872 97.9548 211.632 97.8975 211.356 97.8975C211.084 97.8975 210.844 97.9548 210.636 98.0693C210.432 98.1839 210.26 98.3415 210.121 98.542C209.985 98.7389 209.882 98.9663 209.814 99.2241C209.746 99.4784 209.712 99.7487 209.712 100.035ZM219.021 97.1885H219.923V102.876C219.923 103.389 219.819 103.825 219.611 104.187C219.404 104.549 219.114 104.823 218.741 105.009C218.372 105.199 217.946 105.293 217.463 105.293C217.262 105.293 217.026 105.261 216.754 105.197C216.485 105.136 216.22 105.03 215.959 104.88C215.701 104.733 215.485 104.534 215.309 104.284L215.83 103.693C216.074 103.986 216.328 104.191 216.593 104.305C216.861 104.42 217.126 104.477 217.388 104.477C217.703 104.477 217.975 104.418 218.204 104.3C218.433 104.182 218.611 104.006 218.736 103.773C218.865 103.544 218.929 103.261 218.929 102.925V98.4668L219.021 97.1885ZM215.019 100.159V100.046C215.019 99.6019 215.071 99.1991 215.175 98.8374C215.282 98.4722 215.434 98.1589 215.631 97.8975C215.832 97.6361 216.074 97.4355 216.356 97.2959C216.639 97.1527 216.958 97.0811 217.312 97.0811C217.678 97.0811 217.996 97.1455 218.269 97.2744C218.544 97.3997 218.777 97.5841 218.967 97.8276C219.16 98.0675 219.312 98.3576 219.423 98.6978C219.534 99.0379 219.611 99.4229 219.654 99.8525V100.347C219.615 100.773 219.538 101.156 219.423 101.496C219.312 101.836 219.16 102.126 218.967 102.366C218.777 102.606 218.544 102.791 218.269 102.919C217.993 103.045 217.671 103.107 217.302 103.107C216.954 103.107 216.639 103.034 216.356 102.887C216.077 102.74 215.837 102.535 215.637 102.27C215.436 102.005 215.282 101.693 215.175 101.335C215.071 100.973 215.019 100.581 215.019 100.159ZM216.013 100.046V100.159C216.013 100.449 216.041 100.721 216.099 100.975C216.16 101.229 216.251 101.453 216.373 101.646C216.498 101.84 216.657 101.992 216.851 102.103C217.044 102.21 217.275 102.264 217.543 102.264C217.873 102.264 218.145 102.194 218.36 102.055C218.575 101.915 218.745 101.731 218.87 101.501C218.999 101.272 219.099 101.023 219.171 100.755V99.4604C219.132 99.2635 219.071 99.0737 218.988 98.8911C218.91 98.7049 218.806 98.5402 218.677 98.397C218.551 98.2502 218.396 98.1338 218.209 98.0479C218.023 97.9619 217.805 97.9189 217.554 97.9189C217.282 97.9189 217.048 97.9762 216.851 98.0908C216.657 98.2018 216.498 98.3558 216.373 98.5527C216.251 98.7461 216.16 98.9717 216.099 99.2295C216.041 99.4837 216.013 99.7559 216.013 100.046ZM222.512 97.1885V103H221.513V97.1885H222.512ZM221.438 95.647C221.438 95.4858 221.486 95.3498 221.583 95.2388C221.683 95.1278 221.83 95.0723 222.023 95.0723C222.213 95.0723 222.358 95.1278 222.458 95.2388C222.562 95.3498 222.614 95.4858 222.614 95.647C222.614 95.8009 222.562 95.9334 222.458 96.0444C222.358 96.1519 222.213 96.2056 222.023 96.2056C221.83 96.2056 221.683 96.1519 221.583 96.0444C221.486 95.9334 221.438 95.8009 221.438 95.647ZM227.491 101.458C227.491 101.315 227.458 101.183 227.394 101.061C227.333 100.936 227.206 100.823 227.013 100.723C226.823 100.619 226.536 100.529 226.153 100.454C225.831 100.386 225.539 100.306 225.278 100.212C225.02 100.119 224.8 100.007 224.617 99.874C224.438 99.7415 224.3 99.5858 224.204 99.4067C224.107 99.2277 224.059 99.0182 224.059 98.7783C224.059 98.5492 224.109 98.3325 224.209 98.1284C224.313 97.9243 224.458 97.7435 224.644 97.5859C224.834 97.4284 225.061 97.3049 225.326 97.2153C225.591 97.1258 225.887 97.0811 226.212 97.0811C226.678 97.0811 227.075 97.1634 227.405 97.3281C227.734 97.4928 227.987 97.7131 228.162 97.9888C228.338 98.2609 228.425 98.5635 228.425 98.8965H227.432C227.432 98.7354 227.383 98.5796 227.287 98.4292C227.194 98.2752 227.056 98.1481 226.873 98.0479C226.694 97.9476 226.474 97.8975 226.212 97.8975C225.937 97.8975 225.713 97.9404 225.541 98.0264C225.373 98.1087 225.249 98.2144 225.17 98.3433C225.095 98.4722 225.058 98.6082 225.058 98.7515C225.058 98.8589 225.076 98.9556 225.111 99.0415C225.151 99.1239 225.219 99.2008 225.315 99.2725C225.412 99.3405 225.548 99.4049 225.724 99.4658C225.899 99.5267 226.123 99.5876 226.395 99.6484C226.871 99.7559 227.263 99.8848 227.571 100.035C227.879 100.186 228.108 100.37 228.259 100.588C228.409 100.807 228.484 101.072 228.484 101.383C228.484 101.638 228.431 101.87 228.323 102.082C228.219 102.293 228.067 102.475 227.867 102.629C227.67 102.78 227.433 102.898 227.158 102.984C226.886 103.066 226.579 103.107 226.239 103.107C225.727 103.107 225.294 103.016 224.939 102.833C224.585 102.651 224.316 102.415 224.134 102.125C223.951 101.834 223.86 101.528 223.86 101.206H224.859C224.873 101.478 224.952 101.695 225.095 101.856C225.238 102.014 225.414 102.126 225.622 102.194C225.829 102.259 226.035 102.291 226.239 102.291C226.511 102.291 226.739 102.255 226.921 102.184C227.108 102.112 227.249 102.014 227.346 101.888C227.442 101.763 227.491 101.62 227.491 101.458ZM232.223 97.1885V97.9512H229.081V97.1885H232.223ZM230.144 95.7759H231.138V101.561C231.138 101.757 231.168 101.906 231.229 102.006C231.29 102.107 231.369 102.173 231.465 102.205C231.562 102.237 231.666 102.253 231.777 102.253C231.859 102.253 231.945 102.246 232.035 102.232C232.128 102.214 232.198 102.2 232.244 102.189L232.25 103C232.171 103.025 232.067 103.048 231.938 103.07C231.813 103.095 231.66 103.107 231.481 103.107C231.238 103.107 231.014 103.059 230.81 102.962C230.606 102.866 230.443 102.705 230.321 102.479C230.203 102.25 230.144 101.942 230.144 101.555V95.7759ZM234.468 97.1885V103H233.469V97.1885H234.468ZM233.394 95.647C233.394 95.4858 233.442 95.3498 233.539 95.2388C233.639 95.1278 233.786 95.0723 233.979 95.0723C234.169 95.0723 234.314 95.1278 234.414 95.2388C234.518 95.3498 234.57 95.4858 234.57 95.647C234.57 95.8009 234.518 95.9334 234.414 96.0444C234.314 96.1519 234.169 96.2056 233.979 96.2056C233.786 96.2056 233.639 96.1519 233.539 96.0444C233.442 95.9334 233.394 95.8009 233.394 95.647ZM238.389 102.291C238.625 102.291 238.843 102.243 239.044 102.146C239.244 102.049 239.409 101.917 239.538 101.749C239.667 101.577 239.74 101.382 239.758 101.163H240.704C240.686 101.507 240.569 101.827 240.354 102.125C240.143 102.418 239.866 102.656 239.522 102.839C239.178 103.018 238.8 103.107 238.389 103.107C237.952 103.107 237.57 103.03 237.245 102.876C236.922 102.722 236.654 102.511 236.439 102.243C236.228 101.974 236.068 101.666 235.961 101.319C235.857 100.968 235.805 100.597 235.805 100.207V99.9814C235.805 99.5911 235.857 99.2223 235.961 98.875C236.068 98.5241 236.228 98.2144 236.439 97.9458C236.654 97.6772 236.922 97.466 237.245 97.312C237.57 97.158 237.952 97.0811 238.389 97.0811C238.843 97.0811 239.241 97.1742 239.581 97.3604C239.921 97.543 240.188 97.7936 240.381 98.1123C240.578 98.4274 240.686 98.7855 240.704 99.1865H239.758C239.74 98.9466 239.672 98.73 239.554 98.5366C239.44 98.3433 239.282 98.1893 239.082 98.0747C238.885 97.9565 238.654 97.8975 238.389 97.8975C238.084 97.8975 237.828 97.9583 237.621 98.0801C237.417 98.1982 237.254 98.3594 237.132 98.5635C237.014 98.764 236.928 98.9878 236.874 99.2349C236.824 99.4784 236.799 99.7272 236.799 99.9814V100.207C236.799 100.461 236.824 100.712 236.874 100.959C236.924 101.206 237.008 101.43 237.126 101.63C237.248 101.831 237.411 101.992 237.615 102.114C237.823 102.232 238.081 102.291 238.389 102.291ZM245.543 98.3057V105.234H244.544V97.1885H245.457L245.543 98.3057ZM249.458 100.046V100.159C249.458 100.581 249.408 100.973 249.308 101.335C249.208 101.693 249.061 102.005 248.868 102.27C248.678 102.535 248.443 102.74 248.164 102.887C247.885 103.034 247.564 103.107 247.203 103.107C246.834 103.107 246.508 103.047 246.225 102.925C245.942 102.803 245.702 102.626 245.505 102.393C245.308 102.16 245.151 101.881 245.033 101.555C244.918 101.229 244.839 100.862 244.796 100.454V99.8525C244.839 99.4229 244.92 99.0379 245.038 98.6978C245.156 98.3576 245.312 98.0675 245.505 97.8276C245.702 97.5841 245.94 97.3997 246.22 97.2744C246.499 97.1455 246.821 97.0811 247.187 97.0811C247.552 97.0811 247.876 97.1527 248.159 97.2959C248.442 97.4355 248.68 97.6361 248.873 97.8975C249.066 98.1589 249.211 98.4722 249.308 98.8374C249.408 99.1991 249.458 99.6019 249.458 100.046ZM248.459 100.159V100.046C248.459 99.7559 248.429 99.4837 248.368 99.2295C248.307 98.9717 248.212 98.7461 248.083 98.5527C247.958 98.3558 247.797 98.2018 247.6 98.0908C247.403 97.9762 247.169 97.9189 246.896 97.9189C246.646 97.9189 246.427 97.9619 246.241 98.0479C246.059 98.1338 245.903 98.2502 245.774 98.397C245.645 98.5402 245.539 98.7049 245.457 98.8911C245.378 99.0737 245.319 99.2635 245.28 99.4604V100.852C245.351 101.102 245.452 101.339 245.581 101.561C245.709 101.779 245.881 101.956 246.096 102.092C246.311 102.225 246.581 102.291 246.907 102.291C247.176 102.291 247.407 102.236 247.6 102.125C247.797 102.01 247.958 101.854 248.083 101.657C248.212 101.46 248.307 101.235 248.368 100.98C248.429 100.723 248.459 100.449 248.459 100.159ZM250.463 100.159V100.035C250.463 99.6162 250.524 99.2277 250.646 98.8696C250.767 98.508 250.943 98.1947 251.172 97.9297C251.401 97.6611 251.679 97.4535 252.004 97.3066C252.33 97.1562 252.695 97.0811 253.1 97.0811C253.508 97.0811 253.875 97.1562 254.201 97.3066C254.531 97.4535 254.81 97.6611 255.039 97.9297C255.272 98.1947 255.449 98.508 255.571 98.8696C255.693 99.2277 255.753 99.6162 255.753 100.035V100.159C255.753 100.578 255.693 100.966 255.571 101.324C255.449 101.682 255.272 101.996 255.039 102.264C254.81 102.529 254.532 102.737 254.207 102.887C253.884 103.034 253.519 103.107 253.111 103.107C252.703 103.107 252.336 103.034 252.01 102.887C251.684 102.737 251.405 102.529 251.172 102.264C250.943 101.996 250.767 101.682 250.646 101.324C250.524 100.966 250.463 100.578 250.463 100.159ZM251.457 100.035V100.159C251.457 100.449 251.491 100.723 251.559 100.98C251.627 101.235 251.729 101.46 251.865 101.657C252.004 101.854 252.178 102.01 252.386 102.125C252.593 102.236 252.835 102.291 253.111 102.291C253.383 102.291 253.621 102.236 253.825 102.125C254.033 102.01 254.205 101.854 254.341 101.657C254.477 101.46 254.579 101.235 254.647 100.98C254.719 100.723 254.754 100.449 254.754 100.159V100.035C254.754 99.7487 254.719 99.4784 254.647 99.2241C254.579 98.9663 254.475 98.7389 254.335 98.542C254.199 98.3415 254.028 98.1839 253.82 98.0693C253.616 97.9548 253.376 97.8975 253.1 97.8975C252.828 97.8975 252.588 97.9548 252.38 98.0693C252.176 98.1839 252.004 98.3415 251.865 98.542C251.729 98.7389 251.627 98.9663 251.559 99.2241C251.491 99.4784 251.457 99.7487 251.457 100.035ZM260.383 101.458C260.383 101.315 260.351 101.183 260.287 101.061C260.226 100.936 260.099 100.823 259.905 100.723C259.715 100.619 259.429 100.529 259.046 100.454C258.724 100.386 258.432 100.306 258.17 100.212C257.913 100.119 257.692 100.007 257.51 99.874C257.331 99.7415 257.193 99.5858 257.096 99.4067C257 99.2277 256.951 99.0182 256.951 98.7783C256.951 98.5492 257.001 98.3325 257.102 98.1284C257.205 97.9243 257.35 97.7435 257.537 97.5859C257.726 97.4284 257.954 97.3049 258.219 97.2153C258.484 97.1258 258.779 97.0811 259.105 97.0811C259.57 97.0811 259.968 97.1634 260.297 97.3281C260.627 97.4928 260.879 97.7131 261.055 97.9888C261.23 98.2609 261.318 98.5635 261.318 98.8965H260.324C260.324 98.7354 260.276 98.5796 260.179 98.4292C260.086 98.2752 259.948 98.1481 259.766 98.0479C259.587 97.9476 259.366 97.8975 259.105 97.8975C258.829 97.8975 258.605 97.9404 258.434 98.0264C258.265 98.1087 258.142 98.2144 258.063 98.3433C257.988 98.4722 257.95 98.6082 257.95 98.7515C257.95 98.8589 257.968 98.9556 258.004 99.0415C258.043 99.1239 258.111 99.2008 258.208 99.2725C258.305 99.3405 258.441 99.4049 258.616 99.4658C258.792 99.5267 259.015 99.5876 259.288 99.6484C259.764 99.7559 260.156 99.8848 260.464 100.035C260.772 100.186 261.001 100.37 261.151 100.588C261.302 100.807 261.377 101.072 261.377 101.383C261.377 101.638 261.323 101.87 261.216 102.082C261.112 102.293 260.96 102.475 260.759 102.629C260.562 102.78 260.326 102.898 260.05 102.984C259.778 103.066 259.472 103.107 259.132 103.107C258.62 103.107 258.187 103.016 257.832 102.833C257.478 102.651 257.209 102.415 257.026 102.125C256.844 101.834 256.752 101.528 256.752 101.206H257.751C257.766 101.478 257.845 101.695 257.988 101.856C258.131 102.014 258.306 102.126 258.514 102.194C258.722 102.259 258.928 102.291 259.132 102.291C259.404 102.291 259.631 102.255 259.814 102.184C260 102.112 260.142 102.014 260.238 101.888C260.335 101.763 260.383 101.62 260.383 101.458ZM266.066 101.458C266.066 101.315 266.034 101.183 265.969 101.061C265.908 100.936 265.781 100.823 265.588 100.723C265.398 100.619 265.112 100.529 264.729 100.454C264.406 100.386 264.114 100.306 263.853 100.212C263.595 100.119 263.375 100.007 263.192 99.874C263.013 99.7415 262.875 99.5858 262.779 99.4067C262.682 99.2277 262.634 99.0182 262.634 98.7783C262.634 98.5492 262.684 98.3325 262.784 98.1284C262.888 97.9243 263.033 97.7435 263.219 97.5859C263.409 97.4284 263.636 97.3049 263.901 97.2153C264.166 97.1258 264.462 97.0811 264.788 97.0811C265.253 97.0811 265.651 97.1634 265.98 97.3281C266.309 97.4928 266.562 97.7131 266.737 97.9888C266.913 98.2609 267 98.5635 267 98.8965H266.007C266.007 98.7354 265.958 98.5796 265.862 98.4292C265.769 98.2752 265.631 98.1481 265.448 98.0479C265.269 97.9476 265.049 97.8975 264.788 97.8975C264.512 97.8975 264.288 97.9404 264.116 98.0264C263.948 98.1087 263.824 98.2144 263.746 98.3433C263.67 98.4722 263.633 98.6082 263.633 98.7515C263.633 98.8589 263.651 98.9556 263.687 99.0415C263.726 99.1239 263.794 99.2008 263.891 99.2725C263.987 99.3405 264.123 99.4049 264.299 99.4658C264.474 99.5267 264.698 99.5876 264.97 99.6484C265.446 99.7559 265.839 99.8848 266.146 100.035C266.454 100.186 266.684 100.37 266.834 100.588C266.984 100.807 267.06 101.072 267.06 101.383C267.06 101.638 267.006 101.87 266.898 102.082C266.795 102.293 266.642 102.475 266.442 102.629C266.245 102.78 266.009 102.898 265.733 102.984C265.461 103.066 265.155 103.107 264.814 103.107C264.302 103.107 263.869 103.016 263.515 102.833C263.16 102.651 262.892 102.415 262.709 102.125C262.526 101.834 262.435 101.528 262.435 101.206H263.434C263.448 101.478 263.527 101.695 263.67 101.856C263.814 102.014 263.989 102.126 264.197 102.194C264.404 102.259 264.61 102.291 264.814 102.291C265.087 102.291 265.314 102.255 265.497 102.184C265.683 102.112 265.824 102.014 265.921 101.888C266.018 101.763 266.066 101.62 266.066 101.458ZM269.444 97.1885V103H268.445V97.1885H269.444ZM268.37 95.647C268.37 95.4858 268.418 95.3498 268.515 95.2388C268.615 95.1278 268.762 95.0723 268.956 95.0723C269.145 95.0723 269.29 95.1278 269.391 95.2388C269.494 95.3498 269.546 95.4858 269.546 95.647C269.546 95.8009 269.494 95.9334 269.391 96.0444C269.29 96.1519 269.145 96.2056 268.956 96.2056C268.762 96.2056 268.615 96.1519 268.515 96.0444C268.418 95.9334 268.37 95.8009 268.37 95.647ZM271.034 94.75H272.033V101.872L271.947 103H271.034V94.75ZM275.959 100.046V100.159C275.959 100.581 275.909 100.973 275.809 101.335C275.709 101.693 275.562 102.005 275.369 102.27C275.175 102.535 274.939 102.74 274.66 102.887C274.38 103.034 274.06 103.107 273.698 103.107C273.329 103.107 273.005 103.045 272.726 102.919C272.45 102.791 272.218 102.606 272.028 102.366C271.838 102.126 271.686 101.836 271.571 101.496C271.46 101.156 271.383 100.773 271.34 100.347V99.8525C271.383 99.4229 271.46 99.0379 271.571 98.6978C271.686 98.3576 271.838 98.0675 272.028 97.8276C272.218 97.5841 272.45 97.3997 272.726 97.2744C273.002 97.1455 273.322 97.0811 273.688 97.0811C274.053 97.0811 274.377 97.1527 274.66 97.2959C274.943 97.4355 275.179 97.6361 275.369 97.8975C275.562 98.1589 275.709 98.4722 275.809 98.8374C275.909 99.1991 275.959 99.6019 275.959 100.046ZM274.96 100.159V100.046C274.96 99.7559 274.934 99.4837 274.88 99.2295C274.826 98.9717 274.74 98.7461 274.622 98.5527C274.504 98.3558 274.348 98.2018 274.155 98.0908C273.961 97.9762 273.723 97.9189 273.44 97.9189C273.19 97.9189 272.971 97.9619 272.785 98.0479C272.603 98.1338 272.447 98.2502 272.318 98.397C272.189 98.5402 272.083 98.7049 272.001 98.8911C271.922 99.0737 271.863 99.2635 271.824 99.4604V100.755C271.881 101.006 271.974 101.247 272.103 101.48C272.236 101.709 272.411 101.897 272.629 102.044C272.851 102.191 273.125 102.264 273.451 102.264C273.72 102.264 273.949 102.21 274.139 102.103C274.332 101.992 274.488 101.84 274.606 101.646C274.728 101.453 274.817 101.229 274.875 100.975C274.932 100.721 274.96 100.449 274.96 100.159ZM278.296 97.1885V103H277.297V97.1885H278.296ZM277.222 95.647C277.222 95.4858 277.27 95.3498 277.367 95.2388C277.467 95.1278 277.614 95.0723 277.807 95.0723C277.997 95.0723 278.142 95.1278 278.242 95.2388C278.346 95.3498 278.398 95.4858 278.398 95.647C278.398 95.8009 278.346 95.9334 278.242 96.0444C278.142 96.1519 277.997 96.2056 277.807 96.2056C277.614 96.2056 277.467 96.1519 277.367 96.0444C277.27 95.9334 277.222 95.8009 277.222 95.647ZM280.971 94.75V103H279.972V94.75H280.971ZM283.646 97.1885V103H282.646V97.1885H283.646ZM282.571 95.647C282.571 95.4858 282.62 95.3498 282.716 95.2388C282.817 95.1278 282.963 95.0723 283.157 95.0723C283.347 95.0723 283.492 95.1278 283.592 95.2388C283.696 95.3498 283.748 95.4858 283.748 95.647C283.748 95.8009 283.696 95.9334 283.592 96.0444C283.492 96.1519 283.347 96.2056 283.157 96.2056C282.963 96.2056 282.817 96.1519 282.716 96.0444C282.62 95.9334 282.571 95.8009 282.571 95.647ZM287.674 97.1885V97.9512H284.532V97.1885H287.674ZM285.595 95.7759H286.589V101.561C286.589 101.757 286.619 101.906 286.68 102.006C286.741 102.107 286.82 102.173 286.917 102.205C287.013 102.237 287.117 102.253 287.228 102.253C287.31 102.253 287.396 102.246 287.486 102.232C287.579 102.214 287.649 102.2 287.695 102.189L287.701 103C287.622 103.025 287.518 103.048 287.389 103.07C287.264 103.095 287.112 103.107 286.933 103.107C286.689 103.107 286.465 103.059 286.261 102.962C286.057 102.866 285.894 102.705 285.772 102.479C285.654 102.25 285.595 101.942 285.595 101.555V95.7759ZM289.919 97.1885V103H288.92V97.1885H289.919ZM288.845 95.647C288.845 95.4858 288.893 95.3498 288.99 95.2388C289.09 95.1278 289.237 95.0723 289.43 95.0723C289.62 95.0723 289.765 95.1278 289.865 95.2388C289.969 95.3498 290.021 95.4858 290.021 95.647C290.021 95.8009 289.969 95.9334 289.865 96.0444C289.765 96.1519 289.62 96.2056 289.43 96.2056C289.237 96.2056 289.09 96.1519 288.99 96.0444C288.893 95.9334 288.845 95.8009 288.845 95.647ZM293.926 103.107C293.521 103.107 293.154 103.039 292.825 102.903C292.499 102.764 292.218 102.569 291.981 102.318C291.749 102.067 291.57 101.77 291.444 101.426C291.319 101.083 291.256 100.707 291.256 100.298V100.073C291.256 99.6001 291.326 99.1794 291.466 98.8105C291.605 98.4382 291.795 98.123 292.035 97.8652C292.275 97.6074 292.547 97.4123 292.852 97.2798C293.156 97.1473 293.471 97.0811 293.797 97.0811C294.212 97.0811 294.57 97.1527 294.871 97.2959C295.175 97.4391 295.424 97.6396 295.618 97.8975C295.811 98.1517 295.954 98.4525 296.047 98.7998C296.14 99.1436 296.187 99.5195 296.187 99.9277V100.374H291.847V99.5625H295.193V99.4873C295.179 99.2295 295.125 98.9788 295.032 98.7354C294.943 98.4919 294.799 98.2913 294.603 98.1338C294.406 97.9762 294.137 97.8975 293.797 97.8975C293.571 97.8975 293.364 97.9458 293.174 98.0425C292.984 98.1356 292.821 98.2752 292.685 98.4614C292.549 98.6476 292.443 98.875 292.368 99.1436C292.293 99.4121 292.255 99.7218 292.255 100.073V100.298C292.255 100.574 292.293 100.834 292.368 101.077C292.447 101.317 292.56 101.528 292.707 101.711C292.857 101.894 293.038 102.037 293.249 102.141C293.464 102.244 293.707 102.296 293.979 102.296C294.33 102.296 294.628 102.225 294.871 102.082C295.115 101.938 295.328 101.747 295.51 101.507L296.112 101.985C295.986 102.175 295.827 102.355 295.634 102.527C295.44 102.699 295.202 102.839 294.919 102.946C294.64 103.054 294.309 103.107 293.926 103.107ZM300.731 101.458C300.731 101.315 300.699 101.183 300.634 101.061C300.573 100.936 300.446 100.823 300.253 100.723C300.063 100.619 299.777 100.529 299.394 100.454C299.071 100.386 298.779 100.306 298.518 100.212C298.26 100.119 298.04 100.007 297.857 99.874C297.678 99.7415 297.541 99.5858 297.444 99.4067C297.347 99.2277 297.299 99.0182 297.299 98.7783C297.299 98.5492 297.349 98.3325 297.449 98.1284C297.553 97.9243 297.698 97.7435 297.884 97.5859C298.074 97.4284 298.301 97.3049 298.566 97.2153C298.831 97.1258 299.127 97.0811 299.453 97.0811C299.918 97.0811 300.316 97.1634 300.645 97.3281C300.974 97.4928 301.227 97.7131 301.402 97.9888C301.578 98.2609 301.666 98.5635 301.666 98.8965H300.672C300.672 98.7354 300.624 98.5796 300.527 98.4292C300.434 98.2752 300.296 98.1481 300.113 98.0479C299.934 97.9476 299.714 97.8975 299.453 97.8975C299.177 97.8975 298.953 97.9404 298.781 98.0264C298.613 98.1087 298.489 98.2144 298.411 98.3433C298.335 98.4722 298.298 98.6082 298.298 98.7515C298.298 98.8589 298.316 98.9556 298.352 99.0415C298.391 99.1239 298.459 99.2008 298.556 99.2725C298.652 99.3405 298.788 99.4049 298.964 99.4658C299.139 99.5267 299.363 99.5876 299.635 99.6484C300.111 99.7559 300.504 99.8848 300.812 100.035C301.119 100.186 301.349 100.37 301.499 100.588C301.649 100.807 301.725 101.072 301.725 101.383C301.725 101.638 301.671 101.87 301.563 102.082C301.46 102.293 301.307 102.475 301.107 102.629C300.91 102.78 300.674 102.898 300.398 102.984C300.126 103.066 299.82 103.107 299.479 103.107C298.967 103.107 298.534 103.016 298.18 102.833C297.825 102.651 297.557 102.415 297.374 102.125C297.191 101.834 297.1 101.528 297.1 101.206H298.099C298.113 101.478 298.192 101.695 298.335 101.856C298.479 102.014 298.654 102.126 298.862 102.194C299.069 102.259 299.275 102.291 299.479 102.291C299.752 102.291 299.979 102.255 300.162 102.184C300.348 102.112 300.489 102.014 300.586 101.888C300.683 101.763 300.731 101.62 300.731 101.458Z" fill="white"/>
</svg>
