<svg width="196" height="60" viewBox="0 0 196 60" fill="none" xmlns="http://www.w3.org/2000/svg">
<path d="M6.5 16.5L27.5 2L48 16.5V42L27.5 56.5L6.5 42V16.5Z" stroke="#3D4DA1" stroke-width="2"/>
<path d="M7 17.3V41.3L26.56 29.3L7.18665 17.3" stroke="#3D4DA1"/>
<path d="M48 17.3V41.5L28.44 29.3L47.5241 17.3" stroke="#3D4DA1"/>
<path d="M26.7887 29.7049L6.67266 41.2663L7.03863 17.5288L26.7887 29.7049Z" fill="#3D4DA1"/>
<path d="M42.0563 41.6457L27.7456 50.3943L28.0221 32.4601L42.0563 41.6457Z" fill="#3D4DA1"/>
<path d="M28.2113 29.7049L48.3273 41.2663L47.9614 17.5288L28.2113 29.7049Z" fill="#3D4DA1"/>
<path d="M65.778 20.504H57V15.754H80.56V20.504H71.706V43H65.778V20.504ZM83.3393 15.716H91.7753L98.7293 36.654L105.683 15.716H114.081V43H108.457L108.913 21.758L101.921 43H95.8413L88.6213 21.53L89.1913 43H83.3393V15.716ZM130.537 43C128.814 43 127.193 42.8733 125.673 42.62C124.178 42.3413 122.797 41.5307 121.531 40.188C120.441 39.048 119.757 37.7687 119.479 36.35C119.2 34.9313 119.061 33.4747 119.061 31.98V15.716H124.799V30.688C124.773 33.2213 125.052 35.1593 125.635 36.502C126.217 37.8447 128.016 38.516 131.031 38.516L137.795 38.478V43H130.537ZM145.762 25.254C145.584 25.938 145.458 26.6347 145.382 27.344C145.306 28.028 145.268 28.712 145.268 29.396C145.268 30.1053 145.306 30.8147 145.382 31.524C145.483 32.208 145.61 32.8793 145.762 33.538C146.04 34.7033 146.496 35.7167 147.13 36.578C147.788 37.4393 148.7 38.0727 149.866 38.478C150.296 38.63 150.752 38.744 151.234 38.82C151.715 38.896 152.196 38.934 152.678 38.934C153.159 38.934 153.64 38.896 154.122 38.82C154.603 38.744 155.059 38.63 155.49 38.478C156.655 38.0727 157.567 37.4393 158.226 36.578C158.884 35.7167 159.34 34.7033 159.594 33.538C159.746 32.8793 159.86 32.208 159.936 31.524C160.037 30.8147 160.088 30.1053 160.088 29.396C160.088 28.712 160.037 28.028 159.936 27.344C159.86 26.6347 159.746 25.9507 159.594 25.292C159.34 24.1267 158.884 23.1133 158.226 22.252C157.567 21.3653 156.655 20.732 155.49 20.352C155.059 20.2 154.603 20.086 154.122 20.01C153.64 19.934 153.159 19.896 152.678 19.896C152.196 19.896 151.715 19.934 151.234 20.01C150.752 20.086 150.296 20.2 149.866 20.352C148.7 20.7573 147.801 21.3907 147.168 22.252C146.534 23.1133 146.066 24.1267 145.762 25.292V25.254ZM139.834 23.316C140.492 21.3147 141.455 19.6933 142.722 18.452C144.014 17.1853 145.698 16.286 147.776 15.754C148.536 15.5767 149.321 15.4373 150.132 15.336C150.942 15.2347 151.753 15.184 152.564 15.184C153.425 15.1587 154.299 15.1967 155.186 15.298C156.072 15.3993 156.921 15.564 157.732 15.792C159.758 16.2987 161.418 17.1853 162.71 18.452C164.002 19.7187 164.952 21.3527 165.56 23.354C165.813 24.266 166.003 25.2287 166.13 26.242C166.282 27.2553 166.358 28.2687 166.358 29.282C166.358 30.3713 166.294 31.4353 166.168 32.474C166.041 33.5127 165.838 34.5007 165.56 35.438C164.952 37.49 163.989 39.1493 162.672 40.416C161.354 41.6573 159.657 42.5187 157.58 43C156.769 43.2027 155.933 43.342 155.072 43.418C154.21 43.5193 153.336 43.57 152.45 43.57C151.664 43.57 150.879 43.5193 150.094 43.418C149.308 43.3167 148.536 43.1773 147.776 43C145.724 42.5187 144.039 41.6573 142.722 40.416C141.404 39.1493 140.442 37.49 139.834 35.438C139.58 34.5513 139.378 33.5887 139.226 32.55C139.099 31.5113 139.036 30.46 139.036 29.396C139.036 28.332 139.099 27.2807 139.226 26.242C139.352 25.178 139.555 24.2153 139.834 23.354V23.316ZM180.13 31.638V26.812H193.696V43H181.346C179.776 43 178.256 42.8733 176.786 42.62C175.317 42.3413 173.949 41.6827 172.682 40.644C171.162 39.4027 170.098 37.8953 169.49 36.122C168.882 34.3233 168.553 32.4867 168.502 30.612C168.477 30.2067 168.464 29.814 168.464 29.434C168.49 29.054 168.515 28.674 168.54 28.294C168.819 23.9873 169.984 20.8207 172.036 18.794C174.114 16.7673 177.217 15.754 181.346 15.754L193.696 15.716V20.428H181.346C178.636 20.4533 176.875 21.416 176.064 23.316C175.279 25.1907 174.886 27.2553 174.886 29.51C174.886 29.5353 174.886 29.5607 174.886 29.586C174.886 29.586 174.886 29.5987 174.886 29.624C174.886 31.9293 175.279 33.918 176.064 35.59C176.875 37.262 178.636 38.098 181.346 38.098L187.806 38.06V31.638H180.13Z" fill="#3D4DA1"/>
<path d="M79.6309 57H79.0303V49.8906H79.6309V57ZM81.9844 51.7168L82.0039 52.6201C82.2025 52.2946 82.4499 52.0472 82.7461 51.8779C83.0423 51.7054 83.3695 51.6191 83.7275 51.6191C84.2939 51.6191 84.7155 51.7786 84.9922 52.0977C85.2689 52.4167 85.4089 52.8952 85.4121 53.5332V57H84.8311V53.5283C84.8278 53.0563 84.7269 52.7048 84.5283 52.4736C84.333 52.2425 84.0189 52.127 83.5859 52.127C83.2246 52.127 82.904 52.2409 82.624 52.4688C82.3473 52.6934 82.1423 52.9977 82.0088 53.3818V57H81.4277V51.7168H81.9844ZM87.834 50.3643V51.7168H88.9277V52.1953H87.834V55.7158C87.834 56.0088 87.8861 56.2269 87.9902 56.3701C88.0977 56.5133 88.2751 56.585 88.5225 56.585C88.6201 56.585 88.778 56.5687 88.9961 56.5361L89.0205 57.0146C88.8675 57.07 88.6592 57.0977 88.3955 57.0977C87.9951 57.0977 87.7038 56.9821 87.5215 56.751C87.3392 56.5166 87.248 56.1732 87.248 55.7207V52.1953H86.2764V51.7168H87.248V50.3643H87.834ZM92.1846 57.0977C91.7354 57.0977 91.3285 56.987 90.9639 56.7656C90.6025 56.5443 90.321 56.2367 90.1191 55.8428C89.9173 55.4456 89.8164 55.0013 89.8164 54.5098V54.2998C89.8164 53.792 89.9141 53.3346 90.1094 52.9277C90.3079 52.5208 90.583 52.2018 90.9346 51.9707C91.2861 51.7363 91.667 51.6191 92.0771 51.6191C92.7184 51.6191 93.2262 51.8389 93.6006 52.2783C93.9782 52.7145 94.167 53.3118 94.167 54.0703V54.3975H90.3975V54.5098C90.3975 55.1087 90.5684 55.6084 90.9102 56.0088C91.2552 56.4059 91.6882 56.6045 92.209 56.6045C92.5215 56.6045 92.7965 56.5475 93.0342 56.4336C93.2751 56.3197 93.4932 56.1374 93.6885 55.8867L94.0547 56.165C93.625 56.7868 93.0016 57.0977 92.1846 57.0977ZM92.0771 52.1172C91.6377 52.1172 91.2666 52.2783 90.9639 52.6006C90.6644 52.9229 90.4821 53.3558 90.417 53.8994H93.5859V53.8359C93.5697 53.3281 93.4248 52.9147 93.1514 52.5957C92.8779 52.2767 92.5199 52.1172 92.0771 52.1172ZM97.7461 52.2148C97.6224 52.1921 97.4906 52.1807 97.3506 52.1807C96.986 52.1807 96.6768 52.2832 96.4229 52.4883C96.1722 52.6901 95.9932 52.9847 95.8857 53.3721V57H95.3047V51.7168H95.876L95.8857 52.5566C96.195 51.9316 96.6914 51.6191 97.375 51.6191C97.5378 51.6191 97.6663 51.6403 97.7607 51.6826L97.7461 52.2148ZM99.2305 51.7168L99.25 52.6201C99.4486 52.2946 99.696 52.0472 99.9922 51.8779C100.288 51.7054 100.616 51.6191 100.974 51.6191C101.54 51.6191 101.962 51.7786 102.238 52.0977C102.515 52.4167 102.655 52.8952 102.658 53.5332V57H102.077V53.5283C102.074 53.0563 101.973 52.7048 101.774 52.4736C101.579 52.2425 101.265 52.127 100.832 52.127C100.471 52.127 100.15 52.2409 99.8701 52.4688C99.5934 52.6934 99.3883 52.9977 99.2549 53.3818V57H98.6738V51.7168H99.2305ZM107.507 57C107.448 56.834 107.411 56.5882 107.395 56.2627C107.189 56.5296 106.927 56.7363 106.608 56.8828C106.293 57.026 105.957 57.0977 105.603 57.0977C105.095 57.0977 104.683 56.9561 104.367 56.6729C104.055 56.3896 103.898 56.0316 103.898 55.5986C103.898 55.0843 104.112 54.6774 104.538 54.3779C104.968 54.0785 105.565 53.9287 106.33 53.9287H107.39V53.3281C107.39 52.9505 107.272 52.6543 107.038 52.4395C106.807 52.2214 106.468 52.1123 106.022 52.1123C105.616 52.1123 105.279 52.2165 105.012 52.4248C104.745 52.6331 104.611 52.8838 104.611 53.1768L104.025 53.1719C104.025 52.752 104.221 52.389 104.611 52.083C105.002 51.7738 105.482 51.6191 106.052 51.6191C106.641 51.6191 107.105 51.7673 107.443 52.0635C107.785 52.3564 107.961 52.7666 107.971 53.2939V55.7939C107.971 56.305 108.024 56.6875 108.132 56.9414V57H107.507ZM105.671 56.5801C106.062 56.5801 106.41 56.4857 106.716 56.2969C107.025 56.1081 107.25 55.8558 107.39 55.54V54.3779H106.345C105.762 54.3844 105.306 54.4919 104.978 54.7002C104.649 54.9053 104.484 55.1885 104.484 55.5498C104.484 55.846 104.593 56.0918 104.812 56.2871C105.033 56.4824 105.319 56.5801 105.671 56.5801ZM110.441 50.3643V51.7168H111.535V52.1953H110.441V55.7158C110.441 56.0088 110.493 56.2269 110.598 56.3701C110.705 56.5133 110.882 56.585 111.13 56.585C111.228 56.585 111.385 56.5687 111.604 56.5361L111.628 57.0146C111.475 57.07 111.267 57.0977 111.003 57.0977C110.603 57.0977 110.311 56.9821 110.129 56.751C109.947 56.5166 109.855 56.1732 109.855 55.7207V52.1953H108.884V51.7168H109.855V50.3643H110.441ZM113.4 57H112.814V51.7168H113.4V57ZM112.712 50.1885C112.712 50.0778 112.748 49.985 112.819 49.9102C112.891 49.832 112.989 49.793 113.112 49.793C113.236 49.793 113.334 49.832 113.405 49.9102C113.48 49.985 113.518 50.0778 113.518 50.1885C113.518 50.2992 113.48 50.3919 113.405 50.4668C113.334 50.5417 113.236 50.5791 113.112 50.5791C112.989 50.5791 112.891 50.5417 112.819 50.4668C112.748 50.3919 112.712 50.2992 112.712 50.1885ZM114.67 54.2803C114.67 53.7725 114.768 53.3151 114.963 52.9082C115.161 52.5013 115.44 52.1855 115.798 51.9609C116.159 51.7331 116.568 51.6191 117.023 51.6191C117.727 51.6191 118.296 51.8665 118.732 52.3613C119.169 52.8529 119.387 53.5055 119.387 54.3193V54.4414C119.387 54.9525 119.287 55.4131 119.089 55.8232C118.894 56.2301 118.617 56.5443 118.259 56.7656C117.901 56.987 117.492 57.0977 117.033 57.0977C116.333 57.0977 115.764 56.8519 115.324 56.3604C114.888 55.8656 114.67 55.2113 114.67 54.3975V54.2803ZM115.256 54.4414C115.256 55.0729 115.419 55.5921 115.744 55.999C116.073 56.4027 116.503 56.6045 117.033 56.6045C117.561 56.6045 117.987 56.4027 118.312 55.999C118.641 55.5921 118.806 55.0566 118.806 54.3926V54.2803C118.806 53.8766 118.731 53.5072 118.581 53.1719C118.431 52.8366 118.221 52.5778 117.951 52.3955C117.681 52.21 117.372 52.1172 117.023 52.1172C116.503 52.1172 116.078 52.3223 115.749 52.7324C115.42 53.1393 115.256 53.6732 115.256 54.334V54.4414ZM121.154 51.7168L121.174 52.6201C121.372 52.2946 121.62 52.0472 121.916 51.8779C122.212 51.7054 122.539 51.6191 122.897 51.6191C123.464 51.6191 123.885 51.7786 124.162 52.0977C124.439 52.4167 124.579 52.8952 124.582 53.5332V57H124.001V53.5283C123.998 53.0563 123.897 52.7048 123.698 52.4736C123.503 52.2425 123.189 52.127 122.756 52.127C122.395 52.127 122.074 52.2409 121.794 52.4688C121.517 52.6934 121.312 52.9977 121.179 53.3818V57H120.598V51.7168H121.154ZM129.431 57C129.372 56.834 129.335 56.5882 129.318 56.2627C129.113 56.5296 128.851 56.7363 128.532 56.8828C128.216 57.026 127.881 57.0977 127.526 57.0977C127.019 57.0977 126.607 56.9561 126.291 56.6729C125.979 56.3896 125.822 56.0316 125.822 55.5986C125.822 55.0843 126.035 54.6774 126.462 54.3779C126.892 54.0785 127.489 53.9287 128.254 53.9287H129.313V53.3281C129.313 52.9505 129.196 52.6543 128.962 52.4395C128.731 52.2214 128.392 52.1123 127.946 52.1123C127.539 52.1123 127.202 52.2165 126.936 52.4248C126.669 52.6331 126.535 52.8838 126.535 53.1768L125.949 53.1719C125.949 52.752 126.145 52.389 126.535 52.083C126.926 51.7738 127.406 51.6191 127.976 51.6191C128.565 51.6191 129.029 51.7673 129.367 52.0635C129.709 52.3564 129.885 52.7666 129.895 53.2939V55.7939C129.895 56.305 129.948 56.6875 130.056 56.9414V57H129.431ZM127.595 56.5801C127.985 56.5801 128.334 56.4857 128.64 56.2969C128.949 56.1081 129.174 55.8558 129.313 55.54V54.3779H128.269C127.686 54.3844 127.23 54.4919 126.901 54.7002C126.573 54.9053 126.408 55.1885 126.408 55.5498C126.408 55.846 126.517 56.0918 126.735 56.2871C126.957 56.4824 127.243 56.5801 127.595 56.5801ZM132.111 57H131.525V49.5H132.111V57ZM136.877 56.4922H140.388V57H136.271V49.8906H136.877V56.4922ZM141.086 54.2803C141.086 53.7725 141.184 53.3151 141.379 52.9082C141.577 52.5013 141.856 52.1855 142.214 51.9609C142.575 51.7331 142.984 51.6191 143.439 51.6191C144.143 51.6191 144.712 51.8665 145.148 52.3613C145.585 52.8529 145.803 53.5055 145.803 54.3193V54.4414C145.803 54.9525 145.703 55.4131 145.505 55.8232C145.31 56.2301 145.033 56.5443 144.675 56.7656C144.317 56.987 143.908 57.0977 143.449 57.0977C142.749 57.0977 142.18 56.8519 141.74 56.3604C141.304 55.8656 141.086 55.2113 141.086 54.3975V54.2803ZM141.672 54.4414C141.672 55.0729 141.835 55.5921 142.16 55.999C142.489 56.4027 142.919 56.6045 143.449 56.6045C143.977 56.6045 144.403 56.4027 144.729 55.999C145.057 55.5921 145.222 55.0566 145.222 54.3926V54.2803C145.222 53.8766 145.147 53.5072 144.997 53.1719C144.847 52.8366 144.637 52.5778 144.367 52.3955C144.097 52.21 143.788 52.1172 143.439 52.1172C142.919 52.1172 142.494 52.3223 142.165 52.7324C141.836 53.1393 141.672 53.6732 141.672 54.334V54.4414ZM146.779 54.3096C146.779 53.4827 146.962 52.8285 147.326 52.3467C147.694 51.8617 148.192 51.6191 148.82 51.6191C149.54 51.6191 150.087 51.9056 150.461 52.4785L150.49 51.7168H151.037V56.8926C151.037 57.5729 150.847 58.1117 150.466 58.5088C150.085 58.9059 149.569 59.1045 148.918 59.1045C148.55 59.1045 148.199 59.0215 147.863 58.8555C147.531 58.6927 147.269 58.4746 147.077 58.2012L147.404 57.8496C147.818 58.3574 148.309 58.6113 148.879 58.6113C149.367 58.6113 149.748 58.4665 150.021 58.1768C150.295 57.8903 150.437 57.4915 150.446 56.9805V56.3164C150.072 56.8372 149.527 57.0977 148.811 57.0977C148.199 57.0977 147.707 56.8535 147.336 56.3652C146.965 55.877 146.779 55.2178 146.779 54.3877V54.3096ZM147.37 54.4121C147.37 55.0859 147.505 55.6182 147.775 56.0088C148.046 56.3962 148.426 56.5898 148.918 56.5898C149.637 56.5898 150.147 56.2676 150.446 55.623V53.167C150.31 52.8285 150.113 52.5713 149.855 52.3955C149.598 52.2165 149.289 52.127 148.928 52.127C148.436 52.127 148.054 52.3206 147.78 52.708C147.507 53.0921 147.37 53.6602 147.37 54.4121ZM153.215 57H152.629V51.7168H153.215V57ZM152.526 50.1885C152.526 50.0778 152.562 49.985 152.634 49.9102C152.705 49.832 152.803 49.793 152.927 49.793C153.05 49.793 153.148 49.832 153.22 49.9102C153.295 49.985 153.332 50.0778 153.332 50.1885C153.332 50.2992 153.295 50.3919 153.22 50.4668C153.148 50.5417 153.05 50.5791 152.927 50.5791C152.803 50.5791 152.705 50.5417 152.634 50.4668C152.562 50.3919 152.526 50.2992 152.526 50.1885ZM157.971 55.6572C157.971 55.3675 157.854 55.1348 157.619 54.959C157.388 54.7832 157.038 54.6465 156.569 54.5488C156.101 54.4479 155.736 54.334 155.476 54.207C155.218 54.0768 155.026 53.9189 154.899 53.7334C154.776 53.5479 154.714 53.3232 154.714 53.0596C154.714 52.6429 154.888 52.2995 155.236 52.0293C155.585 51.7559 156.031 51.6191 156.574 51.6191C157.163 51.6191 157.635 51.7656 157.99 52.0586C158.348 52.3483 158.527 52.7275 158.527 53.1963H157.941C157.941 52.887 157.811 52.6299 157.551 52.4248C157.294 52.2197 156.968 52.1172 156.574 52.1172C156.19 52.1172 155.881 52.2035 155.646 52.376C155.415 52.5452 155.3 52.7666 155.3 53.04C155.3 53.3037 155.396 53.5088 155.588 53.6553C155.783 53.7985 156.136 53.9303 156.647 54.0508C157.162 54.1712 157.546 54.2998 157.8 54.4365C158.057 54.5732 158.247 54.7376 158.371 54.9297C158.495 55.1217 158.557 55.3545 158.557 55.6279C158.557 56.0739 158.376 56.4303 158.015 56.6973C157.657 56.9642 157.188 57.0977 156.608 57.0977C155.993 57.0977 155.493 56.9495 155.109 56.6533C154.729 56.3538 154.538 55.9762 154.538 55.5205H155.124C155.147 55.8623 155.29 56.1292 155.554 56.3213C155.821 56.5101 156.172 56.6045 156.608 56.6045C157.015 56.6045 157.344 56.515 157.595 56.3359C157.845 56.1569 157.971 55.9307 157.971 55.6572ZM160.783 50.3643V51.7168H161.877V52.1953H160.783V55.7158C160.783 56.0088 160.835 56.2269 160.939 56.3701C161.047 56.5133 161.224 56.585 161.472 56.585C161.569 56.585 161.727 56.5687 161.945 56.5361L161.97 57.0146C161.817 57.07 161.608 57.0977 161.345 57.0977C160.944 57.0977 160.653 56.9821 160.471 56.751C160.288 56.5166 160.197 56.1732 160.197 55.7207V52.1953H159.226V51.7168H160.197V50.3643H160.783ZM163.742 57H163.156V51.7168H163.742V57ZM163.054 50.1885C163.054 50.0778 163.09 49.985 163.161 49.9102C163.233 49.832 163.33 49.793 163.454 49.793C163.578 49.793 163.675 49.832 163.747 49.9102C163.822 49.985 163.859 50.0778 163.859 50.1885C163.859 50.2992 163.822 50.3919 163.747 50.4668C163.675 50.5417 163.578 50.5791 163.454 50.5791C163.33 50.5791 163.233 50.5417 163.161 50.4668C163.09 50.3919 163.054 50.2992 163.054 50.1885ZM167.287 56.6045C167.694 56.6045 168.034 56.4906 168.308 56.2627C168.584 56.0316 168.734 55.7337 168.757 55.3691H169.318C169.302 55.6914 169.201 55.986 169.016 56.2529C168.83 56.5166 168.583 56.7233 168.273 56.873C167.967 57.0228 167.639 57.0977 167.287 57.0977C166.594 57.0977 166.044 56.8568 165.637 56.375C165.233 55.8932 165.031 55.2454 165.031 54.4316V54.2559C165.031 53.735 165.122 53.2744 165.305 52.874C165.487 52.4736 165.747 52.1644 166.086 51.9463C166.428 51.7282 166.826 51.6191 167.282 51.6191C167.862 51.6191 168.339 51.7917 168.713 52.1367C169.09 52.4818 169.292 52.9359 169.318 53.499H168.757C168.731 53.0856 168.581 52.752 168.308 52.498C168.037 52.2441 167.696 52.1172 167.282 52.1172C166.755 52.1172 166.345 52.3076 166.052 52.6885C165.762 53.0693 165.617 53.6032 165.617 54.29V54.4609C165.617 55.1348 165.762 55.6605 166.052 56.0381C166.345 56.4157 166.757 56.6045 167.287 56.6045ZM173.654 55.6572C173.654 55.3675 173.537 55.1348 173.303 54.959C173.072 54.7832 172.722 54.6465 172.253 54.5488C171.784 54.4479 171.42 54.334 171.159 54.207C170.902 54.0768 170.71 53.9189 170.583 53.7334C170.459 53.5479 170.397 53.3232 170.397 53.0596C170.397 52.6429 170.572 52.2995 170.92 52.0293C171.268 51.7559 171.714 51.6191 172.258 51.6191C172.847 51.6191 173.319 51.7656 173.674 52.0586C174.032 52.3483 174.211 52.7275 174.211 53.1963H173.625C173.625 52.887 173.495 52.6299 173.234 52.4248C172.977 52.2197 172.652 52.1172 172.258 52.1172C171.874 52.1172 171.564 52.2035 171.33 52.376C171.099 52.5452 170.983 52.7666 170.983 53.04C170.983 53.3037 171.079 53.5088 171.271 53.6553C171.467 53.7985 171.82 53.9303 172.331 54.0508C172.845 54.1712 173.229 54.2998 173.483 54.4365C173.741 54.5732 173.931 54.7376 174.055 54.9297C174.178 55.1217 174.24 55.3545 174.24 55.6279C174.24 56.0739 174.06 56.4303 173.698 56.6973C173.34 56.9642 172.871 57.0977 172.292 57.0977C171.677 57.0977 171.177 56.9495 170.793 56.6533C170.412 56.3538 170.222 55.9762 170.222 55.5205H170.808C170.83 55.8623 170.974 56.1292 171.237 56.3213C171.504 56.5101 171.856 56.6045 172.292 56.6045C172.699 56.6045 173.028 56.515 173.278 56.3359C173.529 56.1569 173.654 55.9307 173.654 55.6572Z" fill="#3D4DA1"/>
</svg>
