<svg width="300" height="92" viewBox="0 0 300 92" fill="none" xmlns="http://www.w3.org/2000/svg">
<path d="M9.865 25.3936L42.0079 3.06122L73.3854 25.3936V64.6677L42.0079 87L9.865 64.6677V25.3936Z" stroke="white" stroke-width="2"/>
<path d="M63.9474 65.2146L42.0845 78.7565L42.0845 51.0674L63.9474 65.2146Z" fill="white"/>
<path d="M42 45.6459L74 65.2495L73.4179 25L42 45.6459Z" fill="white"/>
<path d="M42 45.6459L10 65.2495L10.5821 25L42 45.6459Z" fill="white"/>
<path d="M100.681 31.3837H87.2449V24.1133H123.306V31.3837H109.754V65.8163H100.681V31.3837ZM127.56 24.0551H140.472L151.116 56.1031L161.76 24.0551H174.614V65.8163H166.006L166.704 33.3031L156.002 65.8163H146.696L135.645 32.9541L136.517 65.8163H127.56V24.0551ZM199.802 65.8163C197.164 65.8163 194.683 65.6224 192.357 65.2347C190.068 64.8081 187.955 63.5674 186.017 61.5123C184.348 59.7674 183.302 57.8092 182.876 55.6378C182.449 53.4663 182.236 51.2368 182.236 48.949V24.0551H191.019V46.9714C190.979 50.8489 191.406 53.8153 192.298 55.8704C193.189 57.9256 195.943 58.9531 200.558 58.9531L210.911 58.8949V65.8163H199.802ZM223.105 38.6541C222.833 39.701 222.64 40.7674 222.523 41.8531C222.407 42.9 222.349 43.9469 222.349 44.9939C222.349 46.0795 222.407 47.1654 222.523 48.251C222.678 49.298 222.872 50.3255 223.105 51.3337C223.531 53.1173 224.229 54.6684 225.199 55.9867C226.206 57.3051 227.602 58.2746 229.387 58.8949C230.045 59.1276 230.743 59.302 231.481 59.4184C232.217 59.5347 232.953 59.5929 233.691 59.5929C234.427 59.5929 235.163 59.5347 235.901 59.4184C236.637 59.302 237.335 59.1276 237.995 58.8949C239.778 58.2746 241.174 57.3051 242.183 55.9867C243.19 54.6684 243.888 53.1173 244.277 51.3337C244.509 50.3255 244.684 49.298 244.8 48.251C244.955 47.1654 245.033 46.0795 245.033 44.9939C245.033 43.9469 244.955 42.9 244.8 41.8531C244.684 40.7674 244.509 39.7205 244.277 38.7123C243.888 36.9286 243.19 35.3775 242.183 34.0592C241.174 32.702 239.778 31.7327 237.995 31.151C237.335 30.9184 236.637 30.7439 235.901 30.6276C235.163 30.5112 234.427 30.4531 233.691 30.4531C232.953 30.4531 232.217 30.5112 231.481 30.6276C230.743 30.7439 230.045 30.9184 229.387 31.151C227.602 31.7714 226.226 32.7409 225.257 34.0592C224.287 35.3775 223.57 36.9286 223.105 38.7123V38.6541ZM214.032 35.6878C215.039 32.6245 216.513 30.1428 218.452 28.2429C220.43 26.304 223.007 24.9276 226.188 24.1133C227.351 23.8419 228.553 23.6285 229.794 23.4735C231.034 23.3184 232.275 23.2408 233.516 23.2408C234.834 23.2021 236.172 23.2603 237.53 23.4153C238.886 23.5704 240.185 23.8225 241.427 24.1714C244.528 24.947 247.068 26.304 249.046 28.2429C251.023 30.1817 252.478 32.6827 253.408 35.7459C253.795 37.1418 254.086 38.6154 254.281 40.1663C254.513 41.7173 254.63 43.2684 254.63 44.8194C254.63 46.4867 254.532 48.1153 254.339 49.7051C254.144 51.295 253.834 52.8072 253.408 54.2418C252.478 57.3827 251.004 59.9224 248.988 61.8612C246.97 63.7612 244.373 65.0797 241.194 65.8163C239.953 66.1266 238.673 66.3398 237.355 66.4561C236.036 66.6112 234.698 66.6888 233.342 66.6888C232.139 66.6888 230.937 66.6112 229.736 66.4561C228.533 66.3011 227.351 66.0877 226.188 65.8163C223.047 65.0797 220.468 63.7612 218.452 61.8612C216.435 59.9224 214.962 57.3827 214.032 54.2418C213.643 52.8847 213.334 51.4113 213.101 49.8214C212.907 48.2316 212.81 46.6225 212.81 44.9939C212.81 43.3653 212.907 41.7562 213.101 40.1663C213.294 38.5378 213.605 37.0642 214.032 35.7459V35.6878ZM275.709 48.4255V41.0388H296.473V65.8163H277.57C275.167 65.8163 272.841 65.6224 270.591 65.2347C268.342 64.8081 266.249 63.8001 264.309 62.2102C261.983 60.3103 260.354 58.003 259.423 55.2888C258.493 52.5357 257.989 49.7245 257.911 46.8551C257.873 46.2348 257.853 45.6337 257.853 45.052C257.893 44.4704 257.931 43.8888 257.969 43.3072C258.396 36.7153 260.18 31.8684 263.32 28.7663C266.501 25.6642 271.251 24.1133 277.57 24.1133L296.473 24.0551V31.2674H277.57C273.422 31.3061 270.727 32.7796 269.486 35.6878C268.284 38.5572 267.683 41.7173 267.683 45.1684C267.683 45.2071 267.683 45.246 267.683 45.2847C267.683 45.2847 267.683 45.3041 267.683 45.3429C267.683 48.8714 268.284 51.9153 269.486 54.4745C270.727 57.0337 273.422 58.3133 277.57 58.3133L287.458 58.2551V48.4255H275.709Z" fill="white"/>
<mask id="path-6-outside-1" maskUnits="userSpaceOnUse" x="119.965" y="74.7653" width="148" height="17" fill="black">
<rect fill="white" x="119.965" y="74.7653" width="148" height="17"/>
<path d="M121.884 87.2449H120.965V76.3632H121.884V87.2449ZM125.486 79.1584L125.516 80.541C125.82 80.0427 126.199 79.6641 126.652 79.4049C127.106 79.1409 127.606 79.0088 128.154 79.0088C129.021 79.0088 129.667 79.253 130.09 79.7414C130.514 80.2296 130.728 80.962 130.733 81.9386V87.2449H129.844V81.9311C129.838 81.2086 129.684 80.6706 129.38 80.3167C129.081 79.963 128.6 79.7862 127.938 79.7862C127.385 79.7862 126.894 79.9606 126.465 80.3094C126.042 80.6532 125.728 81.1189 125.524 81.7068V87.2449H124.634V79.1584H125.486ZM134.44 77.0882V79.1584H136.114V79.8908H134.44V85.2793C134.44 85.7278 134.52 86.0616 134.679 86.2808C134.843 86.4999 135.115 86.6097 135.494 86.6097C135.643 86.6097 135.885 86.5847 136.219 86.5348L136.256 87.2672C136.022 87.352 135.703 87.3944 135.299 87.3944C134.686 87.3944 134.241 87.2175 133.961 86.8638C133.682 86.505 133.543 85.9794 133.543 85.2868V79.8908H132.056V79.1584H133.543V77.0882H134.44ZM141.099 87.3944C140.411 87.3944 139.789 87.225 139.23 86.8861C138.677 86.5474 138.246 86.0766 137.937 85.4737C137.629 84.8657 137.474 84.1857 137.474 83.4334V83.1119C137.474 82.3347 137.624 81.6346 137.923 81.0118C138.226 80.389 138.647 79.9007 139.186 79.547C139.724 79.1882 140.307 79.0088 140.934 79.0088C141.916 79.0088 142.693 79.3453 143.266 80.0178C143.844 80.6855 144.133 81.5997 144.133 82.7607V83.2615H138.364V83.4334C138.364 84.35 138.625 85.1149 139.148 85.7278C139.676 86.3356 140.339 86.6395 141.136 86.6395C141.615 86.6395 142.035 86.5523 142.399 86.378C142.768 86.2036 143.102 85.9246 143.401 85.5409L143.961 85.9668C143.304 86.9186 142.349 87.3944 141.099 87.3944ZM140.934 79.7712C140.262 79.7712 139.694 80.0178 139.23 80.5111C138.772 81.0044 138.493 81.667 138.393 82.4991H143.244V82.4019C143.219 81.6246 142.997 80.9919 142.579 80.5036C142.16 80.0154 141.612 79.7712 140.934 79.7712ZM149.611 79.9206C149.422 79.8859 149.22 79.8684 149.006 79.8684C148.448 79.8684 147.975 80.0253 147.586 80.3392C147.202 80.6481 146.928 81.099 146.764 81.692V87.2449H145.875V79.1584H146.749L146.764 80.4438C147.237 79.4871 147.997 79.0088 149.043 79.0088C149.293 79.0088 149.489 79.0413 149.634 79.106L149.611 79.9206ZM151.883 79.1584L151.913 80.541C152.217 80.0427 152.596 79.6641 153.049 79.4049C153.502 79.1409 154.004 79.0088 154.552 79.0088C155.418 79.0088 156.064 79.253 156.487 79.7414C156.911 80.2296 157.125 80.962 157.13 81.9386V87.2449H156.24V81.9311C156.236 81.2086 156.081 80.6706 155.777 80.3167C155.478 79.963 154.997 79.7862 154.335 79.7862C153.782 79.7862 153.291 79.9606 152.862 80.3094C152.439 80.6532 152.125 81.1189 151.921 81.7068V87.2449H151.031V79.1584H151.883ZM164.552 87.2449C164.461 86.9908 164.405 86.6146 164.38 86.1164C164.065 86.5249 163.664 86.8413 163.176 87.0655C162.693 87.2847 162.179 87.3944 161.637 87.3944C160.86 87.3944 160.229 87.1777 159.745 86.7442C159.268 86.3106 159.028 85.7626 159.028 85.0999C159.028 84.3127 159.355 83.6899 160.007 83.2315C160.665 82.7732 161.579 82.5439 162.75 82.5439H164.372V81.6246C164.372 81.0467 164.192 80.5933 163.834 80.2645C163.48 79.9307 162.961 79.7637 162.279 79.7637C161.657 79.7637 161.141 79.9232 160.733 80.242C160.324 80.5609 160.119 80.9446 160.119 81.3931L159.222 81.3856C159.222 80.7429 159.522 80.1872 160.119 79.7189C160.717 79.2456 161.452 79.0088 162.324 79.0088C163.226 79.0088 163.936 79.2357 164.454 79.689C164.977 80.1373 165.246 80.7652 165.262 81.5723V85.3988C165.262 86.1811 165.343 86.7666 165.508 87.1552V87.2449H164.552ZM161.741 86.6022C162.34 86.6022 162.872 86.4577 163.341 86.1687C163.814 85.8797 164.158 85.4936 164.372 85.0102V83.2315H162.773C161.881 83.2414 161.183 83.406 160.681 83.7248C160.177 84.0387 159.924 84.4722 159.924 85.0252C159.924 85.4786 160.091 85.8548 160.427 86.1537C160.765 86.4527 161.203 86.6022 161.741 86.6022ZM169.042 77.0882V79.1584H170.717V79.8908H169.042V85.2793C169.042 85.7278 169.122 86.0616 169.283 86.2808C169.446 86.4999 169.717 86.6097 170.097 86.6097C170.247 86.6097 170.487 86.5847 170.822 86.5348L170.859 87.2672C170.625 87.352 170.307 87.3944 169.903 87.3944C169.29 87.3944 168.843 87.2175 168.565 86.8638C168.286 86.505 168.145 85.9794 168.145 85.2868V79.8908H166.659V79.1584H168.145V77.0882H169.042ZM173.571 87.2449H172.674V79.1584H173.571V87.2449ZM172.518 76.8191C172.518 76.6497 172.573 76.5076 172.682 76.3932C172.792 76.2735 172.942 76.2138 173.131 76.2138C173.32 76.2138 173.47 76.2735 173.579 76.3932C173.694 76.5076 173.752 76.6497 173.752 76.8191C173.752 76.9886 173.694 77.1305 173.579 77.2451C173.47 77.3597 173.32 77.417 173.131 77.417C172.942 77.417 172.792 77.3597 172.682 77.2451C172.573 77.1305 172.518 76.9886 172.518 76.8191ZM175.515 83.0821C175.515 82.3048 175.665 81.6047 175.964 80.9819C176.267 80.3591 176.694 79.8758 177.242 79.532C177.794 79.1833 178.42 79.0088 179.117 79.0088C180.194 79.0088 181.065 79.3875 181.733 80.1448C182.402 80.8973 182.735 81.8962 182.735 83.1418V83.3287C182.735 84.111 182.582 84.816 182.279 85.4437C181.981 86.0665 181.557 86.5474 181.009 86.8861C180.461 87.225 179.835 87.3944 179.132 87.3944C178.061 87.3944 177.19 87.0182 176.516 86.2659C175.849 85.5086 175.515 84.5071 175.515 83.2615V83.0821ZM176.412 83.3287C176.412 84.2952 176.662 85.0899 177.159 85.7128C177.663 86.3307 178.321 86.6395 179.132 86.6395C179.94 86.6395 180.592 86.3307 181.09 85.7128C181.593 85.0899 181.846 84.2703 181.846 83.254V83.0821C181.846 82.4642 181.731 81.8988 181.502 81.3856C181.272 80.8723 180.951 80.4762 180.537 80.1972C180.124 79.9133 179.651 79.7712 179.117 79.7712C178.321 79.7712 177.67 80.0851 177.167 80.7129C176.663 81.3357 176.412 82.1529 176.412 83.1643V83.3287ZM185.44 79.1584L185.47 80.541C185.773 80.0427 186.153 79.6641 186.606 79.4049C187.059 79.1409 187.56 79.0088 188.108 79.0088C188.976 79.0088 189.62 79.253 190.044 79.7414C190.468 80.2296 190.682 80.962 190.687 81.9386V87.2449H189.797V81.9311C189.793 81.2086 189.638 80.6706 189.334 80.3167C189.035 79.963 188.555 79.7862 187.892 79.7862C187.339 79.7862 186.848 79.9606 186.419 80.3094C185.995 80.6532 185.682 81.1189 185.478 81.7068V87.2449H184.589V79.1584H185.44ZM198.109 87.2449C198.018 86.9908 197.962 86.6146 197.936 86.1164C197.622 86.5249 197.221 86.8413 196.733 87.0655C196.249 87.2847 195.736 87.3944 195.193 87.3944C194.417 87.3944 193.786 87.1777 193.303 86.7442C192.825 86.3106 192.585 85.7626 192.585 85.0999C192.585 84.3127 192.911 83.6899 193.564 83.2315C194.222 82.7732 195.136 82.5439 196.307 82.5439H197.928V81.6246C197.928 81.0467 197.749 80.5933 197.391 80.2645C197.037 79.9307 196.518 79.7637 195.836 79.7637C195.213 79.7637 194.697 79.9232 194.29 80.242C193.881 80.5609 193.676 80.9446 193.676 81.3931L192.779 81.3856C192.779 80.7429 193.079 80.1872 193.676 79.7189C194.275 79.2456 195.009 79.0088 195.882 79.0088C196.783 79.0088 197.493 79.2357 198.011 79.689C198.534 80.1373 198.804 80.7652 198.819 81.5723V85.3988C198.819 86.1811 198.9 86.7666 199.065 87.1552V87.2449H198.109ZM195.298 86.6022C195.895 86.6022 196.43 86.4577 196.898 86.1687C197.371 85.8797 197.715 85.4936 197.928 85.0102V83.2315H196.33C195.438 83.2414 194.74 83.406 194.236 83.7248C193.734 84.0387 193.482 84.4722 193.482 85.0252C193.482 85.4786 193.648 85.8548 193.982 86.1537C194.322 86.4527 194.76 86.6022 195.298 86.6022ZM202.211 87.2449H201.314V75.7653H202.211V87.2449ZM209.506 86.4676H214.88V87.2449H208.578V76.3632H209.506V86.4676ZM215.948 83.0821C215.948 82.3048 216.098 81.6047 216.396 80.9819C216.699 80.3591 217.127 79.8758 217.675 79.532C218.227 79.1833 218.853 79.0088 219.549 79.0088C220.627 79.0088 221.498 79.3875 222.165 80.1448C222.834 80.8973 223.168 81.8962 223.168 83.1418V83.3287C223.168 84.111 223.015 84.816 222.712 85.4437C222.413 86.0665 221.989 86.5474 221.441 86.8861C220.893 87.225 220.267 87.3944 219.565 87.3944C218.493 87.3944 217.622 87.0182 216.949 86.2659C216.282 85.5086 215.948 84.5071 215.948 83.2615V83.0821ZM216.845 83.3287C216.845 84.2952 217.094 85.0899 217.592 85.7128C218.095 86.3307 218.754 86.6395 219.565 86.6395C220.373 86.6395 221.025 86.3307 221.524 85.7128C222.026 85.0899 222.279 84.2703 222.279 83.254V83.0821C222.279 82.4642 222.164 81.8988 221.934 81.3856C221.705 80.8723 221.383 80.4762 220.97 80.1972C220.557 79.9133 220.084 79.7712 219.549 79.7712C218.754 79.7712 218.103 80.0851 217.599 80.7129C217.096 81.3357 216.845 82.1529 216.845 83.1643V83.3287ZM224.662 83.1269C224.662 81.8613 224.942 80.8599 225.499 80.1225C226.062 79.3801 226.825 79.0088 227.786 79.0088C228.888 79.0088 229.725 79.4473 230.297 80.3242L230.342 79.1584H231.179V87.0805C231.179 88.1218 230.888 88.9465 230.305 89.5543C229.722 90.1621 228.932 90.4661 227.936 90.4661C227.372 90.4661 226.835 90.339 226.321 90.0849C225.813 89.8358 225.412 89.5019 225.118 89.0835L225.618 88.5453C226.252 89.3225 227.004 89.7112 227.876 89.7112C228.623 89.7112 229.206 89.4895 229.624 89.0461C230.043 88.6076 230.261 87.9972 230.275 87.215V86.1986C229.702 86.9957 228.868 87.3944 227.772 87.3944C226.835 87.3944 226.082 87.0207 225.514 86.2733C224.946 85.526 224.662 84.517 224.662 83.2465V83.1269ZM225.566 83.2838C225.566 84.3152 225.773 85.1299 226.186 85.7278C226.601 86.3207 227.183 86.617 227.936 86.617C229.036 86.617 229.817 86.1239 230.275 85.1372V81.3781C230.066 80.8599 229.765 80.4663 229.37 80.1972C228.977 79.9232 228.504 79.7862 227.951 79.7862C227.198 79.7862 226.613 80.0825 226.194 80.6755C225.776 81.2634 225.566 82.133 225.566 83.2838ZM234.513 87.2449H233.616V79.1584H234.513V87.2449ZM233.458 76.8191C233.458 76.6497 233.513 76.5076 233.623 76.3932C233.732 76.2735 233.882 76.2138 234.072 76.2138C234.26 76.2138 234.41 76.2735 234.52 76.3932C234.635 76.5076 234.692 76.6497 234.692 76.8191C234.692 76.9886 234.635 77.1305 234.52 77.2451C234.41 77.3597 234.26 77.417 234.072 77.417C233.882 77.417 233.732 77.3597 233.623 77.2451C233.513 77.1305 233.458 76.9886 233.458 76.8191ZM241.792 85.1896C241.792 84.7462 241.613 84.39 241.254 84.1209C240.9 83.8518 240.364 83.6426 239.646 83.4931C238.93 83.3386 238.371 83.1643 237.973 82.9699C237.579 82.7706 237.285 82.5289 237.09 82.245C236.902 81.9611 236.807 81.6171 236.807 81.2137C236.807 80.5759 237.073 80.0503 237.606 79.6367C238.14 79.2182 238.823 79.0088 239.654 79.0088C240.556 79.0088 241.278 79.2331 241.821 79.6815C242.369 80.1249 242.643 80.7054 242.643 81.4229H241.746C241.746 80.9495 241.547 80.556 241.149 80.242C240.756 79.9281 240.257 79.7712 239.654 79.7712C239.066 79.7712 238.593 79.9033 238.234 80.1673C237.88 80.4263 237.704 80.7652 237.704 81.1837C237.704 81.5873 237.851 81.9012 238.145 82.1255C238.443 82.3446 238.984 82.5464 239.766 82.7308C240.554 82.9151 241.142 83.1119 241.531 83.3212C241.924 83.5304 242.215 83.782 242.405 84.0761C242.594 84.3699 242.689 84.7263 242.689 85.1447C242.689 85.8274 242.412 86.3729 241.86 86.7816C241.312 87.1901 240.594 87.3944 239.706 87.3944C238.765 87.3944 237.999 87.1676 237.412 86.7142C236.83 86.2558 236.538 85.6779 236.538 84.9804H237.435C237.47 85.5035 237.689 85.912 238.093 86.2061C238.502 86.495 239.039 86.6395 239.706 86.6395C240.329 86.6395 240.833 86.5025 241.217 86.2284C241.6 85.9544 241.792 85.6082 241.792 85.1896ZM246.096 77.0882V79.1584H247.771V79.8908H246.096V85.2793C246.096 85.7278 246.176 86.0616 246.335 86.2808C246.501 86.4999 246.771 86.6097 247.151 86.6097C247.3 86.6097 247.541 86.5847 247.875 86.5348L247.913 87.2672C247.679 87.352 247.359 87.3944 246.957 87.3944C246.343 87.3944 245.897 87.2175 245.619 86.8638C245.339 86.505 245.2 85.9794 245.2 85.2868V79.8908H243.713V79.1584H245.2V77.0882H246.096ZM250.626 87.2449H249.729V79.1584H250.626V87.2449ZM249.572 76.8191C249.572 76.6497 249.628 76.5076 249.736 76.3932C249.846 76.2735 249.995 76.2138 250.185 76.2138C250.374 76.2138 250.523 76.2735 250.633 76.3932C250.748 76.5076 250.805 76.6497 250.805 76.8191C250.805 76.9886 250.748 77.1305 250.633 77.2451C250.523 77.3597 250.374 77.417 250.185 77.417C249.995 77.417 249.846 77.3597 249.736 77.2451C249.628 77.1305 249.572 76.9886 249.572 76.8191ZM256.052 86.6395C256.675 86.6395 257.195 86.4652 257.614 86.1164C258.037 85.7626 258.266 85.3067 258.302 84.7486H259.16C259.136 85.2419 258.981 85.6929 258.698 86.1014C258.413 86.505 258.035 86.8214 257.561 87.0505C257.092 87.2798 256.59 87.3944 256.052 87.3944C254.991 87.3944 254.149 87.0257 253.526 86.2883C252.908 85.5508 252.598 84.5593 252.598 83.3137V83.0447C252.598 82.2474 252.738 81.5424 253.018 80.9296C253.296 80.3167 253.694 79.8435 254.213 79.5096C254.737 79.1758 255.346 79.0088 256.044 79.0088C256.932 79.0088 257.662 79.273 258.234 79.8011C258.811 80.3293 259.12 81.0243 259.16 81.8862H258.302C258.262 81.2535 258.032 80.7429 257.614 80.3541C257.2 79.9655 256.678 79.7712 256.044 79.7712C255.237 79.7712 254.61 80.0626 254.161 80.6457C253.717 81.2285 253.495 82.0457 253.495 83.0969V83.3585C253.495 84.39 253.717 85.1946 254.161 85.7726C254.61 86.3506 255.24 86.6395 256.052 86.6395ZM265.797 85.1896C265.797 84.7462 265.618 84.39 265.26 84.1209C264.906 83.8518 264.37 83.6426 263.653 83.4931C262.935 83.3386 262.378 83.1643 261.978 82.9699C261.585 82.7706 261.291 82.5289 261.096 82.245C260.907 81.9611 260.812 81.6171 260.812 81.2137C260.812 80.5759 261.08 80.0503 261.612 79.6367C262.145 79.2182 262.828 79.0088 263.66 79.0088C264.562 79.0088 265.284 79.2331 265.828 79.6815C266.376 80.1249 266.65 80.7054 266.65 81.4229H265.753C265.753 80.9495 265.554 80.556 265.154 80.242C264.761 79.9281 264.263 79.7712 263.66 79.7712C263.072 79.7712 262.598 79.9033 262.24 80.1673C261.886 80.4263 261.709 80.7652 261.709 81.1837C261.709 81.5873 261.856 81.9012 262.15 82.1255C262.45 82.3446 262.99 82.5464 263.772 82.7308C264.559 82.9151 265.146 83.1119 265.535 83.3212C265.93 83.5304 266.221 83.782 266.411 84.0761C266.599 84.3699 266.694 84.7263 266.694 85.1447C266.694 85.8274 266.418 86.3729 265.864 86.7816C265.316 87.1901 264.598 87.3944 263.712 87.3944C262.771 87.3944 262.006 87.1676 261.418 86.7142C260.835 86.2558 260.544 85.6779 260.544 84.9804H261.441C261.475 85.5035 261.695 85.912 262.097 86.2061C262.506 86.495 263.045 86.6395 263.712 86.6395C264.335 86.6395 264.839 86.5025 265.221 86.2284C265.606 85.9544 265.797 85.6082 265.797 85.1896Z"/>
</mask>
<path d="M121.884 87.2449H120.965V76.3632H121.884V87.2449ZM125.486 79.1584L125.516 80.541C125.82 80.0427 126.199 79.6641 126.652 79.4049C127.106 79.1409 127.606 79.0088 128.154 79.0088C129.021 79.0088 129.667 79.253 130.09 79.7414C130.514 80.2296 130.728 80.962 130.733 81.9386V87.2449H129.844V81.9311C129.838 81.2086 129.684 80.6706 129.38 80.3167C129.081 79.963 128.6 79.7862 127.938 79.7862C127.385 79.7862 126.894 79.9606 126.465 80.3094C126.042 80.6532 125.728 81.1189 125.524 81.7068V87.2449H124.634V79.1584H125.486ZM134.44 77.0882V79.1584H136.114V79.8908H134.44V85.2793C134.44 85.7278 134.52 86.0616 134.679 86.2808C134.843 86.4999 135.115 86.6097 135.494 86.6097C135.643 86.6097 135.885 86.5847 136.219 86.5348L136.256 87.2672C136.022 87.352 135.703 87.3944 135.299 87.3944C134.686 87.3944 134.241 87.2175 133.961 86.8638C133.682 86.505 133.543 85.9794 133.543 85.2868V79.8908H132.056V79.1584H133.543V77.0882H134.44ZM141.099 87.3944C140.411 87.3944 139.789 87.225 139.23 86.8861C138.677 86.5474 138.246 86.0766 137.937 85.4737C137.629 84.8657 137.474 84.1857 137.474 83.4334V83.1119C137.474 82.3347 137.624 81.6346 137.923 81.0118C138.226 80.389 138.647 79.9007 139.186 79.547C139.724 79.1882 140.307 79.0088 140.934 79.0088C141.916 79.0088 142.693 79.3453 143.266 80.0178C143.844 80.6855 144.133 81.5997 144.133 82.7607V83.2615H138.364V83.4334C138.364 84.35 138.625 85.1149 139.148 85.7278C139.676 86.3356 140.339 86.6395 141.136 86.6395C141.615 86.6395 142.035 86.5523 142.399 86.378C142.768 86.2036 143.102 85.9246 143.401 85.5409L143.961 85.9668C143.304 86.9186 142.349 87.3944 141.099 87.3944ZM140.934 79.7712C140.262 79.7712 139.694 80.0178 139.23 80.5111C138.772 81.0044 138.493 81.667 138.393 82.4991H143.244V82.4019C143.219 81.6246 142.997 80.9919 142.579 80.5036C142.16 80.0154 141.612 79.7712 140.934 79.7712ZM149.611 79.9206C149.422 79.8859 149.22 79.8684 149.006 79.8684C148.448 79.8684 147.975 80.0253 147.586 80.3392C147.202 80.6481 146.928 81.099 146.764 81.692V87.2449H145.875V79.1584H146.749L146.764 80.4438C147.237 79.4871 147.997 79.0088 149.043 79.0088C149.293 79.0088 149.489 79.0413 149.634 79.106L149.611 79.9206ZM151.883 79.1584L151.913 80.541C152.217 80.0427 152.596 79.6641 153.049 79.4049C153.502 79.1409 154.004 79.0088 154.552 79.0088C155.418 79.0088 156.064 79.253 156.487 79.7414C156.911 80.2296 157.125 80.962 157.13 81.9386V87.2449H156.24V81.9311C156.236 81.2086 156.081 80.6706 155.777 80.3167C155.478 79.963 154.997 79.7862 154.335 79.7862C153.782 79.7862 153.291 79.9606 152.862 80.3094C152.439 80.6532 152.125 81.1189 151.921 81.7068V87.2449H151.031V79.1584H151.883ZM164.552 87.2449C164.461 86.9908 164.405 86.6146 164.38 86.1164C164.065 86.5249 163.664 86.8413 163.176 87.0655C162.693 87.2847 162.179 87.3944 161.637 87.3944C160.86 87.3944 160.229 87.1777 159.745 86.7442C159.268 86.3106 159.028 85.7626 159.028 85.0999C159.028 84.3127 159.355 83.6899 160.007 83.2315C160.665 82.7732 161.579 82.5439 162.75 82.5439H164.372V81.6246C164.372 81.0467 164.192 80.5933 163.834 80.2645C163.48 79.9307 162.961 79.7637 162.279 79.7637C161.657 79.7637 161.141 79.9232 160.733 80.242C160.324 80.5609 160.119 80.9446 160.119 81.3931L159.222 81.3856C159.222 80.7429 159.522 80.1872 160.119 79.7189C160.717 79.2456 161.452 79.0088 162.324 79.0088C163.226 79.0088 163.936 79.2357 164.454 79.689C164.977 80.1373 165.246 80.7652 165.262 81.5723V85.3988C165.262 86.1811 165.343 86.7666 165.508 87.1552V87.2449H164.552ZM161.741 86.6022C162.34 86.6022 162.872 86.4577 163.341 86.1687C163.814 85.8797 164.158 85.4936 164.372 85.0102V83.2315H162.773C161.881 83.2414 161.183 83.406 160.681 83.7248C160.177 84.0387 159.924 84.4722 159.924 85.0252C159.924 85.4786 160.091 85.8548 160.427 86.1537C160.765 86.4527 161.203 86.6022 161.741 86.6022ZM169.042 77.0882V79.1584H170.717V79.8908H169.042V85.2793C169.042 85.7278 169.122 86.0616 169.283 86.2808C169.446 86.4999 169.717 86.6097 170.097 86.6097C170.247 86.6097 170.487 86.5847 170.822 86.5348L170.859 87.2672C170.625 87.352 170.307 87.3944 169.903 87.3944C169.29 87.3944 168.843 87.2175 168.565 86.8638C168.286 86.505 168.145 85.9794 168.145 85.2868V79.8908H166.659V79.1584H168.145V77.0882H169.042ZM173.571 87.2449H172.674V79.1584H173.571V87.2449ZM172.518 76.8191C172.518 76.6497 172.573 76.5076 172.682 76.3932C172.792 76.2735 172.942 76.2138 173.131 76.2138C173.32 76.2138 173.47 76.2735 173.579 76.3932C173.694 76.5076 173.752 76.6497 173.752 76.8191C173.752 76.9886 173.694 77.1305 173.579 77.2451C173.47 77.3597 173.32 77.417 173.131 77.417C172.942 77.417 172.792 77.3597 172.682 77.2451C172.573 77.1305 172.518 76.9886 172.518 76.8191ZM175.515 83.0821C175.515 82.3048 175.665 81.6047 175.964 80.9819C176.267 80.3591 176.694 79.8758 177.242 79.532C177.794 79.1833 178.42 79.0088 179.117 79.0088C180.194 79.0088 181.065 79.3875 181.733 80.1448C182.402 80.8973 182.735 81.8962 182.735 83.1418V83.3287C182.735 84.111 182.582 84.816 182.279 85.4437C181.981 86.0665 181.557 86.5474 181.009 86.8861C180.461 87.225 179.835 87.3944 179.132 87.3944C178.061 87.3944 177.19 87.0182 176.516 86.2659C175.849 85.5086 175.515 84.5071 175.515 83.2615V83.0821ZM176.412 83.3287C176.412 84.2952 176.662 85.0899 177.159 85.7128C177.663 86.3307 178.321 86.6395 179.132 86.6395C179.94 86.6395 180.592 86.3307 181.09 85.7128C181.593 85.0899 181.846 84.2703 181.846 83.254V83.0821C181.846 82.4642 181.731 81.8988 181.502 81.3856C181.272 80.8723 180.951 80.4762 180.537 80.1972C180.124 79.9133 179.651 79.7712 179.117 79.7712C178.321 79.7712 177.67 80.0851 177.167 80.7129C176.663 81.3357 176.412 82.1529 176.412 83.1643V83.3287ZM185.44 79.1584L185.47 80.541C185.773 80.0427 186.153 79.6641 186.606 79.4049C187.059 79.1409 187.56 79.0088 188.108 79.0088C188.976 79.0088 189.62 79.253 190.044 79.7414C190.468 80.2296 190.682 80.962 190.687 81.9386V87.2449H189.797V81.9311C189.793 81.2086 189.638 80.6706 189.334 80.3167C189.035 79.963 188.555 79.7862 187.892 79.7862C187.339 79.7862 186.848 79.9606 186.419 80.3094C185.995 80.6532 185.682 81.1189 185.478 81.7068V87.2449H184.589V79.1584H185.44ZM198.109 87.2449C198.018 86.9908 197.962 86.6146 197.936 86.1164C197.622 86.5249 197.221 86.8413 196.733 87.0655C196.249 87.2847 195.736 87.3944 195.193 87.3944C194.417 87.3944 193.786 87.1777 193.303 86.7442C192.825 86.3106 192.585 85.7626 192.585 85.0999C192.585 84.3127 192.911 83.6899 193.564 83.2315C194.222 82.7732 195.136 82.5439 196.307 82.5439H197.928V81.6246C197.928 81.0467 197.749 80.5933 197.391 80.2645C197.037 79.9307 196.518 79.7637 195.836 79.7637C195.213 79.7637 194.697 79.9232 194.29 80.242C193.881 80.5609 193.676 80.9446 193.676 81.3931L192.779 81.3856C192.779 80.7429 193.079 80.1872 193.676 79.7189C194.275 79.2456 195.009 79.0088 195.882 79.0088C196.783 79.0088 197.493 79.2357 198.011 79.689C198.534 80.1373 198.804 80.7652 198.819 81.5723V85.3988C198.819 86.1811 198.9 86.7666 199.065 87.1552V87.2449H198.109ZM195.298 86.6022C195.895 86.6022 196.43 86.4577 196.898 86.1687C197.371 85.8797 197.715 85.4936 197.928 85.0102V83.2315H196.33C195.438 83.2414 194.74 83.406 194.236 83.7248C193.734 84.0387 193.482 84.4722 193.482 85.0252C193.482 85.4786 193.648 85.8548 193.982 86.1537C194.322 86.4527 194.76 86.6022 195.298 86.6022ZM202.211 87.2449H201.314V75.7653H202.211V87.2449ZM209.506 86.4676H214.88V87.2449H208.578V76.3632H209.506V86.4676ZM215.948 83.0821C215.948 82.3048 216.098 81.6047 216.396 80.9819C216.699 80.3591 217.127 79.8758 217.675 79.532C218.227 79.1833 218.853 79.0088 219.549 79.0088C220.627 79.0088 221.498 79.3875 222.165 80.1448C222.834 80.8973 223.168 81.8962 223.168 83.1418V83.3287C223.168 84.111 223.015 84.816 222.712 85.4437C222.413 86.0665 221.989 86.5474 221.441 86.8861C220.893 87.225 220.267 87.3944 219.565 87.3944C218.493 87.3944 217.622 87.0182 216.949 86.2659C216.282 85.5086 215.948 84.5071 215.948 83.2615V83.0821ZM216.845 83.3287C216.845 84.2952 217.094 85.0899 217.592 85.7128C218.095 86.3307 218.754 86.6395 219.565 86.6395C220.373 86.6395 221.025 86.3307 221.524 85.7128C222.026 85.0899 222.279 84.2703 222.279 83.254V83.0821C222.279 82.4642 222.164 81.8988 221.934 81.3856C221.705 80.8723 221.383 80.4762 220.97 80.1972C220.557 79.9133 220.084 79.7712 219.549 79.7712C218.754 79.7712 218.103 80.0851 217.599 80.7129C217.096 81.3357 216.845 82.1529 216.845 83.1643V83.3287ZM224.662 83.1269C224.662 81.8613 224.942 80.8599 225.499 80.1225C226.062 79.3801 226.825 79.0088 227.786 79.0088C228.888 79.0088 229.725 79.4473 230.297 80.3242L230.342 79.1584H231.179V87.0805C231.179 88.1218 230.888 88.9465 230.305 89.5543C229.722 90.1621 228.932 90.4661 227.936 90.4661C227.372 90.4661 226.835 90.339 226.321 90.0849C225.813 89.8358 225.412 89.5019 225.118 89.0835L225.618 88.5453C226.252 89.3225 227.004 89.7112 227.876 89.7112C228.623 89.7112 229.206 89.4895 229.624 89.0461C230.043 88.6076 230.261 87.9972 230.275 87.215V86.1986C229.702 86.9957 228.868 87.3944 227.772 87.3944C226.835 87.3944 226.082 87.0207 225.514 86.2733C224.946 85.526 224.662 84.517 224.662 83.2465V83.1269ZM225.566 83.2838C225.566 84.3152 225.773 85.1299 226.186 85.7278C226.601 86.3207 227.183 86.617 227.936 86.617C229.036 86.617 229.817 86.1239 230.275 85.1372V81.3781C230.066 80.8599 229.765 80.4663 229.37 80.1972C228.977 79.9232 228.504 79.7862 227.951 79.7862C227.198 79.7862 226.613 80.0825 226.194 80.6755C225.776 81.2634 225.566 82.133 225.566 83.2838ZM234.513 87.2449H233.616V79.1584H234.513V87.2449ZM233.458 76.8191C233.458 76.6497 233.513 76.5076 233.623 76.3932C233.732 76.2735 233.882 76.2138 234.072 76.2138C234.26 76.2138 234.41 76.2735 234.52 76.3932C234.635 76.5076 234.692 76.6497 234.692 76.8191C234.692 76.9886 234.635 77.1305 234.52 77.2451C234.41 77.3597 234.26 77.417 234.072 77.417C233.882 77.417 233.732 77.3597 233.623 77.2451C233.513 77.1305 233.458 76.9886 233.458 76.8191ZM241.792 85.1896C241.792 84.7462 241.613 84.39 241.254 84.1209C240.9 83.8518 240.364 83.6426 239.646 83.4931C238.93 83.3386 238.371 83.1643 237.973 82.9699C237.579 82.7706 237.285 82.5289 237.09 82.245C236.902 81.9611 236.807 81.6171 236.807 81.2137C236.807 80.5759 237.073 80.0503 237.606 79.6367C238.14 79.2182 238.823 79.0088 239.654 79.0088C240.556 79.0088 241.278 79.2331 241.821 79.6815C242.369 80.1249 242.643 80.7054 242.643 81.4229H241.746C241.746 80.9495 241.547 80.556 241.149 80.242C240.756 79.9281 240.257 79.7712 239.654 79.7712C239.066 79.7712 238.593 79.9033 238.234 80.1673C237.88 80.4263 237.704 80.7652 237.704 81.1837C237.704 81.5873 237.851 81.9012 238.145 82.1255C238.443 82.3446 238.984 82.5464 239.766 82.7308C240.554 82.9151 241.142 83.1119 241.531 83.3212C241.924 83.5304 242.215 83.782 242.405 84.0761C242.594 84.3699 242.689 84.7263 242.689 85.1447C242.689 85.8274 242.412 86.3729 241.86 86.7816C241.312 87.1901 240.594 87.3944 239.706 87.3944C238.765 87.3944 237.999 87.1676 237.412 86.7142C236.83 86.2558 236.538 85.6779 236.538 84.9804H237.435C237.47 85.5035 237.689 85.912 238.093 86.2061C238.502 86.495 239.039 86.6395 239.706 86.6395C240.329 86.6395 240.833 86.5025 241.217 86.2284C241.6 85.9544 241.792 85.6082 241.792 85.1896ZM246.096 77.0882V79.1584H247.771V79.8908H246.096V85.2793C246.096 85.7278 246.176 86.0616 246.335 86.2808C246.501 86.4999 246.771 86.6097 247.151 86.6097C247.3 86.6097 247.541 86.5847 247.875 86.5348L247.913 87.2672C247.679 87.352 247.359 87.3944 246.957 87.3944C246.343 87.3944 245.897 87.2175 245.619 86.8638C245.339 86.505 245.2 85.9794 245.2 85.2868V79.8908H243.713V79.1584H245.2V77.0882H246.096ZM250.626 87.2449H249.729V79.1584H250.626V87.2449ZM249.572 76.8191C249.572 76.6497 249.628 76.5076 249.736 76.3932C249.846 76.2735 249.995 76.2138 250.185 76.2138C250.374 76.2138 250.523 76.2735 250.633 76.3932C250.748 76.5076 250.805 76.6497 250.805 76.8191C250.805 76.9886 250.748 77.1305 250.633 77.2451C250.523 77.3597 250.374 77.417 250.185 77.417C249.995 77.417 249.846 77.3597 249.736 77.2451C249.628 77.1305 249.572 76.9886 249.572 76.8191ZM256.052 86.6395C256.675 86.6395 257.195 86.4652 257.614 86.1164C258.037 85.7626 258.266 85.3067 258.302 84.7486H259.16C259.136 85.2419 258.981 85.6929 258.698 86.1014C258.413 86.505 258.035 86.8214 257.561 87.0505C257.092 87.2798 256.59 87.3944 256.052 87.3944C254.991 87.3944 254.149 87.0257 253.526 86.2883C252.908 85.5508 252.598 84.5593 252.598 83.3137V83.0447C252.598 82.2474 252.738 81.5424 253.018 80.9296C253.296 80.3167 253.694 79.8435 254.213 79.5096C254.737 79.1758 255.346 79.0088 256.044 79.0088C256.932 79.0088 257.662 79.273 258.234 79.8011C258.811 80.3293 259.12 81.0243 259.16 81.8862H258.302C258.262 81.2535 258.032 80.7429 257.614 80.3541C257.2 79.9655 256.678 79.7712 256.044 79.7712C255.237 79.7712 254.61 80.0626 254.161 80.6457C253.717 81.2285 253.495 82.0457 253.495 83.0969V83.3585C253.495 84.39 253.717 85.1946 254.161 85.7726C254.61 86.3506 255.24 86.6395 256.052 86.6395ZM265.797 85.1896C265.797 84.7462 265.618 84.39 265.26 84.1209C264.906 83.8518 264.37 83.6426 263.653 83.4931C262.935 83.3386 262.378 83.1643 261.978 82.9699C261.585 82.7706 261.291 82.5289 261.096 82.245C260.907 81.9611 260.812 81.6171 260.812 81.2137C260.812 80.5759 261.08 80.0503 261.612 79.6367C262.145 79.2182 262.828 79.0088 263.66 79.0088C264.562 79.0088 265.284 79.2331 265.828 79.6815C266.376 80.1249 266.65 80.7054 266.65 81.4229H265.753C265.753 80.9495 265.554 80.556 265.154 80.242C264.761 79.9281 264.263 79.7712 263.66 79.7712C263.072 79.7712 262.598 79.9033 262.24 80.1673C261.886 80.4263 261.709 80.7652 261.709 81.1837C261.709 81.5873 261.856 81.9012 262.15 82.1255C262.45 82.3446 262.99 82.5464 263.772 82.7308C264.559 82.9151 265.146 83.1119 265.535 83.3212C265.93 83.5304 266.221 83.782 266.411 84.0761C266.599 84.3699 266.694 84.7263 266.694 85.1447C266.694 85.8274 266.418 86.3729 265.864 86.7816C265.316 87.1901 264.598 87.3944 263.712 87.3944C262.771 87.3944 262.006 87.1676 261.418 86.7142C260.835 86.2558 260.544 85.6779 260.544 84.9804H261.441C261.475 85.5035 261.695 85.912 262.097 86.2061C262.506 86.495 263.045 86.6395 263.712 86.6395C264.335 86.6395 264.839 86.5025 265.221 86.2284C265.606 85.9544 265.797 85.6082 265.797 85.1896Z" fill="white"/>
<path d="M121.884 87.2449H120.965V76.3632H121.884V87.2449ZM125.486 79.1584L125.516 80.541C125.82 80.0427 126.199 79.6641 126.652 79.4049C127.106 79.1409 127.606 79.0088 128.154 79.0088C129.021 79.0088 129.667 79.253 130.09 79.7414C130.514 80.2296 130.728 80.962 130.733 81.9386V87.2449H129.844V81.9311C129.838 81.2086 129.684 80.6706 129.38 80.3167C129.081 79.963 128.6 79.7862 127.938 79.7862C127.385 79.7862 126.894 79.9606 126.465 80.3094C126.042 80.6532 125.728 81.1189 125.524 81.7068V87.2449H124.634V79.1584H125.486ZM134.44 77.0882V79.1584H136.114V79.8908H134.44V85.2793C134.44 85.7278 134.52 86.0616 134.679 86.2808C134.843 86.4999 135.115 86.6097 135.494 86.6097C135.643 86.6097 135.885 86.5847 136.219 86.5348L136.256 87.2672C136.022 87.352 135.703 87.3944 135.299 87.3944C134.686 87.3944 134.241 87.2175 133.961 86.8638C133.682 86.505 133.543 85.9794 133.543 85.2868V79.8908H132.056V79.1584H133.543V77.0882H134.44ZM141.099 87.3944C140.411 87.3944 139.789 87.225 139.23 86.8861C138.677 86.5474 138.246 86.0766 137.937 85.4737C137.629 84.8657 137.474 84.1857 137.474 83.4334V83.1119C137.474 82.3347 137.624 81.6346 137.923 81.0118C138.226 80.389 138.647 79.9007 139.186 79.547C139.724 79.1882 140.307 79.0088 140.934 79.0088C141.916 79.0088 142.693 79.3453 143.266 80.0178C143.844 80.6855 144.133 81.5997 144.133 82.7607V83.2615H138.364V83.4334C138.364 84.35 138.625 85.1149 139.148 85.7278C139.676 86.3356 140.339 86.6395 141.136 86.6395C141.615 86.6395 142.035 86.5523 142.399 86.378C142.768 86.2036 143.102 85.9246 143.401 85.5409L143.961 85.9668C143.304 86.9186 142.349 87.3944 141.099 87.3944ZM140.934 79.7712C140.262 79.7712 139.694 80.0178 139.23 80.5111C138.772 81.0044 138.493 81.667 138.393 82.4991H143.244V82.4019C143.219 81.6246 142.997 80.9919 142.579 80.5036C142.16 80.0154 141.612 79.7712 140.934 79.7712ZM149.611 79.9206C149.422 79.8859 149.22 79.8684 149.006 79.8684C148.448 79.8684 147.975 80.0253 147.586 80.3392C147.202 80.6481 146.928 81.099 146.764 81.692V87.2449H145.875V79.1584H146.749L146.764 80.4438C147.237 79.4871 147.997 79.0088 149.043 79.0088C149.293 79.0088 149.489 79.0413 149.634 79.106L149.611 79.9206ZM151.883 79.1584L151.913 80.541C152.217 80.0427 152.596 79.6641 153.049 79.4049C153.502 79.1409 154.004 79.0088 154.552 79.0088C155.418 79.0088 156.064 79.253 156.487 79.7414C156.911 80.2296 157.125 80.962 157.13 81.9386V87.2449H156.24V81.9311C156.236 81.2086 156.081 80.6706 155.777 80.3167C155.478 79.963 154.997 79.7862 154.335 79.7862C153.782 79.7862 153.291 79.9606 152.862 80.3094C152.439 80.6532 152.125 81.1189 151.921 81.7068V87.2449H151.031V79.1584H151.883ZM164.552 87.2449C164.461 86.9908 164.405 86.6146 164.38 86.1164C164.065 86.5249 163.664 86.8413 163.176 87.0655C162.693 87.2847 162.179 87.3944 161.637 87.3944C160.86 87.3944 160.229 87.1777 159.745 86.7442C159.268 86.3106 159.028 85.7626 159.028 85.0999C159.028 84.3127 159.355 83.6899 160.007 83.2315C160.665 82.7732 161.579 82.5439 162.75 82.5439H164.372V81.6246C164.372 81.0467 164.192 80.5933 163.834 80.2645C163.48 79.9307 162.961 79.7637 162.279 79.7637C161.657 79.7637 161.141 79.9232 160.733 80.242C160.324 80.5609 160.119 80.9446 160.119 81.3931L159.222 81.3856C159.222 80.7429 159.522 80.1872 160.119 79.7189C160.717 79.2456 161.452 79.0088 162.324 79.0088C163.226 79.0088 163.936 79.2357 164.454 79.689C164.977 80.1373 165.246 80.7652 165.262 81.5723V85.3988C165.262 86.1811 165.343 86.7666 165.508 87.1552V87.2449H164.552ZM161.741 86.6022C162.34 86.6022 162.872 86.4577 163.341 86.1687C163.814 85.8797 164.158 85.4936 164.372 85.0102V83.2315H162.773C161.881 83.2414 161.183 83.406 160.681 83.7248C160.177 84.0387 159.924 84.4722 159.924 85.0252C159.924 85.4786 160.091 85.8548 160.427 86.1537C160.765 86.4527 161.203 86.6022 161.741 86.6022ZM169.042 77.0882V79.1584H170.717V79.8908H169.042V85.2793C169.042 85.7278 169.122 86.0616 169.283 86.2808C169.446 86.4999 169.717 86.6097 170.097 86.6097C170.247 86.6097 170.487 86.5847 170.822 86.5348L170.859 87.2672C170.625 87.352 170.307 87.3944 169.903 87.3944C169.29 87.3944 168.843 87.2175 168.565 86.8638C168.286 86.505 168.145 85.9794 168.145 85.2868V79.8908H166.659V79.1584H168.145V77.0882H169.042ZM173.571 87.2449H172.674V79.1584H173.571V87.2449ZM172.518 76.8191C172.518 76.6497 172.573 76.5076 172.682 76.3932C172.792 76.2735 172.942 76.2138 173.131 76.2138C173.32 76.2138 173.47 76.2735 173.579 76.3932C173.694 76.5076 173.752 76.6497 173.752 76.8191C173.752 76.9886 173.694 77.1305 173.579 77.2451C173.47 77.3597 173.32 77.417 173.131 77.417C172.942 77.417 172.792 77.3597 172.682 77.2451C172.573 77.1305 172.518 76.9886 172.518 76.8191ZM175.515 83.0821C175.515 82.3048 175.665 81.6047 175.964 80.9819C176.267 80.3591 176.694 79.8758 177.242 79.532C177.794 79.1833 178.42 79.0088 179.117 79.0088C180.194 79.0088 181.065 79.3875 181.733 80.1448C182.402 80.8973 182.735 81.8962 182.735 83.1418V83.3287C182.735 84.111 182.582 84.816 182.279 85.4437C181.981 86.0665 181.557 86.5474 181.009 86.8861C180.461 87.225 179.835 87.3944 179.132 87.3944C178.061 87.3944 177.19 87.0182 176.516 86.2659C175.849 85.5086 175.515 84.5071 175.515 83.2615V83.0821ZM176.412 83.3287C176.412 84.2952 176.662 85.0899 177.159 85.7128C177.663 86.3307 178.321 86.6395 179.132 86.6395C179.94 86.6395 180.592 86.3307 181.09 85.7128C181.593 85.0899 181.846 84.2703 181.846 83.254V83.0821C181.846 82.4642 181.731 81.8988 181.502 81.3856C181.272 80.8723 180.951 80.4762 180.537 80.1972C180.124 79.9133 179.651 79.7712 179.117 79.7712C178.321 79.7712 177.67 80.0851 177.167 80.7129C176.663 81.3357 176.412 82.1529 176.412 83.1643V83.3287ZM185.44 79.1584L185.47 80.541C185.773 80.0427 186.153 79.6641 186.606 79.4049C187.059 79.1409 187.56 79.0088 188.108 79.0088C188.976 79.0088 189.62 79.253 190.044 79.7414C190.468 80.2296 190.682 80.962 190.687 81.9386V87.2449H189.797V81.9311C189.793 81.2086 189.638 80.6706 189.334 80.3167C189.035 79.963 188.555 79.7862 187.892 79.7862C187.339 79.7862 186.848 79.9606 186.419 80.3094C185.995 80.6532 185.682 81.1189 185.478 81.7068V87.2449H184.589V79.1584H185.44ZM198.109 87.2449C198.018 86.9908 197.962 86.6146 197.936 86.1164C197.622 86.5249 197.221 86.8413 196.733 87.0655C196.249 87.2847 195.736 87.3944 195.193 87.3944C194.417 87.3944 193.786 87.1777 193.303 86.7442C192.825 86.3106 192.585 85.7626 192.585 85.0999C192.585 84.3127 192.911 83.6899 193.564 83.2315C194.222 82.7732 195.136 82.5439 196.307 82.5439H197.928V81.6246C197.928 81.0467 197.749 80.5933 197.391 80.2645C197.037 79.9307 196.518 79.7637 195.836 79.7637C195.213 79.7637 194.697 79.9232 194.29 80.242C193.881 80.5609 193.676 80.9446 193.676 81.3931L192.779 81.3856C192.779 80.7429 193.079 80.1872 193.676 79.7189C194.275 79.2456 195.009 79.0088 195.882 79.0088C196.783 79.0088 197.493 79.2357 198.011 79.689C198.534 80.1373 198.804 80.7652 198.819 81.5723V85.3988C198.819 86.1811 198.9 86.7666 199.065 87.1552V87.2449H198.109ZM195.298 86.6022C195.895 86.6022 196.43 86.4577 196.898 86.1687C197.371 85.8797 197.715 85.4936 197.928 85.0102V83.2315H196.33C195.438 83.2414 194.74 83.406 194.236 83.7248C193.734 84.0387 193.482 84.4722 193.482 85.0252C193.482 85.4786 193.648 85.8548 193.982 86.1537C194.322 86.4527 194.76 86.6022 195.298 86.6022ZM202.211 87.2449H201.314V75.7653H202.211V87.2449ZM209.506 86.4676H214.88V87.2449H208.578V76.3632H209.506V86.4676ZM215.948 83.0821C215.948 82.3048 216.098 81.6047 216.396 80.9819C216.699 80.3591 217.127 79.8758 217.675 79.532C218.227 79.1833 218.853 79.0088 219.549 79.0088C220.627 79.0088 221.498 79.3875 222.165 80.1448C222.834 80.8973 223.168 81.8962 223.168 83.1418V83.3287C223.168 84.111 223.015 84.816 222.712 85.4437C222.413 86.0665 221.989 86.5474 221.441 86.8861C220.893 87.225 220.267 87.3944 219.565 87.3944C218.493 87.3944 217.622 87.0182 216.949 86.2659C216.282 85.5086 215.948 84.5071 215.948 83.2615V83.0821ZM216.845 83.3287C216.845 84.2952 217.094 85.0899 217.592 85.7128C218.095 86.3307 218.754 86.6395 219.565 86.6395C220.373 86.6395 221.025 86.3307 221.524 85.7128C222.026 85.0899 222.279 84.2703 222.279 83.254V83.0821C222.279 82.4642 222.164 81.8988 221.934 81.3856C221.705 80.8723 221.383 80.4762 220.97 80.1972C220.557 79.9133 220.084 79.7712 219.549 79.7712C218.754 79.7712 218.103 80.0851 217.599 80.7129C217.096 81.3357 216.845 82.1529 216.845 83.1643V83.3287ZM224.662 83.1269C224.662 81.8613 224.942 80.8599 225.499 80.1225C226.062 79.3801 226.825 79.0088 227.786 79.0088C228.888 79.0088 229.725 79.4473 230.297 80.3242L230.342 79.1584H231.179V87.0805C231.179 88.1218 230.888 88.9465 230.305 89.5543C229.722 90.1621 228.932 90.4661 227.936 90.4661C227.372 90.4661 226.835 90.339 226.321 90.0849C225.813 89.8358 225.412 89.5019 225.118 89.0835L225.618 88.5453C226.252 89.3225 227.004 89.7112 227.876 89.7112C228.623 89.7112 229.206 89.4895 229.624 89.0461C230.043 88.6076 230.261 87.9972 230.275 87.215V86.1986C229.702 86.9957 228.868 87.3944 227.772 87.3944C226.835 87.3944 226.082 87.0207 225.514 86.2733C224.946 85.526 224.662 84.517 224.662 83.2465V83.1269ZM225.566 83.2838C225.566 84.3152 225.773 85.1299 226.186 85.7278C226.601 86.3207 227.183 86.617 227.936 86.617C229.036 86.617 229.817 86.1239 230.275 85.1372V81.3781C230.066 80.8599 229.765 80.4663 229.37 80.1972C228.977 79.9232 228.504 79.7862 227.951 79.7862C227.198 79.7862 226.613 80.0825 226.194 80.6755C225.776 81.2634 225.566 82.133 225.566 83.2838ZM234.513 87.2449H233.616V79.1584H234.513V87.2449ZM233.458 76.8191C233.458 76.6497 233.513 76.5076 233.623 76.3932C233.732 76.2735 233.882 76.2138 234.072 76.2138C234.26 76.2138 234.41 76.2735 234.52 76.3932C234.635 76.5076 234.692 76.6497 234.692 76.8191C234.692 76.9886 234.635 77.1305 234.52 77.2451C234.41 77.3597 234.26 77.417 234.072 77.417C233.882 77.417 233.732 77.3597 233.623 77.2451C233.513 77.1305 233.458 76.9886 233.458 76.8191ZM241.792 85.1896C241.792 84.7462 241.613 84.39 241.254 84.1209C240.9 83.8518 240.364 83.6426 239.646 83.4931C238.93 83.3386 238.371 83.1643 237.973 82.9699C237.579 82.7706 237.285 82.5289 237.09 82.245C236.902 81.9611 236.807 81.6171 236.807 81.2137C236.807 80.5759 237.073 80.0503 237.606 79.6367C238.14 79.2182 238.823 79.0088 239.654 79.0088C240.556 79.0088 241.278 79.2331 241.821 79.6815C242.369 80.1249 242.643 80.7054 242.643 81.4229H241.746C241.746 80.9495 241.547 80.556 241.149 80.242C240.756 79.9281 240.257 79.7712 239.654 79.7712C239.066 79.7712 238.593 79.9033 238.234 80.1673C237.88 80.4263 237.704 80.7652 237.704 81.1837C237.704 81.5873 237.851 81.9012 238.145 82.1255C238.443 82.3446 238.984 82.5464 239.766 82.7308C240.554 82.9151 241.142 83.1119 241.531 83.3212C241.924 83.5304 242.215 83.782 242.405 84.0761C242.594 84.3699 242.689 84.7263 242.689 85.1447C242.689 85.8274 242.412 86.3729 241.86 86.7816C241.312 87.1901 240.594 87.3944 239.706 87.3944C238.765 87.3944 237.999 87.1676 237.412 86.7142C236.83 86.2558 236.538 85.6779 236.538 84.9804H237.435C237.47 85.5035 237.689 85.912 238.093 86.2061C238.502 86.495 239.039 86.6395 239.706 86.6395C240.329 86.6395 240.833 86.5025 241.217 86.2284C241.6 85.9544 241.792 85.6082 241.792 85.1896ZM246.096 77.0882V79.1584H247.771V79.8908H246.096V85.2793C246.096 85.7278 246.176 86.0616 246.335 86.2808C246.501 86.4999 246.771 86.6097 247.151 86.6097C247.3 86.6097 247.541 86.5847 247.875 86.5348L247.913 87.2672C247.679 87.352 247.359 87.3944 246.957 87.3944C246.343 87.3944 245.897 87.2175 245.619 86.8638C245.339 86.505 245.2 85.9794 245.2 85.2868V79.8908H243.713V79.1584H245.2V77.0882H246.096ZM250.626 87.2449H249.729V79.1584H250.626V87.2449ZM249.572 76.8191C249.572 76.6497 249.628 76.5076 249.736 76.3932C249.846 76.2735 249.995 76.2138 250.185 76.2138C250.374 76.2138 250.523 76.2735 250.633 76.3932C250.748 76.5076 250.805 76.6497 250.805 76.8191C250.805 76.9886 250.748 77.1305 250.633 77.2451C250.523 77.3597 250.374 77.417 250.185 77.417C249.995 77.417 249.846 77.3597 249.736 77.2451C249.628 77.1305 249.572 76.9886 249.572 76.8191ZM256.052 86.6395C256.675 86.6395 257.195 86.4652 257.614 86.1164C258.037 85.7626 258.266 85.3067 258.302 84.7486H259.16C259.136 85.2419 258.981 85.6929 258.698 86.1014C258.413 86.505 258.035 86.8214 257.561 87.0505C257.092 87.2798 256.59 87.3944 256.052 87.3944C254.991 87.3944 254.149 87.0257 253.526 86.2883C252.908 85.5508 252.598 84.5593 252.598 83.3137V83.0447C252.598 82.2474 252.738 81.5424 253.018 80.9296C253.296 80.3167 253.694 79.8435 254.213 79.5096C254.737 79.1758 255.346 79.0088 256.044 79.0088C256.932 79.0088 257.662 79.273 258.234 79.8011C258.811 80.3293 259.12 81.0243 259.16 81.8862H258.302C258.262 81.2535 258.032 80.7429 257.614 80.3541C257.2 79.9655 256.678 79.7712 256.044 79.7712C255.237 79.7712 254.61 80.0626 254.161 80.6457C253.717 81.2285 253.495 82.0457 253.495 83.0969V83.3585C253.495 84.39 253.717 85.1946 254.161 85.7726C254.61 86.3506 255.24 86.6395 256.052 86.6395ZM265.797 85.1896C265.797 84.7462 265.618 84.39 265.26 84.1209C264.906 83.8518 264.37 83.6426 263.653 83.4931C262.935 83.3386 262.378 83.1643 261.978 82.9699C261.585 82.7706 261.291 82.5289 261.096 82.245C260.907 81.9611 260.812 81.6171 260.812 81.2137C260.812 80.5759 261.08 80.0503 261.612 79.6367C262.145 79.2182 262.828 79.0088 263.66 79.0088C264.562 79.0088 265.284 79.2331 265.828 79.6815C266.376 80.1249 266.65 80.7054 266.65 81.4229H265.753C265.753 80.9495 265.554 80.556 265.154 80.242C264.761 79.9281 264.263 79.7712 263.66 79.7712C263.072 79.7712 262.598 79.9033 262.24 80.1673C261.886 80.4263 261.709 80.7652 261.709 81.1837C261.709 81.5873 261.856 81.9012 262.15 82.1255C262.45 82.3446 262.99 82.5464 263.772 82.7308C264.559 82.9151 265.146 83.1119 265.535 83.3212C265.93 83.5304 266.221 83.782 266.411 84.0761C266.599 84.3699 266.694 84.7263 266.694 85.1447C266.694 85.8274 266.418 86.3729 265.864 86.7816C265.316 87.1901 264.598 87.3944 263.712 87.3944C262.771 87.3944 262.006 87.1676 261.418 86.7142C260.835 86.2558 260.544 85.6779 260.544 84.9804H261.441C261.475 85.5035 261.695 85.912 262.097 86.2061C262.506 86.495 263.045 86.6395 263.712 86.6395C264.335 86.6395 264.839 86.5025 265.221 86.2284C265.606 85.9544 265.797 85.6082 265.797 85.1896Z" stroke="white" mask="url(#path-6-outside-1)"/>
</svg>
