<svg width="512" height="512" viewBox="0 0 512 512" fill="none" xmlns="http://www.w3.org/2000/svg">
<path d="M256 0C114.618 0 0 114.618 0 256C0 397.382 114.618 512 256 512C397.382 512 512 397.382 512 256C512 114.618 397.382 0 256 0ZM256 469.333C138.182 469.333 42.667 373.818 42.667 256C42.667 138.182 138.182 42.667 256 42.667C373.818 42.667 469.333 138.182 469.333 256C469.333 373.818 373.818 469.333 256 469.333Z" fill="white"/>
<path d="M346.104 315.935L195.254 165.085C186.923 156.754 173.416 156.754 165.085 165.085C156.754 173.416 156.754 186.923 165.085 195.254L315.934 346.103C324.265 354.434 337.772 354.434 346.103 346.103C354.434 337.774 354.435 324.266 346.104 315.935Z" fill="white"/>
<path d="M315.994 165.165L165.144 316.014C156.813 324.346 156.813 337.853 165.144 346.184C173.475 354.515 186.982 354.515 195.313 346.184L346.162 195.335C354.494 187.003 354.494 173.496 346.163 165.165C337.832 156.833 324.325 156.833 315.994 165.165Z" fill="white"/>
</svg>
