<svg height="512" viewBox="0 0 512 512" width="512" xmlns="http://www.w3.org/2000/svg"><g id="BULINE"><circle cx="256" cy="256" fill="#27273d" r="256"/></g><g id="Icons"><circle cx="256" cy="256" fill="#04a558" r="256"/><path d="m295.5 509a257.29 257.29 0 0 1 -39.5 3c-141.38 0-256-114.61-256-256s114.62-256 256-256a257.29 257.29 0 0 1 39.5 3c-110.45 17.14-197.58 104.86-213.79 215.61a259.29 259.29 0 0 0 0 74.78c16.21 110.76 103.34 198.48 213.79 215.61z" fill="#03914a"/><path d="m256 117.5-238.74 138.5 238.74 138.5 238.74-138.5z" fill="#fcc13d"/><path d="m79 256a259 259 0 0 0 2.71 37.39l-64.45-37.39 64.45-37.39a259 259 0 0 0 -2.71 37.39z" fill="#dda22c"/><circle cx="452.31" cy="140.01" fill="#00b564" r="16.28"/><circle cx="430.07" cy="114.41" fill="#00b564" r="11.53"/><path d="m355 256v.74a98 98 0 1 1 0-.74z" fill="#3e436d"/><g fill="#fff"><path d="m355 256.74a98.47 98.47 0 0 1 -7.05 36c-19.67-35.52-52.07-60.92-96.74-75.75-33.93-11.25-65.67-13-79.4-13.1a99 99 0 0 1 22-24.94 293.18 293.18 0 0 1 64.76 13.1c40.76 13.4 73.27 35.32 96.43 64.69z"/><circle cx="188" cy="287" r="7"/><circle cx="221" cy="328" r="7"/><circle cx="256" cy="309.67" r="7"/><circle cx="270" cy="335" r="7"/><circle cx="318" cy="299.67" r="7"/><circle cx="299" cy="322.34" r="7"/><circle cx="270" cy="256" r="7"/><circle cx="188" cy="230" r="7"/><circle cx="221" cy="294" r="7"/></g></g></svg>