<svg width="50" height="50" viewBox="0 0 50 50" fill="none" xmlns="http://www.w3.org/2000/svg">
<g clip-path="url(#clip0)">
<path d="M50 9.47266C48.1277 10.3024 46.0766 10.7948 44.043 11.0352C46.1845 9.75304 47.7695 7.74651 48.5352 5.37109C46.5214 6.56586 44.4012 7.45735 42.104 7.91016C40.1188 5.7991 37.4516 4.6875 34.7656 4.6875C32.1289 4.6875 29.6097 5.57671 27.5898 7.47643C25.5054 9.43642 24.3206 12.1479 24.3164 14.9414C24.3153 15.7188 24.4419 16.5024 24.622 17.2779C16.3738 16.8644 8.72459 12.9517 3.51562 6.54297C2.57149 8.16841 2.04964 9.96361 2.05078 11.7188C2.05307 15.0246 3.69606 18.2484 6.64062 20.2148C5.00793 20.1664 3.37982 19.8383 1.95312 19.043V19.2299C1.95465 24.1131 5.46722 28.1345 10.2539 29.1016C9.40819 29.3324 8.31146 29.4956 7.43065 29.4956C7.4276 29.4956 7.42455 29.4956 7.42188 29.4956C6.73332 29.4945 6.04477 29.4266 5.37109 29.2969C6.71501 33.4759 10.8456 36.5387 15.2344 36.6211C11.602 39.476 5.95703 40.8203 2.44217 40.8203C1.62582 40.8188 0.810242 40.8195 0 40.7227C4.68025 43.726 10.1246 45.3125 15.6849 45.3125H15.7238V45.3205C34.4727 45.3205 44.9219 29.6841 44.9219 16.1278C44.9219 15.6837 44.8544 15.1859 44.8242 14.7461C46.8319 13.2938 48.6225 11.5326 50 9.47266ZM39.3414 25.029C38.1908 28.0785 36.5376 30.8342 34.4276 33.2199C32.1903 35.7494 29.5403 37.7354 26.5518 39.122C23.4768 40.5487 20.0809 41.3155 16.4482 41.4051L15.7169 41.4062H15.6849C15.4736 41.4062 15.2626 41.4036 15.052 41.3982C15.971 40.8909 16.8457 40.3229 17.6479 39.6923C19.6644 37.8193 20.5643 35.4465 20.8984 32.8205C20.8984 32.8205 19.2547 33.0204 17.3828 33.0078C15.9325 32.9979 14.3456 32.8789 13.279 32.3254C15.9332 31.1321 17.3283 29.1538 17.8959 26.6602C15.625 26.8555 10.3516 25.6836 8.45985 24.1768C10.5469 23.4375 12.5 21.875 13.2812 20.6055C13.2812 20.6055 9.57031 18.8477 6.95076 15.0791C12.0388 18.7096 18.0981 20.8622 24.4267 21.1792L29.5898 21.3867L28.5217 16.803L28.3222 15.8939C28.2551 15.5254 28.2223 15.213 28.2227 14.9471C28.2249 13.2267 28.97 11.5406 30.2658 10.3218C31.485 9.17511 32.999 8.59375 34.7656 8.59375C36.0706 8.59375 37.3592 9.04007 38.4289 9.84344C40.1367 11.3281 41.0156 13.2812 41.0156 16.1278C41.0156 19.0487 40.4366 22.1268 39.3414 25.029Z" fill="white"/>
</g>
<defs>
<clipPath id="clip0">
<rect width="50" height="50" fill="white"/>
</clipPath>
</defs>
</svg>
